<mxfile host="app.diagrams.net" agent="Mozilla/5.0 (Windows NT 10.0; Win64; x64) AppleWebKit/537.36 (KHTML, like Gecko) Chrome/139.0.0.0 Safari/537.36" version="28.1.2">
  <diagram name="Страница — 1" id="UwErQ-bZAc7OBdPwHLBI">
    <mxGraphModel dx="1425" dy="754" grid="1" gridSize="10" guides="1" tooltips="1" connect="1" arrows="1" fold="1" page="1" pageScale="1" pageWidth="827" pageHeight="1169" math="0" shadow="0">
      <root>
        <mxCell id="0" />
        <mxCell id="1" parent="0" />
        <mxCell id="Pv7_C7f3T_UFruFDpJQl-46" value="VM Mikrtotik 10G x2" style="text;html=1;align=center;verticalAlign=middle;whiteSpace=wrap;rounded=0;fontFamily=Helvetica;fontSize=11;fontColor=default;labelBackgroundColor=default;" vertex="1" parent="1">
          <mxGeometry x="712" y="1632" width="60" height="30" as="geometry" />
        </mxCell>
        <mxCell id="Pv7_C7f3T_UFruFDpJQl-1" value="" style="shape=image;verticalLabelPosition=bottom;labelBackgroundColor=default;verticalAlign=top;aspect=fixed;imageAspect=0;image=data:image/jpeg,/9j/4AAQSkZJRgABAQEASABIAAD/4gHYSUNDX1BST0ZJTEUAAQEAAAHIAAAAAAQwAABtbnRyUkdCIFhZWiAH4AABAAEAAAAAAABhY3NwAAAAAAAAAAAAAAAAAAAAAAAAAAAAAAAAAAAAAQAA9tYAAQAAAADTLQAAAAAAAAAAAAAAAAAAAAAAAAAAAAAAAAAAAAAAAAAAAAAAAAAAAAAAAAAAAAAAAAAAAAlkZXNjAAAA8AAAACRyWFlaAAABFAAAABRnWFlaAAABKAAAABRiWFlaAAABPAAAABR3dHB0AAABUAAAABRyVFJDAAABZAAAAChnVFJDAAABZAAAAChiVFJDAAABZAAAAChjcHJ0AAABjAAAADxtbHVjAAAAAAAAAAEAAAAMZW5VUwAAAAgAAAAcAHMAUgBHAEJYWVogAAAAAAAAb6IAADj1AAADkFhZWiAAAAAAAABimQAAt4UAABjaWFlaIAAAAAAAACSgAAAPhAAAts9YWVogAAAAAAAA9tYAAQAAAADTLXBhcmEAAAAAAAQAAAACZmYAAPKnAAANWQAAE9AAAApbAAAAAAAAAABtbHVjAAAAAAAAAAEAAAAMZW5VUwAAACAAAAAcAEcAbwBvAGcAbABlACAASQBuAGMALgAgADIAMAAxADb/2wBDAAQDAwQDAwQEAwQFBAQFBgoHBgYGBg0JCggKDw0QEA8NDw4RExgUERIXEg4PFRwVFxkZGxsbEBQdHx0aHxgaGxr/2wBDAQQFBQYFBgwHBwwaEQ8RGhoaGhoaGhoaGhoaGhoaGhoaGhoaGhoaGhoaGhoaGhoaGhoaGhoaGhoaGhoaGhoaGhr/wgARCAOtBQADASIAAhEBAxEB/8QAGwABAQEAAwEBAAAAAAAAAAAAAQACBAUGAwf/xAAXAQEBAQEAAAAAAAAAAAAAAAAAAQID/9oADAMBAAIQAxAAAAH9GpzYkRqSoRgaKoEapCmgpBYGhEKQmiGKcjSQxVFMQxVBMUwUhSCgTUTA1FUC1FUVIUhSZkKYBCkJIKgZoqCopAmI0BIVRGgGCqBoqgpMykSZlMmoJjK5KoSQqKopCqKooSiEkqBKEkKgmjMhumqkqimBqEkKQRqqBaCYGQpIYFCqJqiaKomglMtE0FJCDSA1TA1GWipgmKEhiKqkGqM6gSiqCYJjMwG8kaKJgkC0AaBKKopgqBQJjMwTGVgqCQqQmCos6jLQMmWgqHOoJiJCoqgkGgRiqA0FOQlhqpqGIaSqKoGhqKQaiqg0Q0DICJMDQTVDJJRVEkTAwkSDRVUkmWihJiKSqopCRCoc6CSJgqhy0E1FUQlUwVBUVRVBIVRVFCDA1BCDRUCIRoC0FCFIJEMEIiESUIUCkVRSA0UQ1EIVQWghQaGoRimKEoSqKYqiRBqJgpBqJgaQkKkEaqg0UJRSFMQ1CMDFIwaIpBCE0FUUhVFUVQxEkSIUE0EhVEkOWAQpCGIYEiqKEhiKKg1lioJIYQqEYJyNBUgMWdQSCIEwSFUDRVEWgqCkohKKYqQWKoqQRKoGhGKYGiqKYESGKYqiqGoGBpAYqimCoqQkJEGBJBoqgRIYohqBEnMNRVA1E5qaoLWapiygKFQVRCFUVQlAoFRUgaCJCoqQqKokiGKIaiqCQpAUIQpgNZKQqQaCYy0UQjBUNaIkpCSGgqhSNRDUUhoIZyNRUlQNRVFUUIlEkMQxQw1VDEVRVEkSQ0FQaspIDENAxDUMBqyiUTlhstVAlFCEJREIVRQlEMQlCUVRVCUUINFZ0DQTEUVRSEkSRSDEQwIgaCpBIqQpMohMFRSGhiSGoSg0RJDSEg1FIVJVEiCQxDUURJFSCRMCRGoqkhoJESDQQ1CCJJRFUSIUC5hhKEojVlEIShiKIYioEooikBEoSoEYhBoGIohcpUGoiqGAaBso0E0VApDZRKKoqhywNAiDRVA0QhJDUJIJGoQaBEqSGKoShJBEJgaKIaiqEoqiqEohiqBIkhs6EEqBiGIYRIFyiCVApCUJRQkkUQ0EIJA2Y1ZhiKokioNAlUOaKQSiKNBCSTmJI0EMApDUUQwiGiKJykwSRaInKVRVCISISEKZYFykkJQwlUMJVDCJQxDUUJFFISJVFEIRqIojVlKooSiEoagSKoqiqJzGiyaiNGUXMOsQ6zGoispoIQRCNZohBCEgqihKoYhBEoayKQazDUVRVBUJIJDWTRQuYYhJJEo0VmNQhQLlEkESJKoqiRIkzUNRME0QxIg0VJVBqBiEgakqlnKJRVFUEJJBUUhVFQLmNWY1ZSoGgaiqIoSDRRWdDZSoFg0EIRpzDWTRROYSBKKIqyagjUFaiNAGojViN2Y1ZRiGIYDRA0DCUBqA1QMJVDQOshqIYiSFzGsyMQwE0JRoEoiqGoSiYFIYiRKQShINRCINQJFUDAxCUQxVBIJRDCQJROYYhKGyjZRiGyjZ0URJCUVQxCUSApFEMQkCUNlIoy2TdlGIYhqEEGC0BooYDRRoywlDRSIJRVDZTQwJDUVINFUDQxEkNQJCIJQ0EiJQwiUNRVFSCQ0CINBMDENAxFUJRUDENlJyC5jQRVFENBJCQNnRWYQRgNFDZRhGyi5hSEIaioKgXMTmGAUyacBsIkjQBpzC5RiNWNFUJQlCQIxUDGoEhipiEoXKVQ0GqihEQkhGBoKShKkIScw0GihpItBISJVFUSRVFIVRUDCVAwhIVRUDZhKKEhCqEIQhiEooybJKylEJRUEkKZNRGrKLkNRG4igGQcsVmJIKCQKoQScouY1ZTUQ1GstFUTFNRlGKGpylEaKDWdAgbspIlUSRsIYQZCEGQqKg1EVAohCJRpIaBqEoUiqKoqioJgYiqSiEorOlihy5GobMIQkCWTUQgG80IBqBNQLqA1AMQ1DEVQlFQLlJEihiGIYBcRqxogQSCoNZiRJkHMLQxDCaiJEkgpiSoUIaIYhqqiaCYkSSGESBSGonKCQlDQMRoEpCQNMpJK1AiDRVFCVQxEQNQVIlEIQwJLQkUVlEsmgDQJEDEIJEI0DCtEMQ2UXMOvnoUBcpMEwGhIQjUE5KgSQnBoIbMaBIE0ZTRRaI1GTUJIlUaCNWURhgGkEikJoKQaBkmgmKoYhcxNFQTAjFEIg1FUVRupEpWgaiQNQgkVCJRRFUJAkDEqCkUJSiAxFElWVYSIJA0ZSiRoWsqNjZWZWA0CagFI3Yj6GY05jcA1GNwTRmYBCoIQnIaoFyGtZRGEkJBpHOgpBiKQkSqLWE1AahJyGqhGhiFy1UCkMJRDAagNBGqyaSKEnMMIkmkkYRoVzoRitYoqEaqiBiiINAlFSAaghIGA0AasRosi5DVkNWQ0ALhXWRNWZMZ+uT5/bGqRIYVqBKNAk5jb8424TUQoC4TVmGIRCgKoIiKNRDojVmFzGo0LmNQGiQqEYjOySJgYDUJQi5jUEaiFIkqYjQQwlEJQwGoikEQ0EKRJH1hsmIaBqqhgaCKjQCUVRUESEQlEQUQgDZhgEsm8UJAhCmY1ZrVySbMxqyGhjNpKz8j73y+pa+EfbOVfpj5aLW8mrj/RPrZVmicRpIkgpIg1ZiiIoYRcxqIbOi1lFxG4jYJQk5RcaGIYhKGgaokSGJKrWYUDVmNElELiGgXMLmLWU1mhspUiEcjJqychsoqBiJAqioGAYCqKAYBINZsmgichoASDRZNADZSiJzDZlYiqRKKzLqJNBRo43JqKPpYl2DE5TVlJzGo0WYNRDEU5GIoSiSoNRGoVqDRnQ2Y05Rcxqg05hcxuxoYjRQxDBDCNQ1wK57EUaqqIQYBiNZI1ZYtYq1ZhcxqyjZTUQxHISsShKKgSioKgkioEErMUAjkSCIEA3kirJpwGrKRBqxGgjWSJIkBiGIbMJRbxo6LvOi7vTTmzdOY1QMMSSbsRsFUg0CIA0EgasyasohGnMq5jYRqzobKLiGtFZ2CRrLFCDRqzoSiqhBGKtea9N53b0WUwSSQhoEoqhgJIQqYhiFyGwRQNBHLhsqCkKoBhLIlCUCAjkqCsxrNkcoUBVAUTkEg0ETnJq+HG07B6TjHpLzHHr1/B8h6vTq+3+3Cy7NzYLmFxoSi+ny+p0HedD3ujDlJCUas0aiNWdEUSC6shuwmiyaMpqAXMjZV04RcaGA04R1hGymyiYNWUNCLnJuIXPAOyz4/wBVX3eh66vYb8Dza9bdP22X2852vErtoslzRqxqkiGAaiKCg0RTQaMxqzGnMasxqzHPIs1EDAlDkRzRUFQIQgDZBAEAayJRQU2QSzGrMIQ9d2HC01xOX1WnZcDj8vTsvj532OXiu85vn9PS8Hr/ALZd4BzacRqzGnEfTfw+h0fe+c7/AE+lmy05hhFzQ0GrKLiNOJWA1ZjQBsIciasxpwmijUIlE2TRnZIkWD6b+aaqJEqhiHzvovIbe08jzPhp6fi8jpsPr2vC5kLmy6bt+g9JtmjKYhSEohBLJpwk5YoK3mKSijJ9CybgNWU7CqwSEsmgiqIsjAJQ5ylAOYEzFDVAMBREOTWYJARB+P1K4Hy652xy/hzazwPQ/bLynYdxRvzve5j7Y8z6gCMmzGrIb38U6Pv/ADvodNGXLTiPpfNPo/LUbcRqzGnEaCVKKEohgGI0QaiNwhsDUQsEMOWBEWBSDQi4RiNdJ3NX2zhkeHy06nt86Xg8748mui7X7eZ09Lcbi5dndOnbvV6Oxr5R9EocyEUVAgjkaYiKphDWUoTsYLGA0UVBQFAaMwhUlkQishUDZigGA0GRQEIQSiGA0EI4put453R0vVad5wuZ2Z1XU9t2R9M+b5Ed5dCR350Md9ecK7x6LjV668yR6d8wx6bg9Xyjt99N20bssagjb843YRJKBVyiUVBooURcxpwi50VJEkkVZHedA0OIrpuw8t3e5ycOjDojhcD1XKPG69iHlD1dHlM+tK8pr1LHm+V3Udbdix1Xy7mt8R2vYVdmVzVQEQlFQJQhUwC5RcRqyHZ0alEUQwDmBIHMCWaYiILKCQVmNZgSBIKoqyMAuUgTq88n5bnmXvMbcj7cHlwc3z/KOo9J5Ps9Xm9z5v0nJwPt1/PrllYPnvRef07fqc9zp0fP4nT6e1sPFUhw+RxDXYeetPQXW9lk2aN2Y1AacIlQuYdYF+mSNOdIlLJCXWV2j0vdk4Y1EW/mmtZicaNnz0a+emvKes8b7DU05sNmZd2JNuQ05o3Zq2CayUKCtVcPi9n0W3oQOZIhINDkohiKI0AashqIbMdnFuIRBGskVmpIKAcsUZNZQiAiKISCiEohyVRUCUVBjp+86XU15/1XP0859+6MuL9voS8bmZj4/boe4Or4/eYrqcekjzZ6OPL69KHnddnzq81r0ecvP3fx0nz7+HWTLidb3rp0PO7LrzmfToMnobzqd/r4ffKs5PpMQkSJazokShXXkvVdHt9u48l60UMNVFQWiEE1ZjX163ptMeq8bztT0b5iy9SeWj1WvI1etfJh658cnsLxyewfIJ63fj09Zjyn0Xv+Bw+TXE89+hdPWO9+vy5GLKKKAUBgGzDZRsolCQdnOdxIDLkYaiggGzEUJmGAoiKIqq+Un0zw+sX0F5q1PSvlw9H1fE7E4H17n5nx5flfVxlLNS+Nn11x/PV6m8x0u36H0Pnuedf9fU9Bp1v6B5j1GL89TzZZMaQsb4NdT6TzfpKzassWiIYzoQkJohjRlOk43pNaee7vfnz0GvN+gjbkjXV8/VfPpvR8OuZ0HoPmXWdzRfDjxwu96jjnfPRR3uvPYPRa8p9z0b5z7He3A6o7/oeT3h0vdYo25o05hCNBCkswmoF05YbMacNaCi+X0iShCKIghcxrONkUUQlk3Zhsp2gW4CEAJVUA5oJyURFEUURRD0fe/mfSe1+HbfWOs7H5+aPXZ8x6OG6LvpckoVxjyXtuh77aoxXh834J1PM6779Hn/pyed0PO6nj5dxxOpj7+h8X+hZHH5XT8727n6Hz00Z6vtuPXn/TeU7PbuLzDl6c83k9Lnhc7IN/I3fHByrhYOwupxXcyZUJSB0Hf6rzPL73pK4HJ+ne15x4fe1wDn8Ew+i4EfPWvjG/r13x6Of2PC7TkdYIs7D7eH9TwduT2eLDQUaIVKTVjSsSMSqQuEXNDUMEairRZrRmy3mDQA2YShCJzDZjQA0GrMJR2dW4WYiDWSqgEIqBAGgSBKKI1+Yfp/5n3n6F9+NyeTPnfQeR29p0/F+EdxzOg55z35bw10vc+brvvtv5wpKxHR8D1etTwfYetzp1PP8Avc1VLUh1fa8SvP8AI+ve7edz6TWXl305Xm+45tHnuy67h7esxrrubj9h8+FXN63vujO1432zHD63l93t0uPRWGKcg1GZgmDicrzGnO7XzvLrjfezt2nScnUeh6bg2Xy9d5Tdcrl9bg7Pl9J8I9dflvGP1b6fmXZx6X7eP9ochHBKKIYSQViGFFwrqzRqymrGiijVgPoAasoIEORiIgYhsoxEEaso2YaDtQtyLI5qkAQQiKIqiHJoIQaKjXjPY+S3PU7+P1wui7z4V9+t7Kjx3oOwdPntMrz3o/O6ehEyqiqWRQaKcxqi1GJzs8p3PnfSdXM6Q5uZ8OTweLb9fS+STvOHwvkeq6Xgdrk9pqyxNAMDAkxjVE5SPp0Vd95zg+j06L02yKrKRKQi0FRoGKqlyG8lCSCRoInMaoEJag1ZS1lGzQuY1Zo04jVmNOI3ijVkNBk3mDWRKAXMKZJI1mSIGI7QjcSyUFaAEooByhUCUIlIQ2Y34v2fmdTu+V4/sNPQHnbL0WvM4PUnlw9S+WK9X4j7/evRa8h7HK6zh/evl3PA+hzqcKEqlpCYFE6H79rVwPj21Hz6bv8AxunrvsGQjEMQhlciMFAjAb4lczpOq9BXQ+g5uYSsqQYjTlKorOgiNBQxDENlGIQjRBosmoDYZXdkTdlNXzV0EazEOs5jdmNPzTRkNuQ0ZjVkNOQ3mDWQN2A3YTVmNWI1ZjVmO1zHSVAhEQaMhogmyJFarIxoCgRQ1iPpjOqYIaicw1CUHj/ZZrhdTwfWbcfr+N3B1/oOg7yNSYNQlDErQSagSq8f7DyteuxvMUUNRElljLIV8D7Y81vT58r0OTWJwiipKEESiGossEJCRUCCNkNRGgjQQuUbEvz+uU0QasyLmVcRuxRTQ2UqBKJsi5DRmNAGrKVmEI3khcw2Y04Scx24HSJmKsmiyLkNBCVUUJRrNEgjEJRUDUNlJClGGImjfjfXfSut+fX8zbHy+PMrj+j6bkZc+jBhKERlE0TlLzno/O6dtzer7SIbKqI0mR83Xp+k6nu9Ok5XpcRrE5FQ5QmImCkJgYhINFEEVAxRUE5hypZQRhzROEYVGBrKaAXQRogXDGiobMMRozGhCCKAbMaANBCOTVBQlQbAO2rHSbzRFDmKqBCGIEicxpzIxFIIIlDFUNChTUaKGoo0HT9yx1H3636dXF+vAdPYPgeNH6KdV23IxqCNmH6ar5Xw4B23SHU6vd9x4jk17DfjvnJ7bp/I9pXK+fq8YvmfR/Tz532Zyzq4lcrPmfRn0JgqCaM6si5hqIkSyIpnWESiIiNA5Mm4iqC0EayRIUDWTVmESURoQFLJKrWSNAxDFEOYN4imCBI1lCkEEETLlJA7iDpEA0QaDNaCGMmqEkSKKkqioNFCTVEWsolE0JMVROdVUG/I+v8ABbev+/5z6HTo+/7Tlng+19d9I8XyPWZy8letDx/G954Ho7bsO1eTh87NL9c41DZjpNfDuOk5LnfK+TOm/QOz6+Z7LjZnH+5u3ndB6Dyh7TO88lEUhZ1RBGjKGsxoEQhywlFBGTYVQQgwRoCoqBJCpYpEgSFaTLUDEMQwDQCQ5ckazUSWTUUlWUg0QxFQJB3Fm6RKqKKIhChEhGgaDUQwlCGiqqGEaQFBgagaJEqofHet8h0ey+H3MGPhH3TRPV9oL0XYV9fL9l0vR7axvkplJiHR5/vul7jc1vHHxfz/APS/M/brOq7r7/TLjdV6rzsv07XkEIWTOQaKoGCBKKHLCEURrEkkVZEYs1A6waKCgSiqBgihKIUEJZsjFGhyJAxEUDZKgkgmCIqSoJymNgUh2sXWUJFAwSSOZKQc6iFINBIaJomEYJQRCoaibzB2/G6z122UsKU4vle88T2fpd1hydp5XtbTPcdJwz6+m8VyK9feQxHs/j5BPXcTouVHK4fM5x0Hy9Lxa8/e1zHgPRd5S5VwxMFBdL3Ucf78bkhENZNDkYSiKghCqKqAQbMNBEDQIkTmEQQQQEQRgNBUFUSSpURRCRQ1OWBozNWaooiJAQqSKCQfj9ohDs4OsYSIGJKki0FQiDRU1DVTMTRVFCU9Kdynl9Of2GOq09E3C5vzz9P6Lh9XqnpOJh2/T9l2pwfI+8+Z5/ndox1Ou0Y4n3+iaKhJKqoWCkfH+v4GnYY6buoy1KlGZCqMzGVzEUDBRFUOUGoD5fCuZfBPrcb5HOun+B3+er7WDWSJAayaIGIKIYhspqwmgjRBoIoi1mK1kQYYQqlEg0IZYyMQgVE50YYJoc6yUwVHZZbrKIqkJCpo1BTBoobRQ0WrRm1kng8+Cajruy6o++vjnb6dB2HZV2fnOv8ARn36bt+iy+f04vsNOt7AuRholMzQNCkTQ1E0GjRlQGjyPrNeP29db+eLVBMZ+f185XM7XoPRWdW9Z6Svl8+i7vN+8dbJ2XU9Py+jueRrPO6ykSdWa4/dZrovl6KOh+ndZOv5P22eR9R0PojMmSQRQJDZhCEgRoGBchvIH1yQ2dEmjOiISNZ1kmJUkypQ2YDWRIEgaQN5CgaqNDGbQc+rrmhXO/npOq630PG24vO+nWnc/Ty/xPXXkdHqM+f+h3PA43Prr+N6n7Hj32GTyZ634nTeg6rtoJsjWdV5fsuL3Gnm/V8Hqa7zpOZ3WXRd5my3lAYKaKqqYG1GZiaI1DINRTAag6zs46LuvMeh2+02LmYzx+TJ5L0Xz63o18+/3l5L1Hne/rWup7LLyH17LuNq+f152Eg6TvOhrvs6yEkV1nY2Ghl836LznoqrNGgohCoKgohgGgpISyaQNCC4jUQuE3Z0UKtmJmSJDGoyouRYxpApMjC5iqKos7DnE9cjQknw67re027VrCWofnsURD4RyZaES4/J+R13a9N3VNbj5fTquDXO67uOdXV9pmyc6iqIYRoGKqQZKtGW0ZZgZKYmQmMrGbQPifaVZmlyaAEOn4Hp82YUIaM53HB5ehQYKovOej+NfbHl/V2YPpwY6rvvF8no9XryWc37em/P/bn3HOFQMRDAJBMEJUCMZkJKGEESoNhC5SXI6gaI1EQxmsqjmGgS0YpCkyKEaCQ5tXWSKairx/oPO+m6OZ8Pt1XJwfl3fJ6Oi5vW95p8+06Lk4dV6nrOyiahhhj6Hn/QeI7jqvn6Iy4nNxZahGgUoqiqqkIQai0QudCyZWgbQMhMVICqUgImTYuTWQN5A4ebObdN1teqONyssm+sXsLeEzaDLCpSfHzPqyvKc3vo8v6foO8rWQw+P03xbftJEUVA5QoikhAGIbKUJUDDDmhKHWYdY0NmN2UdZI1ZVSjK0AgVCZSqHMkSZtBVHMm65ERLR5PvOs5PV3VdLzcL1PivZbeC/RPG87TeOD3x2UPJazokh1nR5z0fn/Q6ZqyohgNyQ0UklUVRVFCTlFEdZY1CTQuVbWdFQiSUilrJGgxIGN1nlObcroefrzuT3uPplnq+2Dzvx4PddnZ/XRxGdUAx899P1enrc+RTm87peTpjh+i5OXked6DoK77KYuZzGs0WXJoI1mBCLQRrIhMVAuYko1ZjTiPpk0TZNVFrIbiEzqERUgaiHETBrNCMFRnUHL3m65YVtGk856PzvotjRZG8xtzGiiYNkmVyac7PO+h6Dv8ASkyqiSFI0SRQ0DEJQlDSTINGqYmVkSmKRKkGgaMmxTOozxOWJwel7bsNseJ9wx1vI5BlxPvvz9cTn9r99Pmxg50AjXn+96LvqMb4mX2uj4WnqeP5/ZvpfYlfDmcf74OYNZpcyQkFnWTRA2YRCoGqKIXKCRqGJIaRs6KgXMJIaxpaI3mo1YTeKjOyCUyiBJy7L1zpFbWVPP8AovN+k2HGsJGqmWkrUaDQoJDrLXn+/wCh76tZ1ZZREQZCtBOdBIUQ1LJC50KMiiNJKK0kyAyRrIyBogNS5pM51Jk0Wmd4kJqxwudGWCEgnIWg6nq/UleV5HoM1xuTkyfnrIZ1ksoRA5i1gkYhAGiVINZoRBswoRWgQRCN0QuEYRhEEEhIHWY1Zl1Z0Lmy1maozGwhGOVWuuZzoqq816jzfpNCrFFEXO1Kaai1lTQQ5sHUd50/c0TS1CazoNElGiKBgqiSVSFEWZFGlGVcpaEhirSZSGpaoKgEqEkKCzorIkU1YkCqCgJAEM4QKyBRkQBAELKUURUVVFWYaJaocoNAkGghSNZqJEk0CRsqLKC5hBGg04ldAaJg3kNZtGUybijmVdsuhW1lTz/ofN+k0ksEYSq1CKJOQ0gPF5XV1vsuJyTTllRjWZShGyqxJVFCUaJIUV050LnSWhlUSSGYiiaBoiikqKCoKEhDJvIZ0QCBUWdZCckQWYM51gsazURBUAhmSggpyNBqyENFZVctFmhILRFoiQNa+eoTOyoNFA0QkMAokga1mGBdONDY0DUQscyHtncJaxtfOej836XUocVhJI1CVVlMCIdH3vndPQv0+eSkrQiMWiGgGBKNZQ0WioNIq6zomS0MlrGlmhjQVUKRVVCRJVFBQVCazA5YxUZkAYzayFADkM6wGdfMiyVEEhFGSaw0BrJZ1GbWSypmZQaQSlcsUJUDUMRJQzEEVaLKDBDrMTmNa+cfSxpVIoShJKOel1mkS1jR5z03mPTagjm2ssTnQaGreEkRBR896DzunpCMmhWpK1kkRzoEEGBhGEXOi1lXTnRaE1ClopdDEkMlE0CIVBJUIEiEICAkOXJY2GXMQgUFlyWNZM51gyQA0EAjkIaiCEEgjWQRjLVBQMSyUVAwlENITFRDEMApk0IassGsaGIXKrrEGiNOSNSHPR6RSNlV530vn+51PsxmqQwmohhGEoU15v0vmdvSVYCizZNJCOU0QskikUgojEukTWso1JuGV1lGoYq0SUICRRDUWWrJoQqMpEUAwVGDQAgVkKDJr5hj6YMGsgayWNEWYHLU5kzCRrBKBUFoMmoM7wOdEsNAagqIYNCAgjRZkoSqJxobOimiqKESltELmjsGuk1Caos6vk74Wnbw4uqahiYNVFMWfl9035r0vmtPQo5NSpJFDCEgklEjQajRUrbzoURc7SZWaiaLRAwLFEkUhVUVAaECjJoI1ks6jNJkoBDOd4AchneDOdZM53kzOQnMFRjSUCFEWdQEmViBDOgiiEEaXNqgpAYzaByhDEIUhZSGEXIbiNOaNBDZ2prMUUdm531giLB8+u5fH1O1jWVDK1U2dDSG8xwOfndnz6ftOtruU1m51nRCgkJKRKlSTAwkytrKOhFEdGi1jZOdwNCITQMVEjljLRREEhUVAVBIBrISGZDJRjLGDWTBvBi1kznYGWCaMmirLGTeSNZA0mDQVQDAIVRVFDlOdLBCSRBTAaAywQxlQ1kRKNRGgjThi1hl0CdjvL1i5RYOv+3x5Opyp1gVoKbTR16dhrz3F29TryOz1h5LR6LheetvcG8cbNDlRBGIqBiRJEktEtsjSJpJHeWW1nQtDSCQw1SBOSNBCAwEgUBIlQONZEEKyUQZ1kMfTBnOsmc7wGaMiBJGaKYinJUEayTAGskajFqDOwByTRCS1RneGFEKTKhDgTQBajGoBYyiZWMyDSIMrBHaw9ZqE0UfLofR6Tyv09NrTy2vUx5Q9bHluw7ljj8ijd82N2Y4G+R8q5NUrENBsohiEClGIURc6HWdKxoWhRhRNQlMUhNFRSVEjWGgzoCclIGdCAhFBIEQVkcMWKM5QwOQEAozIBqrIwDGWooSGCgqCjRmkzIZtJk1kGFFIqokQnJZ1BORqCciIJUOdRmQqiqKGXs9Z10jGhiFEUYmhpJGmgkDVQwlKZlMpoyiSRDIgrDpM6EdZ0SbWc6NRoaSaNUwIiMUQjAgIlVQGgzIlUZzqMWgy0ZmDOgMbDOdZDOsmBDOUozrMBoAYJjIlVEOWCYjQZkMtGbUBJlEKgNK4t4IWMzRGgKgKEgpyWiBErOgihqIYDUZdZXstDqWs6NFUpGmotZRRKqpQkhaCYqhqIkJBGIohSkHWVLRpXWNCkbc6FzqJGtVCVGssWgIYYiEEinOskIFRZZAQETIhZ1ks6DON5M4+mAzrNZykWUM2gCKaossGd1ZXMVQVAajMgGgzoyNAlLRFCIRoywxqMNAawUIVE5SNZI1kXNC5jUBqoijsUttJokS1nZRqLWUNBWiS0BpxoqinJuI3mhGCoqBhBkkRpLQiiaiN1DrOiRGqFg1m0EaBIjQQhVVhoKgNZIoJkMyAymUSHJY0GM6AxqPnneKDWQkjM1ZUgopGASJASipMm4wayBvJmQqVzCE5GQEYmBJgII0GUTKwVEJDlCqNZQqDVlOxZ2tCWspqEdZo1FWoTRlFgkSjQuNDEMJVETFFVUMIoloTVnYaI1rCbhFEt5YYjSRJG80SAjFCZmAYCrLLKGshMmZlzQAiRBk1kM6wRZDG80DGRgmjJprBoKiLO6smyMyFQUhVGZyEyghZVMjKDFZyfSqAaEgc0VRDBUBqLOsxNAMtEMJ2KG5tzoajWsouU1WTRJVGoDdENVazQpGgQSGESQoFIdZTUJqNlrCKMacppzqpyw6zGkDVIWdDAaKBclQMRDUCFOSESIIRQRA1kvnrIZkzjeCxvATkGQqCiiYs6IoitZCclIEhm1kyyApkckMpUhOVJCUyKiErOohN5CtGJigGkHNCEsKY1R//8QANRAAAAUCAwcCBQQDAQEBAAAAAQIDBAUAERIgMBAUFSExQEETUAYiJDRgIyUyNRYzcICQQv/aAAgBAQABBQL/AMcXy9f/AI79Ng//AGa6f8Pv7Jf/AOGd/wAEHp+FD/4OH/wXf/kA9n19iv8AlI7B1/H/AAS/Y3/MvHtw6Pn8pv7eHX8uHps8dyPfjoX94vnv71f/AIWH/GbaF/8AmBb/AIPf8BvYaMOEPwMPxm9HJ6gEUx0qGInbh7pf8TEANXjSDsh73ni97v7Xcb46xaF9hjAULmGinA/Y+PxYPbsRi0AmHZjC4qFCrUIANemFAQA2CFxFW1fP/wARvQZRsNAAF0L5791f2W+mH4IkuRwT2W4X1A7BJx6jj8H6doFRI/o579rf2UKQMPGPxsvWKsCXtXO/bBUf87v8BvrHetiUtMEwtFt5a6Jai/8AXXn2K+a2QeYByCgC2pYawcgEDbAG1Q3zIdjfl7sdZNKt/aWGXZloZpGgevlqXUkSFeIFbppxrRID4U0I/wCz0S9Ykfl7Dpnvmvz1A6UGhbltevk2CKM2uZJu4SdovXD5JQXkzZEJiSKEDjphHlj9jk/pNYsnpx/4O/MJWfoIuEVUo9vTc7JcXT1Rmso6KWnNhWkt2bKsmwgVT5ko8fotC9F6xX8O285uel5y2y9coVIADh2HyF9II2VvanavpNI0MDDbMGswTLgS70PanfNoyw7qzQScgZEirBNTG9cJqtBuBwRbpNRayLZtRplG8ScDt9EOsT8o37O+lfX5iOkHVw6OlKjJLWbJOnTmpUbMGgYWm2b+2HlV+969uPZqf6o3mxcrEZCoNm71RNqsaXZCCDhVUHDB0qZpFt25CjhBQwx70dEOrT9KV7oMgbbaIhnHkFXyyH6KuO9Xvsdoby2jXAOGtFeoKLVLkxsEFPVQ2c8nnsvPac79wIYiotXKiHBsYlg2xKTjGiQgkiFX5X2qEI4Saqni1xCw6Dod3lBz+e0tfZbOGl10RADB0yYCga1A3SBTCI0okCqUS7TIhvTYQNJMyVxdjQSrEaCSZ3CQaGogkUAiqa34CI6B5BIpnBHDhEiacpFovVo0/Ixc7huR0kgju6ey20XzYpwMBs1+45bQDLfbfYcwJJspBAyAPmg0aSZEHirGuKMK4qxADzrIgcfE9cadUEw8PW+y5q9SbrBNK0EK4PX+PI0b4baGoPh9iFEhmCdcNY1wxjQxTA1DCsBp/BNm7WIYJtW2nf3e1GMUgHkWyVcUSreXStFU3gY8CpEEcZIz7A5SLELHqR6gvXA160gpWKTr1ZIKB09GsEooJm0oFBxUgJPX7gP3Ya3WUNXC3J6CFIFcGQrcmTJGLvuPaedcDcgHKc4ESjGDN6TgzCixTAlDGMRoYthQRbAKKggnWMaxmrGasY1fTkPsI4f2/sr+0DmkXJ2bfdV3AGjjPVVIgzBNYiCbePVOYjI+NdMno0gkd5IkZotRizgdrT82FkyH6LbJqqnVIQGqEVjULInVWVaJNkQvlelxsY4wbhkv2/jWV/1QA/pdq8DEzihvG/gDvCLVgr67OHJhaonEYxyGGMcoqkcg4SZu1JdqQHkoC6hH0jjiD/qVLjaPbFEjba/MDd5MOgIi3KBGz8iqC6GBRdZIFiFKBS7BVISnTpMGhIhP0/UeNKQfoL5L6YaT58VnTd6cy2UcwX2jzLAG59qoXGlCGxMPwBQuNKMSMBHa6LIUlnDpqu3fO0wjCjRGbZOgTTClGqCtYq9IPWqXJjYAtIlLxdIgcVx1+5r0MQdUCwfpUSMdJFBg/rcXxA3B/XBxrgyNcICghWtLRLcU6uNLsm7muHLIUEiZGiP2ytAcp+0vamFuIvigq6HWKGKogCEcbLbbVhGhq1YBrANYBrANYaw1yq1WoTkAN6bUaXYkFT4hap0wlRbmTePlqC9vfgrhgAKLRJEb5uQBvp3ihCCmCyYLpNiKN0qxDkN/FotvKGmPOlGLVURhm1BGroUK0klRZclJLJrl2AIX1Zf0yIJt1osvXVdPEWBBTfyQbi8jlsUxX7yahUmCV6kypW6yqlcPk64S7VHgCFf4+lQwJgrhDyuCuK4GtQQalf4+Sv8AHka/x9Gv8eRoPh9tXAWdJwzBISIoJ04+jkTX90vttSiqaVKSzJKuNtK4wypJ42XHRtTqWataN8QKiG6SUoDqO3I1raBz4EoIPotMcgUaylKRKBhE8izoky3EUzlVDpldSSbQzZYrpFzLkIYv8eKCdQ6pEkmb/fBpVEjlNGIIktfL5yrKpNymlFHBmkaVA4iI5L1fMI2DUUTKqQOnt4KpjQqJlo75qnR5xoWhllDgC8qpW7Sx64U5PRYNoFEj2adYEwr0EDUqigWVHrtUVKikdwkkmM16hrS69O95RpKJfLgaLZN0TMGRStpgCoSBgWKb+Wd8f02UB9jl85utc650O24hRyJq0rF+kYskduYhyKlroCapFQFJNUQDDQMW4K3Nf0EbmJjAqJEimetiDvzShlmdGmWoDxlpXGmdGm2lGnEAo03yRnmiocaREUZIV1nL9u0oFpF2VGKSIIfIX2QoYS+ySvNrw1mdPg7OgjWZaKQhKxDV83iJud5kefZs2SThm4ftY8gyq0lS6KMW+mH5SIoNi7g8Yi7CLXatm79UFGrR6R8nS63oAIZZX+ugPs8nWug6XjIYAOVSK9Md9fNq4m1WQZMUl23C7ULBcKBg7rd5C4xzmtwdUWHx0nHscPDGxBUQZtStfSXTbGK4OCCNWLVwoxE1a9NIBKOEGpFl1EGKDUL+8D2YVKG+rQ+1pVUqBDTpa9aWKUhgULvIvH2RwbA2ikMLbyGzwvzbkbKPI1rDNW5pPk8dIJqP3KTBg2QknLlJaLkHB3Pw+ki3Yx7lwUClIWpf+tSHG3tVqtVqdoC4aQKhSoKSzJKhnCDXFXA0DmTUoeLlKwcGdtB2KqkblIsVwiiY5EGzkHVOHYkV3tUoEeLlOPLIOQDDUixbrN4gfoQpFc7uSfnMmiviQYnNvBgACA/V9Nm1s0ZR4qnI/UE65XRG8VGkwM8l6WU+niQwsvwwOr0AFw3+1oxQOSDKHpc6kXG6tGTXdG2SVU9NigT0m2QB5nbOGZnCsqdJs0fILqRjx6dCLat6SRSb7eldNkqF41s2fmabnJV6MqWry5atLnoIx2pQQTYKRYNUqMu9Upiuqs0vSprIxBbR666LWt6TBs0Y7xWArZBr9cxZrnbKMHKTQ7pQ9y7xJLDn807+zhxuwciJGqLJdErhutikiGMzOhurUvzllijuhDHlhALUmTDJkjUEhZEUQQbq7wngrANf/q1SRgIzaBZr2XTX81f2kOqqQuZBsN2tHGycc1XVZJsHhRkzFK7UM/eCzXOqUqpDn2Sw4xP1zX0LbHZcTOGU9Rh5yhSbk0e0i3DtVOpI2Fhu4KMkIpqgYbGAIhEBRbEQAjRJJJSGQUrAQQvXXJ5yKGIkVaRVfUzjnbdHd3563J6WuEHVoIRAK4KhXAyUaGONFYPkQ9KUCv3YQ3STr0pWjM5RWlWRymFuqUU05OgZS6oD8PqgDYbt/cL5b9uFJfLPgPOhDEWH5M6fst+bN5nd2jJE6KWAgG2K/qTI9jbEX4f5Nnj0jISCVUqz8/qv3m7qMXAuUlE3xXHlRBUFob52fomBWVctytmjw7wdcC3p1LkTOlFKODFAqYal9l6xcxNsvoeew69hf2b+PxAXmOxJIEA2fLiyN/nmex6FgVCJgoqycps12TOhUYtBNMsBo04kAFml7cUeqDhmVa3CTECwZz0lFM0qEb6wFvTmYata/cJYGrRFinr+ct8vXRvQbb9n51r91JK+hKNsZkKttwjVtlqw0AU4OpESSahFkqCnD9u2MMicBIcqpNMKSiG6ZuFsqGOZiRKJZpCVNNOp5cxGLf8ATa4hzjpAW9OZZs2rdH0nTZm3ZgI6l9MavmHVEA0b5fHtciRwV0mvLrKi0kBrcpAK9GVChRlz0EU4oY16A8PfqVwhatwkE64Y+XEIcyVDjgl/lMWQFZRVCISb0+kCoFZIC1a9j8QjzHsLU6dIsSCMhLg1ZN2RRNrho37kM99PFtD2G9YtQxCKppqqQKzpkR6UzVwJkGjZiCk03KJpM6YgJTkzeND4hDmbrrKqJoJnllnZ2kQRA4m0bal9LrlDH6mnfVvoB8oZsRb+1HIRZOziBOXd3acoUpnAqMW4LHcyVJplRT1/iEv0ojiDTAKcOEGZeMrODJxBlzgAELojoW0r7b9+NBtvohtsF9nXub6vXbyEFWq8Oq3XbS6Bm7doR3ImKomyeqisdeMUMGp5r4iD9rZH9Rho4BEFpZi1rfpB/TeEQIYLEDuwG1CO0NO/Z+Ml/egNT2KEykdKFemMk6j3oLv16TjAFVOQbqqavxAH7XFc4vMACNHEiRVp1Eo8NeyBm8c0a0I1f2Ab9lfs7+4+c/SulSUaD4sXIC9I5UFucpHktT9FBq0IU3p22edGbC8TD/1ewCDQJmp7IIR9cZx0LeUe0lANExRTTQAexDU8UPfDtvrW0b+2XtUmxOYxjhOxziaWRBuosB3L+RxE3iRMyelVyWqw1gGvSNSi7dKhlmAUM5HlpxOIuSJSj1JPf5VWvUnTVw2UdC5ihanYxLZJ2Jxoatyl3RkEylFNPrQgIU5WBqhxN2KaahHCe0cvnWvkDFfQ86AaF+6DP19oKNhkWxo9ZsgzIkq7SSI13A1ceYIELL43fHlD0Ew+GgdS5w9aaMIpzS1cJklaSit5UJ8PMyUEUxLRWTQlFsSsQ1cavsmObeOD9Sg6t3B/8giwM+dh1xuZQ4ArHO5n+tYj9Cj+1yI9pfIICYAyePOpbYOwdg9p5DJfKOmPbedUtR5FpCnMUaNO2i45ykSNZpUCCFcgrENYzVer7AGxID7vQmvs0ExSLRf5OlsSqaRW6MmoKMdD+qLFYfXmJj+tbiRNm+dEknI9l10ueW+fz3Qdl50x73+IfD1D8xUkiNyZg50IWpwOBr8PpWR0JwP269y0X5QbFVIQLKln3GKnMo0Yt45sduhOkW3VKLSFBBBFsXStm5dwOt47PpkEteO1t2AZOmVU2BH4eyKrotwAQOUOdcQR32pT1zkZpC3auN4TioxYzSEIOMlBltU4X9sJ/rp0IgzgS/t6bV42SbMEmqKLNu3N1qc+wD+Gfzpc++5dhbL4HIOXr2Pjs/O21Pl91ZxyCxCZHX2nw7ca5CNBTxdqi/iyGI1EMRQhE/VHnQVhGhTuANEylMZMlGfsyiMvHloZ5kFf5C1o3xGhQSkm7H0pxUHMVJKIxCSiLLZyDLLpipHt1AWbafT3PxfIOwcoUI5RxY9Dxkvt89qFO3D9q5dnLIvDddoFxU8k2zWopqsuo2bto1M0qyLQSrGhkY65pxiAqfETQtBNPFqBWaUr97MAx8qtXAFa/wAfEaL8OtQoIJiFFiGJaBm1KB0iETj3ST1LENX00USNy9mNXq+qPYXz20hyecvX2cflA8omFN3KTxOhKByMHXDnZDkcJ1a9OXzZlWJ9K01Yt2RTRqSkrwFoAli2RK4SxrhbKgZti0RJElYtIKV/aZYwc9PzkH2Tptv2vTT5+znl2hDhYwTLjCZkOJMEwbS9PD4GcOimMXwpy0VGRIzIJJF/TaLatBERHZ6ZBP2L9rvzOIeb611720lHCSFA+amreEK9ZGt6bUZ80LQy7ItcbZ0nKM1B9y8ZemUe9fuRZoOEzumu7pJs42+4zfJf+dEOVxLKl9RMWW6xbJ+2axeOQkKasW7IBHtvMmQ0a8A5FiZ1DESIlKNV1Rp49IxBusooIiBCpqFWJteyCbEUTmUJlUZJqqjEszUMKzrgbWiwrMK4QzoI9oFbq3ps1ScUUMBe1vtv2A5OWYavt61z2hXTPbKOlYa5UoPpEZOgepZJRHeGMYr6rCTU9Jk0kWqSb5kV6jusqqRm0TYorLJNimeOJCmjBSMdGHn3BiEVTjzminghYcodVSb7KSaRPV8kKCs1zqTW9RVFIEUqdMQdiSZVZVHMzCYcr03zZwpkNn3sQ5LalqDJ529c/l0u5bmCcJRZlkaivWylAJT1hGsA1asRa9VKt5QKBpZmSjTjYK47QSEgrQtZRxXBDiCsU5KlEJCRvk/kET+g7fbqYHCgv0UyYE3DpBoXeXchSESikbvJJkEk2in++o5lGqa4kVTO9ScoORfxwuVCFlj1FJfUDsCnJONPG7lWLU65Xf3w10zB1af2A+w32X0h7PrXWulLDZCPNjYmbNz0eIZno0EjXCnhK4bIDQQy5qLBo1wJrQQbWiRjMlFTTJsxDtXGzeM+xyyLZTGn6Lwrh+2Z16sg/pGKboj38s3Ogs2cpv2+XpXD2pjSbVNFsB8ZApsfcXqxBOkxQcNyqDhRiE/TaHIVUqaREC5HnKSNkcuPRU2B1Yfde0COwaDbbVDQWEopxY/Ra7nm2i+bDbasNLybdsOB/IU3YNmlCN/YSmsLpqrEOLgcuTrR2BrBEKYf4hV9py4yNExRQzS/yV1DbKjYdgBzaGAkkPXt7ZunadNEQzhSv6UpGfZbLV0o6hEq8bBMBCoOE3RMqoXRifsfNAW9OZFFsPpPX4N2jdqF76A+z9NNZArlFm9Fga2IMNKu27epGSRcF4o6MG+yRq3J+4o0ZgdpEFFLvL63XZfb52Wq+t5lzYHbAPoqcOCtEWpRlEI12oUyDZF2pGk9MfWMd8HMXB+KPbFKGU3MkL9sbCQqksFxbPXlN2qLUuW/tdtVZFJynwU6Y8JcnpKHbp1JoIpFD+OKr0qmRcvZ8tK+2/ahqhU5yVZ/Z1KE9RgxAox7dsm2TRdEYIskTJIM+b2Rc7ozjmm5Ndg5ApF0q1QSjzLUUpUi+3u3STQrR4k9K+crY1GT5oDZwDxCrUV+iKwhbUluYeNlqFYAW7S+hfN17a+lOFx0w5sulBhWIxPubww4CxwYn49Y353V9/kxHnmCoz7nrXj24w4SJJHVNFJYEjkORyJwISID6YdkgxB+hFPxXBZdV65TAxS5REoVa9YBqwVK4bKPmyVDONgo0qsrW5P3FHxEej3V9l9C/a9dl88iGJ6yxIKCGIDoqMqdvyODn+dErM6jJvLmOLhJ23cMGYMW+3xtCoz/AH+4zRFlWzF2m8QqUUMsKaQIJ7Ar4gIU6sMdM7LM4Ii8VGDMWuEua4KauBhZKGbkorVAlBhLsd/fD3nnLbQvpddoach98awiA0FYCXq9Xq+iHWN/3+4LrEbk4g2KlCkP6Zr4G2+tVGwuTUsmC6TdIUEjHKiSJIZZwsyOm5viDIFNgAX2ZRVNIDy6QUq/UO5QeIuy7R7HpXKr5+VW1L7L1cNgbOtDmtov/vx664VF/wAux8d8JSnA0e2GgAChV8kyJvQRSKklmDrHnDeRKNDR3CKdKS6Ba318pW7vnFEiS3TQSSoSB6u7pFP21+enfJ0oa8attN7/AGA9gFRP8c4e4u2+9J6DyPSe1u8iQCxap6LEIFFNuikGKr9wO2+W+bxpctl8t9Z5/aedfxD80exD8DHR66l8gbB22227h4X1Jag1x/jEfaj+Pee367L1fZ1y3yjQZ3H9t2Cw2RivsfyQNo6gZcVX2eMlqDZ50T/NM7POq7GzSO/r/wAYHsgHYPZXq/LN1zeT/wB1515M2GPaBgZ/gvXtB227HpmtXTVvqK/3GqG2YGzIoYSdkHuI9Ng+w32CPYeezV5zI64VLfMceuzx2fj2nxlH2G+0dDxpeaHLbRX5TOmOQKdfNMD1yW/E+eh52+e6vrvvlkR67fOmf+7Hr+DD7tfR8Z5b5RHN40ApL55vMHu45R7LroW7Xzojp9dCYD6NE2NDWDrH85H8FHv+mqPaX0ZQuJgyHGy1QAcYdYn5lNMdDpkD8i6VftHRcbWLG7DUIqVQaCobmTv/ABt8d6Pvo1fXXH6eK+wz+cjYvzUqOFCG/r9gZg/J+vaX03g4WcYFmGfxtGilAmxz9rD8o/2Ie3Hth9/kfsGX2XnJ00XZsDOOAEo78CHZ01POjfsMQdxz0g2SACZk1Lga1bJahwhSr9sjQzTehnBvxJ4egkH1b9IGrfJEKdLPlW7AXLwey8Bph7MND3XXV8+wqJlVKMKW/CnBK9GTJX7rQcVoSSojucieiwxj0SIaJ0VBElBasdYqvV6kubBmP0WYOzDuA7Mfw69Xq+bxtUJ6qbdLd0No9KH8Q6Z+vYcvx7zfuB7vz345Lf8ABRz29o89mPvQ9701eXufnx+ODnHNa+gPtXn8HH23lbt/PbDQdfYPHuXTR80PedPYB/HfAhtHWDOPtgew9e+GvHd9c1tvTOPKgNohk6d14rx2Pn2MfebaABb2fzl89cnjYGh5rxs8Bl8doPLuPNsl6HsBrxoeNo7b5Q1POr//xAAUEQEAAAAAAAAAAAAAAAAAAADA/9oACAEDAQE/AROH/8QAKREAAgEDAwQCAwADAQAAAAAAAAEREiExAkFRECAwUEBhIkJgAzKAoP/aAAgBAgEBPwH/AM8F36959CsP0sNlLKGUpItHc8/MyQ0UNlKTyWTNvSLJhkIwXaIaXc8/M0ZLqRZHnpt4F8205JRK4KmIajtfzMdJhmel2iHwUPgpfBdeiuUspMMmCmSkpKfspbKVyQuSxh/F3HSmfifiSlsVLgq+itlbKm9yXyVPkbbXoVguZIZDZqszbppuy6RldVMkJl15Lsuu/c1Z8e3oVEFSRUy5cuiYRbgqZUypoqZUyp9JaLMs9yl+HQa7d8DSe5T9lP2QuS3JC5IXJC5Px5Px5PxJUYHf5FylspZC5LIlDUdaWyidylJlosjXLS7FdmvPhksyGumCxYsXLspfBSyhlLKWWRnyv4+hSxtpl2YMdNzXd9NyxhESi0ZNcR2LJrTbKWUsx1hyUvslos2NuS6Lktl+S7Q5kuXE4Rd+Ofl/4sjyacMUSak+iyZfWqCtslvruNtMq+iplTZlCyWklJEkoq7Umy05J+yUiyeRw9y/JE7lH2URuOEvT6MjMIwPVPReHc1K5h4IbWCGzbJZGX33ZZEt+x0ZGr5I+yFyQuSFyKFuOxCgcR31Pklmm7HnwZISKm/dYLpGRx4Fk37rsiMk+9TjpsO/fpyjVZvshssir+AwZIaKGNR2Q2LS0yltlKW5QkskxsXfTJDX8BpLZkrTK09ipcFX0KWmVN7l+uNPR2QrKTdF23/ALD6QQXRsKyfb+pua4ZKgV2Ntv3mTC66FZlLkSaeClt4Ib3KVyQuT8T8eCVwVxsPU2uzDMv3N2JSyxuOGUlkVNFT5JfJfu02Y7PywyGQyl8F16q5jpuXTMMshSOF5crsV2NJDSSIhdKY65JaKmS+SWas+iUQWLPchclj8SVwVfRU5NV31yXaLIu/Ngd79UWZLRquzcerbqs9urPosLtjqh56QSkXfwZa7Ja71ZjTRdlLaKY3NUeif+puYY7Ii5q6oaRKRn48OCmTBntloqY8ek/UQ9jVcsl26vk3aFdjuzDLRPZCIXJaCy2M+i2XhefkIlJCcdFdjfYy7KWWW5KQ/QvC8Lz6GpoqZPdHznheDc1Z/h3heDcefmR8GPlPC8GnJv/D7Lwac/wARleDTv/Efr4Fh/wARs/Bs/wCI/UgjpDZSyn7KfshJZ9OvQ3RUytlbKm+zb/tX/8QARhAAAQMBAwULCwMEAgAHAAAAAQACAxEEEiETIjFBURAgIzAyQEJQUmFxBRQkMzRgYnKBgpFwkqFDU3OAY7EVRIOgwdHh/9oACAEBAAY/Av8ATPH/AE9x/THD/wB6zj7l4f6HYf7WU/1W2fotj+le39Hcf9zsP0NdeFNn6Y4e+/eMQs7B40hY4/o/j13ozdvvPoWgrkniqlYNwWz9FsRUdy0U3LrsCtp7lnfhYhYEhV0ncr0lyHLkrHD9Fs4VCzW0/R2/EaitOpqc9lhc2lzR7uzAapSPcO07KdSYdcz0/unqrSsKc4t8vx09z8VR8zPyi2yMdK/wwUcrsHHTxdo/ynq+ipuaeNxwVWEOHduzSduU8yro634V7W+JXr2L1lfALgo5JD4L0ex3Rter1pljs7DhgoZJLQ615T4sEC2EVPaxUtxrW5p0BRni7T/lPPjx2zidO8yj2mRx5LQsvPYXeb9tqytndVv/AEg2xWcSM2onzRjafCr/AJyI4/wq2y2SSnYFLknVa/RuTP2MUNdYr7kSlqiyzBJRoxQysTAqQsivbLqdk4g+JoBICgIJc2bkqDKDNDqpvmbL1p03RiAm2maZ00kgr3BSD4So+LtP+U8+x4+nGQWdzaimKDGgXBhdTDAKQWjSzv3JnfCo+/HeOHaICY3UG09yJvlUZbrVqdM29LfpXYjJyZ4em3Cqgc8eshxTWXC6zxyZRjtg2KukFSP6T+U9yks75atv1YQqNjkezW4BSBvRfxdsZsl6txK08W0+budhQDaqxWCYu+Jec29giu8hu5J30UA+AbyEasqPcmT5So04QtraJuiFD5PjcHTyesI1KzPvAsZmlFpfeb8qyPkuM5Jv9SVA2qTzhnYYbq4SNr5P+lQAAJ08h9HmwPcu7irZH2he53jzDZvdm5gKnYtm+s9pOhrqFVBqN2SMcrUmt0Sx5r27mQY6sg3HkdA1UT+03mmHPMecOG0JrGTGzXNVFentb3v2hYPkVcnf+YrCFg+1YYDeOinFWOXmVtdWF3qZT/1xVmmODJBcr1h3cSQ8BzdhWGjeF7WBrjpO3cyjYgJDpO5IwkZzaJ1ntMjY5YTTOOkKotEVPmXtDfovX/wvXhe0sWFoYqskY4bao5GRsl3TdPuRiqMrIfhUj3jJNa2oZtUTLRrbytYKFm8qDg/6cyDmG806xxGTm5OnwVxpLu873SgzLNvnBGnh1DjxTnuNAAh5xaGB/wARXtMX7ljaGfRe0tXtLV7QD4LAvf8ARcDZHOXsDvwVRnk91fArMsAb4r1Mf8LOfHCPFek2932rOtUxWMsy/qn716m/8zl7LGvZWL2ZoXqKeDyppYJJQQOTVRzRE35G4+4mcQFjID4Lg2SP+1cBZqDa9ObbpXNcNDGjSpW3Q1zHYp1DUUTO4lGOdokYdRWVss582GLoyqssbiNSzLMGfMV6qP8AK9nY76rCx0PeVWscI2LNnjcs5kb1WGON3gVojasbQxq4e2mncvaZCs6WVyfKYa3calNc7S8k9QYbuziHufi0DQpJJoiTe7S9Qf3lezD6kr2Vi9lavZW/lcHDG37VsWlaeJ27y0a8xQfL7g5SEB2ONUHT2gx16LFI2zzPbEzC852tZZ8nnLW9HuTH2aNkYkpjTapIZTWWB10naFbKdoKSgqCbwT/OiYw9tbrdadLHebQYiqcBqedyY6MFD8u8gszMGScpUqS1uOKmnkcTlHZqbY4DdvCryg2zEXmjHFY720D4FZ8eho6rk+VTj4ubTj4CofcGXKYtupt3lR5qkqakvzxsU+UxGdSqhDujdXnVjLb5FHtdrV5zxckbwlOi5VDr/cAoZbG1wfHrIV2WzNrsVqYWGM3602bkneox8I3llmkwZoqjBCb0j9NNQUIZybgQtcLMo27dkb3KyiwNeHt9Y46KIsOAOxBuzdxe0fVTXHtLru1MOUeyWmkalns84j2jSroddf2Xc5axjcraHaGLI22LIy6u/jM41O64dytLTt5s9u1qp2XEe4L27WpksVLjm0eO8KVzTnvHJCZZ7LASwctyyT8lGzxXpM0krlmQt+uKwiYPtVXRivdhuGZvKcKO79x2qjgU30UFoG1cLHKx+y6vR7NK8+CzWss479K9Ktjn9yd5vaS29g6rVcittG7FjblwVsCobYKLPtchWE0oO1Z9plKxvu+q9HYRI3vQ3OFjx2hVsVpd8j9Cpb4TGe03QsyZtVmuB5rMZ/XaqqBjPWNxPdx+CtbP6l7iMSB9Vq3+kLUsSFXKN/K9oi/cqZe8fhCzGPf44KbIwZRsjq02LNsWTHxYLPpXu9wCYbTLFXGgVSMq89J+KwwHdvrxwHesn5NAcBypHaFR78o5OjfocgySTKO2rEAneuOwIPOmtMOMzxULPhb9Fml7PAqtktZPwvWdZ2Sj4VS0xSQO8FWKQP8ADdpxmzca+5w5NGEKOZ7w90nLqq6ONrOavPJYNJQMrvM7P2W6Uf8Aw2kjX9Jy5EK0RD8L1UUi9XHGuEtbI/BYW8FekW8/as60SuKzLVMFwVvlHiFm+UT/ACs7yg6vgsbe78LO8oSfj/8AV7ZL+FjapSsLVMFjapSvXSlY5U/cq5C+fidVZkETfsUFoYKMl4N9OueFkazxK9cHfLiun+1esP7VSKZrnbK8XdLso/stXBxNHigbS8Qwn+VBHHO7hHUwwoqaeIkc7U1P/wAh4nHiKPaHDvV6Eugk2tWe0WqPaNKpKHQu+IKsTg5vcsd6WOa4v2JsrMAdqDLIMo+tMUC/DDFHJMqwbdKykputRzLrNW5clGG3YhLJK6a7yQeKw3L1peIx3rJ+SoS7/kfoWWtLsvaTrOrcw5tiix4w6xwkafqs6Rg+5Z1oZ+VRl+TwavR7FK7vKzbMyP5lnWmOPwXD29x8FWQySnvKzLO0+KwjYPtWdBGftVmZZ4mtGk03rpH8lqyj3gMpVXLDZ3TOWAZAFdmt1+TsRmpXpMzootd5yjliOWF7Sdae7IsZhpTIY4nzvZhmqxy3S3hNDkeImd3J/wDk5pwrGv8AELKeTZDE/sq55ShLPjboV6Jwe3aNyrsFWNwcEDJG1xGtUYAAsrkxeXwq/k23lde0ObsK4NojaqOtEYPiq+cR/uXrwqBz3eDViXj7FynfsWAlPgxZkUzvoq+aPA7ys4SRn5VSzwzSnuCEXmkrXf8ASuyvvP7DdK4Bgs0faOlX7S4zy7XKjAGju6lpWvUpo7RywE3gaAhcgn7lhZwfFcHG1ngOIKjL8bodvZtearM+dt513QqG634GBOArZrN03jEqzXcY8CXHWjDA6/JLs1BQwu0XKpjXSXYWjHFPaXxsz9uJUjjao5HtfWINKD463hytxjjyC6hWO9lopPn5jo3tHi8O9ZWwSmF3Z1L0uy5RnaYpKSXTd0OQc5x+i4O0Pb4FD01wr8SzLYfyqG00H0V59td+Vwdtcfqq2y0yP+q4KMOb2qr1dfFX3wjwV/IxgeCl9HjEbTQLCFn4XIb+FyW/hcIwFVETAfBHABT5F5YHuznBYNvv7Tvc1/iofkG5flNGosihMkvRor77Owt7OtNczpLJQEtih5btu9ldsaoZddDvZaY5qsrY5ck3pkK84Zd/xpkVlu1mbdewKCCf1eTopWRublXbTUpkdggrdbQvcvSZbze52CMokc8tbV1AmOuRMi7TtKDWAAd25L9FE/TeYN7MwcotVpEjgyjhpVDLeOxuK9Hs8kizbC+qzbI1ninP4IUxomSy0v4g7t6dwYO9F9lIfqHir1so1wxd3I3GODdROtZCyMys+vY1CPJZS0aXBugL02DJM0XuKkkuAPaK1CZuA3uDFaBXYjdkeaBEXqv0XlFZb2Y3GQ7UA3AKTHTgg5+DWtqnSzk8IagbFkm6mVKzTWQ4AJlcSd9IR2UMNPV2PUForpvKD5BuOEgvDYppA0A36bjrnLfg1NZ03YvO9ftdmqKPY3fGTye6/GeVC5ECAR17OlCYWbPAwvH+U19snYynZVbmVdtejkGXL2nc2rAUG7P4VULorW245mAI0LC2NWFoietERWmONVtNud9qq973rMgb4uxRlsDI2Qt6J6Sa+c1kNVtUpOphUffU/wArhpWt+qdaW5zAvOrfwr34tZqAUmQbQAF1E0zY5QYoWO25rv6TtTlaW2w5Oa/pOtQ2mzxukj6YGlyZJPH5vZo8Qw6XHipqdlMUpbpoop7Jdc6mIcoZpzedfxpqRyWc5QWh/rA6r0HMxBXcHYpkbasssen4lQYUUuUFbzcE+4CS7bqTmygm7o71fuFncd2mvckzgCVEO73OniGmtVFXAhu4/wAEXQWnJNc7Qs63n8KwmbFgOKv2WkTPiT2WimVjNDROYDV7dI3bNAOU+TmVoA7BTca3cOIuyxl0lTcYNaoIW5K9yydyfwooYnEx5g5KvXMs7a9FrgLp1LMllb3ByowudXtFOjiq1jtOKzpZfymB7Q8tFAXDHi70zhG3aU6z+TYyWnB0hVMtksdAVPOaN+izLYaKtrtUjyvWPXLcs20OAVPOnU2ElXYLTRmyqwlB8QFTgh30WNqH8LC0NJ7wFwttu+CLbRaZS7uBKpZ5p3/QhZr5/qVSS0Fre96LzMHPCZUUNPc5yduOG0It7LyNwsGEjcWIWeSJ7rUzNDUXTetkNXDYr4aL517tnH9tleZOb3Kdux6iywNx2sakHQuD2HWEW2ZgfcNCNqijYbgdynnUr0mkOpUdJOILiC7Mu8mnfuG1Wajn3aXHa0cP6jkZS/Npo1K4+VtbwzQqizujg1Odr5jkbC3zi0aMNAWV8rSF7v7YV2MBje7j8Qtnuk2vSYn9x3SGaHGu7fui/wBqm9tB7LKcyce5WkyvDBhykWTTROb8yfHHamUcUZcpGHP76qj6y/YqWayPP8BZ1iJadhVILBTxVaxwdyNLUyPubgq2+2SS/C0rNivO+LmFAcu/YxY+h2b+SrsDcdbtZ3mPUmPXkEgxuhB0ouudjTi3T3DJZ5eUmzQOvxu3bjnX5ew3EoF1lkEWs00IPiN5p4196skbsQ06l6kflXfN20Vclf8AmK4OJjfBqaI8C56gZsYOP27y7H6RL2WoOtsnm8P9tq4GMV7R0rH3lhmsUeUddorrqM77mhZ1up4NWFtqsJ2O+ioZ4ox3Kr7e+vcsy3O+q4W3UHcvb5KrgrbXxXpdtoPhVYLW8nY7Wr9L9hl5Y7JTXxm9G7FpUVkszrjpMSUy7i8YudrKMY4SZ+AYEyN3K0u5lYx3lDmN60ux1NGkq61vmlkP5K4Bmd23aecYc02+5Lo5hejdpCyNorL5PkOY7sqOSOS64YxyMTWWjyhdvaANJTn4V1yPVI703grz7JJkdbtia+M1Y7EHmFhPxU/65hftDxG3vRi8kQk/8rllra7zmfv0Dn2O7ju4I1IyerjMea4b+mvqsxzND43aQiY62iwOOI7KZPFSVvRPZVlbanFtmPKTTGY83k3VkohkoDynlNjZyWinMLPL2JEHDpCu5hxdbVII+7WVc8lWV0nxv1LLeVpTNJ2BoV2NoYzYOa4cfs4vZzDYsFjxtdB3NvVRDxUHSEbR5O4SzO5cWxG6L3ajOkIyMs4N1Ms1hjylodq7KrbbXd+BiDnuElme7k6wsOO/9QKyuP8AbHFV1Kj5so7ssxRHk6HzeL+49ZS2vdapu/QrrAGjY3mWHHY8yx3MPcrznyYcjaBjdGtZG0NyNrbpb2lPNZ4ROyX8hYWdsXzFCe2SZaQauiFk2PqeO8HhWb5d/oVZZGRj4isnYYnWuU7Bgr/lO0ZJn9pi4KEF3adjzDRz3b7q5WHMtTOS7anRWjMtcXLbtQne7gGjPCq8+a2U6ANLk2GLOm6G1Mv8q7jxsviFZ/A/973h6l2oN0r0OxTySbHL0qdtjj7DNKrK587viKu2eNsY+Ecy08bjxWG7t4vDiNnMtnWjbbYcy1R44dJVs9BM057DtQiuMjeMMDWiyllsT5ZT/VmTmX2x003dSuSzX6dgoWaWN0EzBgHa+I4S0RN+9e0D6ArlvPgxOhisr5mO24JscXk6kbRQYOXBWIN77qwaxv0aq2y2Xe4O/wDpQh1pecq67e2J9+R088B+m8js1m9ptBoKagmMcbzmihduumIqGrzlllb5p3nFNliNWO55icPc7Hm3n9iHBuwnYEyWzNjo4VvHSnEzx1p2k6XyhMS6vqwvR4neAZRC12qNznN5DGalwNhcfqsLB/BWbZmN8QsImD6BYyNi8KBcJb6fcVJEPKT3uj5YoVwhfIfGiwgB8SsLNH+FmNaz5RvYTryoVtkOl8u7aWvcRDGwl4OigU3lK0aORCFU6NaOS9HsjTp1uUMeVM8M2GOpSjwVnBxGTCNnHs1oxZXUec0rdVOtsOsLW3LuZnYpsklZ7JXG7hRCaHKFp1ErNs7SfixXqIv2rBrR9FsWnePPwlTHVc/+eJjP/InDa6u7bGRYz2iXJ/ao4WaGNopnjwTXTdM1aO5RMbos7KuU30UDnuDG5MYlWaGxZ9x1b++w5nt6xw6jx3u3jSVbHa7yLXirTpCuQtuM2cTaHaMwp8u3DifB4TT8O4TsFU63xY5J1XJj48Q8VUdlZi1pvS01Jos7hNJdpHG1OfacbRMbz0XtmpDoMaYJTezVcgYGdXY9Q+G5j1dI7Y1Wr6bwGeQM7kHMNQdzzTG/2tW4yKy1AdyiFHHIbzhtVqFpIe7URsUs7AHOyv8ACaThXGnEO+cKPvYNy0XOVcKflBmyOP4WQstoaIui4txCfGeGMnrHO6SvRRAO7W4P8gTfDnuPPMeM2dayysNHaqoTWiUudIK3TvZqdgqen1WaQabr5rQMtSOlzvRLwWtkdeY06gnN0VQldM4kGu7oVHAEbE5jY2iN2kalnSxj71nWuL8r2kHwaVm5V32r1Uq4OzSOPiqWKyCPvIVHyiP6gJxltOVDehe0oZd7nF2IDuju0aKDu3sl3SzOUMjek3fbN9h1zt4wUbUHXs6ovMaHWZWWzxkGPlvpvnRVy0pFLjMVNkrQLLqeK0JRGWaHOxcXPXtAPgvaB+FV8sZO26uW53g1cHHLIfwvRrDh4EqojZGNl0LSxv7Vw1tu/csbc7+Vn2x5CzpZXLFr3fcvZwfErNs0X7UcjZ4i7ZdT3RwtikjdRzacZtCuQ1u6adfYcXj1YS40aFwTDJRX4Do0tOrccyTFh0p8jWX4Sbte5CSzuvsO7w8lXdhuJVG+g2U/uKpCyrtb3aU+KVzmhwvNos6+/wC5YWcHxXqB+V7OPyqCzx/tXBwsH28YJP8Aytq5Xd7iYc2x6lzsAFdvOftLQg5pq06FFFU3Di6mtCkIjj6O1NyWDZRnDctDmHQwprZWhwfWqv8AkqbA6WOVy1v84th6EepcMfM7PsbyleY2/J2nbofdBeNfMnxDl6WeKuS+0Q5rxzrhpGs8Vm2hn5Xro/3L10f7l6+P9yxtDF62vgFpf+1XWy3T8Qp7t5Ru3WgIiBeFU+O4xubjQKOqsppXFNLdCcY85kLcT3p7ASy9heU8QJkJaSSoTM/OxzG6VmDzKznX0lwTKv1vdp5xH5Ts4qx2bM1NlhN5jsRxBklcGs2lCJj6OOio07jbwvvd0QnttEWTc3RsIRe40aEHxYtO5TcDLuUlPRCvPZc7t8XStEgOperI+q0O/K6f5Whx+qrkz+VhA1UyLPwp4S0AtdmlBuzi8ed4dW4kIyOwa0VV9ou46N7I3WMQotrcE/a7BRwF5qBppgrpNHDkuWQfOI4dF7WslBU9px1q9aJAxGKwRZOI4OlevVttEbunrHOnRyisbsCEbBajwUmML+IyM/qIW1De0VZI2MAN+uG5KJMS1tWjcZYo6lx0psY6O4HXzG8aFJB5SjOVb6t+1ed2rGR2iu+gYNJdxNpbr6r28x2cRWKESxrhrO9ngvWFni1Zk7D9VmvafA7uK5bfyvWs/KxmZ+VTKV+izGuesyzuJXA2an2rhZBGPmWda8fBODbYXNpiCr56W9oVaLI7DWxBttfQDGgWQsdkuN7RTGabooq2mQN7ta9AZkIP7j9JV+YmeXtPVNXPCwYTMxjKMVowtUODht3+eKHaE+WaQMjhzW3iqQStc7Ymz2eTJWlv8q7JLG0dqitErzfeDSu8MdaRRYXkLJ5R9T/TkVWkEb2zDibQ7rLDe7dzDi5fBRl+JWfCw/auRd8CuBkfGVwduNFjbf5XDWxx8FnzSuXKk/Kxvn7l6gHxxWZEwfRYDeSfKo99FarL62PSNqDzGCe8aFdc687sMXBDzSHb0lfkGWk2uWHP2eU7EOEj9aNqE8GjpDYd+X5IOJQtEDBFLG7AhNfrcK7k8M7TSU1Y5PZG6446HJ3nDgfBSOHZV/pPNSrkrQ9versWA3tmO9jbova95aPHrfDe48RIyov3dCb48wl+VR766CZpOyxcMRY7Oei3SVwbbzu07qPz3yaL0DvWRJr2aHCu9odCIgtD2A6irktpc5mxAbNzbuub2hRNjfpG/s8/YfigRoO8s3z7ydjiBXnGHGY802bzHiJL3SjTd7wr2t8SqtxB3S95DWt0lX4qlvfvnjuQ7jvLjeGl7LF6Q7zeHstXAsAO3qbZzV8T9Dl5n5RzQOQ9VYQ4d25wsgTBAHFzXVXBWaioIA3vouHmuIQ2mQ5/JemxuN6mv3DjdpzFD4bjpn4hupPmkLo6mgU0LzlGx6CuHDpZTi41warRGDVjXYIxN5DW1O4LJF7PDjKdqDYwGtGrfO8E9ux6vSuDR3q5Y4XTO26l6RLkI+y1cE3HaevrloZfaq2W1OYFwtqJXCVkPeoMmwNz0N0NeNGIOzqPDjsd7t46IqH5dyQBQtZybqMcTaA4nvU7m50jn0Y3auF9a/OerWU5zPWOzWpo/qvxfxFp82ZeflPwhL5QkMj+zsVI2hvWAMxx7IRMNat0gptmsfrHaXbEbRBaco9uLmbUyZgu3tI2HdyL6xurQXljxkA+NDeCI6ef47uzmmPGwKJVOAWabzCn2aWt13ITjsUb5NehYq1fMrumGzafHibXsvaOsXOaLzhoCdbrfRl3QCnyEYyOqsswXgRQp73YNATnDkueSN0tZRs3RKNltubaItutBlhddiZyiqPNTvs4geKwodzSAoDUUD1nyj6LBryqWSCneVelmufVQB5q67p29Qbeo7I13JUtneMK1aUWu0LKWPFnSYoJImObO06EdRc1NdFVs8TkI5bM8zaMFJ5oypm17FcrekdjIe/ibYfj5jh1CzINvAOq8IGMFhbgW7jLFZ8XO5fcmxt6IWzdZkAfOaZ11cHhI3B43+Qkreb0guBtLgsbUaeKzrQaL1xqs/OKwias0AblnI5zhz3HjbGO9d43a3G3vDjrZ8/WN+StE57ZRWiklfg2Q1Cdc5dME85C/I7pFVtQaPBOjOFUGOdeonSP0NUtrl6RzV51YCI3nls1OWIod9O8b+sjw1cCx0iZLkTmdFcE7O7J081x4vZx+GHGY7+x+PMrV8/WN14vDYvV0V1uAG+jjGF96YxuFOItELzdlvaDuY4LOlaFSJpkK4KG6FwstzwVZ3l64NgCDwr7GAO6rw5vZOZWh3/J1y0Vo5rq8TePBzDQ8K5l7zdq9InJWdVyzWBbOtNG9w46y8xKm+f3aw51jxOPMbOzu5i6uxH5/wBDoKbOYvOxqZ3k+9Wzd2dQs7mcxmPwqH3m2c208yj+TmM1FA34PcHHnOzmWPMNnMo/k5jd7TkwbB+gGhYb3ZxEQ1XeY2SIaXSe9mPMNu7t5hAdreY2RvZFfefZv9vNseLsjvpzGP8Ax+7OzqfZu4cZZ36w/mMx7DP0Pr2XKJ3w8wtxP6CaK8XJ3KE/Dx1a5uzctrvj/Q+Vvwpndxrw3SzA7tpdqMn6Hy/KmePGyv7R3JDrulDvcf0Pm+VQ8bRopuTfIUzxPuHju49Q49UTKD5ePmcewob3S94ceK19SSBulQtJF4N3+c4BZ0gPgsA4rMgJWbZjTwXs38LCz/wsYE/Ksuxa1Zmll2zw41/QfTxF16zJ3BcFais2UFaQtLVpCzpx+VW1WhzvBcgv+YrMiaPotAG9m8FB8vu3j7iOY7pBNirWn6EYf6Ubf0Xx3+z9B8Fs/SfDisf92Nv6WbN3Z1gEf0K//8QAKBAAAwACAgICAgIDAQEBAAAAAAERITFBUWFxEIGRobHB0eHw8SAw/9oACAEBAAE/ISzWz+T0bN7R9F7N/wBGyfRtf0SGiVr9mscHvlHRPj0/z/8AV8HBOSfMXBCf/OiEP4+Nnv4hjJD6MLka0R/CWzr4hCfE+iHJshNfH6IQhzk+tEmUiQnZCHJESmjsx6KW7NbJSFI+Pjv4kPOiXJongnZCT2XhYJSTD0fwTcyRFIRfg5Pb+jyWm/4MPRJpmtYhKfv2TZ/XJHXCMk8EImvREiZqZj/w9M39EaymWc0vX7JzSXL/AGT6JWYczDl8ku8HdKn6Oi9PJO9M0VL+y+dk8xGvsi/y2fdTHnejrBrWV7LDW/ou+fvRTZfv51z6PsrJbTXxmpkp/wBC9ZLYRbX5JS95L+j9mt7+Pef/AIpS/ONH8f8AxeS5yIvwsUufB6E/o/ss0iL46+L8bLPhEPopb/8AGvjr498/HHxo2eym/hfPOTs2S/HZx871oWmTVH8Xrjv45PZm09/HQzhmGfRjn8mFwYRS/ZVinotwz0tG9GCzg9ZOjfmng8dGtU1vBvyVIqXGS3j4v/I9lz/Zhv4qItWHcVFFwY6NF+irPTkqeudUvWUiSYnkq9sw8F0uTVemW/7Lfo5XC4PfRelhEvo/ZSXTwQ0eVsslybN3A8eTRrWT2T9o6LydcE6yj9fGiGvieC9IREc4J4P4OvnR5N/C8nrXxPj6J8fXxyUo/wD6387GfX/13Ts6v/1r4z8zLx8QhPiIh9kuF8zcIbJ0QZ42TrZLwbybwTZ3g4PRFtI8nZ0T/fxnxv5f4Nmz2Sf4p+z9F8Cd2bif/pnqkLD0ZzMl1DxwNzKRyWZf4J9H8HUwy/fksp1mFPapukW57KniX+jj1oyayjd4L+h/9kvjBOV+y0neV0WbNbyiLBsh4RLsWzROdGvnqE2awLRv0eifRs0IvZPmTX4L8+CfNP4KeCHJyUyckPv5+yf/AF6+Uey+P/if/ENfH8nn/wCNGfiE+ODgvzySlNmjjBOvh7wQ+viHBj49DJksNCxfjJIe3k9E5pCUt2eCn8mipx/GtGTkz1TLa4H5VMcI9E+J8T7RhcfklOz2/v4f5H+yWpjCWtcsq3+TClZVt4LFollJ3s7J0Zu8Iimac/4PWaWXNQmkjWlvZ4evidnrIi8I68aPfxdno8mdNfO86+OPj7OCEOvi/H8mvPxfJ9/Ho2ezejNL0ZZX8LZCr7Ni2S/GvjZ18Ynzz4Pfx7PWfj0cHshf/rl/E+Vv4tJ0aMQ38+ifFL0PfxDKwejPzD7Ln4Xk15pnn8FM/OjkbnghrRWZ9/Emi/fxUui3+zZ6Z5M6+L9rk1g/g/ZyQa7JNGs7PRZvkiXvg9Z7yT7HnCeTOpe2T7P4MZ8H6NU1l5Qte/JvwXt4Jd4/sssJNCU1k6ZwyzQn0ezRvwyfsnxfjV+JjRJ8Q2X4nwjfxfjH/wAT8nQ//nk+y9/HGPmp/PvRrXxDHonsXPzo3/8ANTNfPRPiU38v5e/j8Gz0dmDBo9E8fFPPxDB4SPBC+CU/glXRz8RE/BPweiD8HBbv4nxsl+PQtHs2Rc/H18TdRjg0bJLSZbRO9k/J9ET8kRPwTFpEfo8c8G5T0tE5bnxJp5XRFzsi/wBF9jOa1eEMltGe4Ye2YWNeSdqkXX7FOScpE7N6RJj9nk/7JvwayZ0XovR5tJTWkeWfvwf3wbPejflfGP8A5wY+Pevjfv42Qxia+JDvk8/HBz8U/RTgwdkgvnejR/fxk+r8Lfzs+iT46PYv/j2ex/O/idP4vj54F8MXgR6IZPRmk7ILZKa18Tyex/DJ8aRweiwp/Jgk/wB/H2a+zwvi0vXxqfG/lvn8lOYsDRov2Xxgpclv+ivlYIzGWlrZv6L0RLzfhvovaN4nx23lmeUl2Yx/Jayray2VMkvHsv7Ly0b1vsrdSM+zPx7wRvX3Srgk0R8jSZr4/wChUS+DXZPoh0RYGez6/wDjk2YRsvHzj38ezXxh8/N+Gu9ES+J0d6/+qi5KkUg//jXxs5Z6+bDX/wAb+Pv59fH6+NC+ZfJohZ8Mp9/GiHogzXx9Hln8EhGTg/k0fXxeSfj4k2ej+DuHngZ2a2QtWC94JNk42b38zls/Rv6MrLN+SMr4aLog1+eivR1OBx5WBvVyesFm9+DmH6L0RvtGrFsmm8zRLu5Gutkvhnl/4K+dkfCJ+eyfkj4P0ScGXTWz3k+zQsDV0fcPXB/Y8nTvxsx+P/qLXzowe/jko8YJD6P0I18bwe0Ul+NFF8b38fyYhx824O6UpwSnov8A8X4y/jYvin6+Kfwez+Pj3/8AH18VFM//ABTWC/fx5X4LSvovx+vj0a2U9I3ycZPRycOHhfsrN+KQ6LxC3ZuYKaL4P4LPXZs35NnrR0TvJZ/lmFyejG+WeuyynUOMcE7PRnrBHe0dweNH89m/o3rBndG2+IWYeDsSSy8Fmlgre9HRuk7+jk9YNXybNaZ72T52SfGryfonn5Zv45+Z3j4W/h//ADonxPsvxOyGdi8/F7+N/E+JwQ9fHfxfn2a+bPhkTP0evl/H7+J2UlKLfzv/AOoTohPjyQ0T48msm9r438yn9EKaJNkPfw9G9kwSk8Qq2ckhnfJqIz77OfBvj7P8m/mGyUpEffxFwezHonPHBP35+JoxMk+yS/2YYlEu+Ru75J0z+TD2y+zbx+PjfgabzdEtwRfZfyeLs1rRfwT7ZGfyfov2f9g6hu9fHTMX4zycmzv50Z+PRnkvXzfjrwWfE+db+V8Up6+dngp9Gj+xGis9/G/j+Cvn4wjl/Ob4L0c/FL3+vjqopT38UqR5PZ7+KmUpfi3XxSlKVlL2n8ez18X8Iui7P2Ur6NbNbybX8H8/FPThv4xC3fJDKiWzXOStyjUL04e3rZaX/RUY7MM97LdChekX7fJj4wXrZZvLHxMlI34aNLvGj3j2UsM8KGvJ74PqlazIPG8G2bLC0tNllxS/opbs1PJ9mts5waNeT0L49F7/APmr5z/8T/40eiv/AOKT/wCKb+M/PpfF7+IZ6+aUrR7LT9l+Ka9m/mzwTshryQZsp+j9HZ9ZNF+Pr4qNnJfm+aeSF5+iF4P3C/GjPo8s19/CNnv43z8J5yS2nAndYRs9EXIt4wSVonB5N6ZWokPGidlXgbh9ZLdGOMehH2YW+TPJnoyj7L9lIT4kNaUTJ4p/yPbI+TELNCvf5N8E7wQt49l6yfR7LLgrJNLJvaweeDyir4z18cmj18ZwqThonfxr43/8T6N/Gv8A8Poj0j2ZWtGzLPHzfn0vjZo3ksOD+Tgei6m/j+CGyH38SmjZrwS6+dmjyX59mPh5LDXxrXxo3otKvZsvg4PyPfzTmnlsZaeT6pTxo0Ut8nsvA86Ncw8cP49FfobSPR7Nf4OT8l7+IiW+DZThGU/kuc8nrJH6bLINneCwxo9o3fB/ZeDlHfBZE807MWHvRHk7ipyVu3MJ9ojJW+zfxnjjdNmV8a8l1gsIW6JPjs+z18cENbMrefjXx2eP/jr42dZ+IVc/GjR+/jZ7vxJ4Ed4+H8einsvz6Pv41stJ3kpYbLNbP+z8Ur+KnT6NGTPBV9F+M8no9L5he/i8lvx/LLDdL0Pho37Xw8SFffxKX7hS07P+wW/1DZpYV8H3s/7BrR7/APCz+j/oZJ2b8kxjMOjK2XXC6M/4MZpPs6wXGclhvwRfR6PWzPWS07JjyRr6Jo0WYZbmwx6PWStXJgyfyTsiJd5Lxcl4TyvjzyLx9n6PJPokzwa3yTeazrsnxcEqx8+//ikPXJ/A9HHxsnxvRTZo9F+M/N8E70M8/N7Oy00sj+LIvi9vn40UtMFJ83o4PXxss0zorefj0U/5HXn4pbkbN/Ho0efj9/GvHx7NbHgyQ1s2XrBLlPXZ0W6h7O5grXksvN4JNYKa2bwso1lFMc8m8fo0qakzTC0X/Z5Na+O0icEfZ/ZrRnRlY36LwirDmej2VG40eDRePn0jOivnHx/zQj2cfCxrk2e4dwlNka2Qk2U8o1lFqUQn9nGZ8cfMvMPayzB/2T+ezR0z0YKios2vidfHshevmdf/AB9GyQ3v54+J8b+bT7KLfxCi+L4LyevnPOfjWjM8njk/B6NbKi8FmGXspovRspvwV8o9jLc9FvxCnPxo0aPR7ODeS9n3+STA5jg5+d6wywvLP8G7wTS4J+iDa5Z9GPs3v8G9Y6Lhf2fwMs5E85yfwTXCRo1vgtWfovefBb4EZfEN/RnkneuCvJlromovwXE2SY2e/wAH6PTPuj1jBvX/AKefybPun/UiezOXIYMeSH6PovWC5ypDezuG9no9aKkXzCzyezWz39Hs4NbE0eyZwy7wI9ns9Hpng4NHoZ0Z+asU9fE+P7Oy9/HPzr415Q78evi/OzRv49novxbS3CPZUyr0Xngpb0fsi48ns18a5L/4WnWIUpfyb2WUpXyWbWTZZDgp5RTLNluD0Mqn8HJXwU3yTvgWMbLLX9FRqGsl2S5efA30b3+TwJ32XxTfGOj6heYUs1rk6fYmls/RakVPX2XaW1wzD5+i9L0XdRSidq/grT8F1UVtVIpnsaU08wsnnnsyi3y/BL/s0/5L9XQ9FWqbkxCpl/RbrQsneDeDWCT/AAWbOOl0UfBIqsm8zR7H5wb4hf0N3UPZEt1l+NZWSyXZfB+zz1o0suEhO/j+S+DZOPiaL6+NmvfwndfEhhF+L8a0clNjzhY8njo2ciz8Y+Por5GakXPLNF6NFNqmefimy/HrZ34NmjjgvLRV0UrLYa0j0ey8Gj2bLMnvkvJKXgrOy/Ps4L0VLku4f9S/Xxk1TJWx4+K3OClvBo2vRRtrJUmf9EXeC9fGxO7K+PjL9GsLRjS0a/yjFqVOcYP4K2b8T494h00Tr9mju/g6P5Pv/wBL4+xKZZvWCXWDXNZnb/8AT3tl732ayt/Pifgo8+iXO+jZt4TOTdTyYRKtEJSSdnZblrJLDJfyb4OsHrJOskJ0Y6FCXbIn8ZpE9kmX+T9nsm4Tt/Ei7MfCRz8co9i+LC/C+PeC97PRz8/fxb8U8nr4vgpTrJezovHw9F52UprR+4Lwaw/j+zz8eyTRrzk3grR6MopeWcMV5338c5LPJfuG94PZVoqeNlXPxz0RHtG9fs/kvB0bKa0bz18ezw/5O2bzPRhFt5N/ReZF5NXJof6NQvanRe9FngtwWVH3RbPP8Fnvottw2dkmyl7fr4t4hwX6NRrk7jweTzzwWZ2WxvRbaW50fs9G69eT/tnOSmivM+KeVjs/kjL0bwytbcUzzlpZhs9cFpfyflFbMrR7IWZN8kn32RL7+ISn9Gtn1T6wa+IuTwdl438fRPjXxs9njZZ8U3wXss8FNfF+mWFXJR6+L8XovJ6Ls88HT+LJyY5L2qXgpS3Cx6K8j2X8/GHDX9F/2X69njj4vxe8Fv8Ak/RXxlHbOyze/mx50XvRfr+y/wCylr6PKxC/ZT09lhf2W4LYv0fZcpH6LcaLZ57O8UysUjir0VvRCzmnhs+z9eS3BhTnwN3vInxspS95N2qL+S8Ivn0e/wA/Fu8I1/sx+STCXoTb04aW8Hv6LJyXpQy/Hsv6LqvZ/LPueCtaRb4bMrR9w1vN4I9PHRdkzdfEumXp0zl8FSwyTj0yTeC7SJN8GfybmcGcsvZ2Z5WzQndlhvZPDNcj0xY2z2Y+0ZQt4K36OD+S9mPjHUPavxvg1/8AGCGDnHxr49Fz4NnZohOvik5PZ/BaeDUZe8Ho9m/Hs0dTT+Mc8FKmY0YXnyei5wRYhUUwtm9FTPRUYKNYwUl9Hgl/yVc8lSpf/Cf+GIXs29nc2WRorYn4LsrWyvhl62ZWOSvl/gpebD+y8a8llLBtJVrFGilUXlEv2Ye/oXNya1+C975N72Y4RXp/RuXaKkrIi/ktwt9FmuePizyZ7MLbPJ7wXeL4Oc4LcImviU1v9H8sqLdGfZ2mZVWya/yedG9ZEvP4R7WhO/ZJ8T6hvyaP4E5YseTDkU+M8HJtdmjZBR6Ie89HBFytGvTL2b1ok9m+dcGiLj8mcfE2b3yVvj4v0VM9Hmovxe2XhCKXoWvj0ffx9GtfOs/F+NC+L9nsXPPzhbO8/Gy9k2non2f96+adlhVp5Mb5hqQz9F9wqPReSwuyvrY3N/ktyVdl6Rc5LNsvZYN/7L1rs/JfvyesDPWheCv/ANL3gq/OjjotwnS76PDwzOOfjWxub7MFn2xu1WPwb0yw0jzRYv4XgiyWYTPG8EnnJezesQ8Iw9YE7s6Jdngs2Vr7wjRf+2QtOODTW3DRraiLbTUpenS2J/op4mCtaLcn/Mvnk1/otwvtj3jCTE5cw9kmtF60ypG+covWWS19G/R0lohOeTKmec/HZjgvSPIvJlayY2fovgv2S8U14K9zZd/wfZvyXvA1tM/RunoveS/GTrEPR9HUKei/HPonxPv41/8AOMGj7+fZ7P4IOrk8wm8l+NGt5PDKTkp2j+excmtGD9FXOTn49fY10XS5ZryWkmSp7VE27wcluyz6PD/BnhfRfyZ4wXpQveyfkzwc99mM4PRv7N5L0W6MclmJbss2a29l4/BU8afZJrdKhPwXxRksFXK0VMYfk3vJreh8E65K+Uc5IsWMq2W+SP7pC7z+TevyZJ0/BGlsy9EnODK+j7rM8dmJOSdfZ6Opg3vLLpt/R737NeipeWbWFCvnaLiU6TJnA/BJrMP7NefRuV0s1+fj+D12NzfJvQ+tmvsRlcmEbqahWvJfomm99GVcYJUdNE8aM54M8I4zvwXtXyRLwZ+i7/sv0xQq5NH5N+zOBHvJs/Zdm/m97NDfD4PXxoqHx8b2I/g2Xpns4IfsvB9F6+Ky9aLwVLNyU7hdnnkv0fZbTGje/jX9n9Dzl/SNeSd/g7pUswv/AIVrejPGEfdN5WvJ6ZovSx5Lfov5K19msFef7KnlPAndEusHvJfJdt4Or9HqD0y7MpcFpbg28uej31yVFb50Wv8AkRfsurvkondZZelH2Xr7L9lgq4jHeXBrT/RVmFmXiklXReteyt6PX6NZeCt7z0JXLWT3+izX4LN4Zq4+zaxgswyzb+heeGZe8rkrRX7pLjTK2u5yazSct4KpD3sXb/HBq0aTxwVpYyXGRY3mcnTK/wDZv6L0y9ZfRnos1lvhmei3Sp1MlvJ6waswTVyfto378Gt/r43hZZrXQ6/9fMvknkvWDJ6wR+oZ5M8ZLdH7MrWDzoh15ML2X4heyUvg0Q15I0YZ3kXxToxXDS7F5PCcPuor4+KXwei9H99EhqFhhZ0XJrZIasyjgtKls/gvHC2W9slqzsS8/Y/ZrfJ64eRq847OPRHr4+8clz7R45LHVktPD18XGMnjsWFuvqCceWXrJnXg9F6wzW89GOPstPseyuZwYWUN4z8Tp7MPC+z2Vt54IvoneC2XB9QfHRZ4KmZL3oS6/wBMqWtlm+dExknbJZTWV9FmGp9FSh86HhTaJY7ki3TufwWOLDawmX6JJ8WTBm56FFXv4w5Le1ya5wuD+eS6SzDfOOifojWekJp54O7/ACaefozo9YJ3sv8AyP3eDXGCXBhW/kv2WaPqGXUmXi5Pv/BnnJD9DW4R7tPsgrw/orW/0b2SaP36PGyfo1Z+xc8n36NevnVhvWy9/F8TyW5MPwXvRs35+Z2bPOjZIcovJ6L2b/qlXs1eil4N7LrpF+ymtGTz0Sl1mEn2NdIb0f0byWWlmuS8PXBc7hy7+y3Gi1tplS+2VLngh8F8lWtl4X7G16Ro9Ol7LPJc4cLf7H45E5tfkvFguTezCkyWV6LeDfhLyN2ZwXfOCp5eIa+zPBcYLfR7LjRlWZQ/P5K3xCNa5K1C52WFvEL/AAdXgt9lRuVlh62ZW3T0znP0NOxWuecfFvvotnBeeDHLtL0y25KlXc+jelTX9pm9a4Zev2dfsbXWSz06G2+Swvbt2XoSlW2ZbLHjkviQTtLNY9aG+8Tg4q2yt6wXjfxNmbjK8mtvLMtF7dheNrsnX2f0ZW8LglEt10sXss1mldHCd/RVxz2aWUX8mtMrZryYztFTysF/PbNNLZskzCdkw84PCNHBWPfxrBYUxwe/ieSr/J7+il6RZgvYzRfMLDxosecI9bN+Cl9l7UPst4NlfOYeWZ9ovei75/oXuY0cxFnJeka4yPftcMvNv9Fmy3Wi7xssrEb7E/2ayl9jqFWkyv8ABdTNKMs2YLuZRbj8lL0axOPyJ+DUSV7MdDXOxuYLcyF+vBWtsu/0WbXBnFwpovBRi+izO0Ut1piTW2WvJ7LP8llzC9khTus8nrDLvJ7/AEWfNeLswil84WizwX6N4e2XHbRZxW+iPj8mGd9meJngXgTVP6MvWLwYyVMjUNL2VVcXcPumv9m8EjwzeELPGFwSVvbI1ahLVyfs1Z9nWPbN7etGzC+i3mGuC756KitcbOv0S7N62+CnVMTGWNT8m9HU12Jp034ROyrPL6FecPgl7PeUe+T3wLrsUz/JdzJh/XxhC8Gtj2ezezweyrHgpBafoeC9Mt0XtaP2KWFu9l5TL2WIvf0i0966F/4WfRdIeYl9lipnn4bg/eyzD2bl0cS1Fjzg3mezwj2yrHZbumt5NXnopdomK9ESyi0vTL3ovQ4ko8DS4ZesjfnJs7FRF5RceTf9FsufZOEyy5rL5+hPOcDdsRe+zVn7KzLfKL9lm+y3f0Xxj4tZ/wBknZafsswPBEt5Ksl7YvPx6ZvL2KLSh1jB/Bu4PPBpdFonW31wb1+S3Tns49+RPtmH4FL0a2YxPiTK/BrZ7/giWDfiE7znBvDJz+z6F/JW9Df6L50eWtmuZSdI3nQ96/BJDeKVei58HiQwsF1ySUu/B/PBejUpf0VPmm0pkw9cFjr5Pb0VexzZbEyrhnZs1i58mGN6NfGDGiwpbpmnZVyW+PBvn0V4HwZ/0XpFKuTqn8dl7Na5PRfB630T8lxg6bxCpZ2e/wAGs/j4s0N3X6P2N9Z/ot4k4J55LfRkjbVGqbN56E0fZF/kb8l/B+C+B5kxkbfZdIs+ilvBBO7K5x5Lsn0M78mVolODWvwZWGad7HoWSFhH+S07+K+TzTWirjfZezK0Wmts1lHkq62cejBjZojO+T9Ca+y36+c2m9nsRYW0ss15LlFSx2XXP9Fu8PxyN3eSxYLdYN7En78GPDZe9kHjwSb2Xtw9Y4NYIuPwXhOfwS+SX6LdGt58C7S+jwJrazeUWHpwbf0Vr2W7RW9I39mWix17Y3zzwWb5L0oheVrRYm++y+Poz5RryUXnfo10xZ2i3Swi9/k8GTe8HRh6Y/GD2Y4PRoi5+j1ko1o6zhfsq4N6wM14N6N+h+Dg3h4ZryeizZvR1T8kmE8eB53gZLM75PokL9G84JNlu8FuFkqftG9FnNReNFmWXrBSrqFyjzx8Xla5LCz4wafSPRX1kedZL4wX7RY8Mt542aFui3SLrsesF2Wl+Nw1s/svekVcDGrxkswSbfovOz0b3gk0ZIXs0W6ZUtnov0YiuC6pJndN+UNWJcP8jvAw9lthCtWk6HXr7Po4L+SLgv3wfqHr4t3+i37Jw2asLJguqyLadJd7PD7wz6L/AMiXHBiTov2+mSi8YJOP2e89l7x0Vr35Nm0RaSiXRfBvik7JltGVzDwtmtfg7rLwz1k8ssw8U8p4Z6wV57Pf2Nrng7qhvRLrHompj2b1lGLI34Lb/BHyqXGSL8aMYXJYWf0Vefo/lmVlsu+TRT8HibM8lKT/AJlL1suuiFa2jPo0WU3IizfZfwb0b2eyzZrRZtSnv4t2a5/JrbpOtlaOv2Xrgp7yUt2V+yw6my8JKDb5Nw/ZfOi/RbrQrcDwWqpfg97Lf8FzvJW95hfJ7/JfotPRY878Df5KVein8E6L8M7TCca2rs/wa2RtmvicmV/stRXyyLc+jWy2wtWNlZsfllcz+hW9GONF6tK1vNN/Rab0JNckPfBSvgvWfj2asPM2Nl/B6we2e/0bOM6HzwW8ww+fZ9cm9dku8wzoWiXSpbOGLPgyt5h3nbNkngjeU/2Vq8NnEez9EixkSS8PguRr7NSqM3lHVx0WbMrmrgx2KtaL0idn3gt/o1zC8Mn+i/oX3k1r8nvg3paLNcnvJ77OajGezesHJn2iE5fx/RfovZLvRRN14aS15GvGfiPKaN+TuGssr4cHeVS4tN7K+CzZSw8P8nDLF4/gifr+R6MOxl1PyXljU0VnGTZWWj7R6KlvBfsrX+yz0ZdGkHi6I1h8li4nLZas/RWjei9HskeC3TyfyLGizeD0/wAks8Fvgb+LOPjGslS/0esv4fB6Pa+x/vgrzw/jevhrpElhnnJoqeOSRw0qypf4HnX0V6GH7+OBF/J6+MPK+Ib5IaJ18RPbnRvwz6LNnr4vK+y3H7NzwV+z2fxwROpMw5vhl7MvLche85H4pPOSd4RrWyt4fBclfRG/XI3NGPZvS12ezGItsXENcQuc75MIcWzW89GOBPZq9HsuMEbLclL04Xouo6eSXH4FnWfZZg0fo3vZYV/kv6LNlKXOeirkZWhu+0Wb5P7K8X9FZ7wb9Fiw6ftFS/wXjZ4Wy3LZr2bLRspYXoswJ0t9M1Ky3Rf5LjGS/ULNlf5KWfZYlS8MveSl6JRNHBCE8OTemh6T/u76FSVo2tey8dfF8mtuDvgsyVbWC7e4alJZGW1FLC/ZVwVcuUwpkvB6L4KlnReE7/ZbvY28l7MvJXwei3B+y9/Q3fCMlvoqa8ez3wW6FzeC8svsr6LnPJdwvbL5jLwtF6d9i8FyfWClh9w3wWeEWcnsw/8AZ70dw1yZVL5pcT4vR6Ov0ZwjRfovbKlnaN7RcfyeWOi/V5P6NDcnBe3kvecltmD1o1hF7M8YL/zLfRleUa8nrbLdnl7X0a5pg9MslLy8p8GGWfZFySePZ6H+C0/g/aLxsl0qzOTPX0Lz+PhsrTNzNRLtkfZ7KXvSPPHBBzUwejX+Td4Nlmyrkyy/k7hvTOMl0N8eClmGbKv9HrZeyv8AwNw4E3m5pS7zeqV/ky+MHB4Tprm0zNw8CMmta50yJYOL9mZs/ML0WZWPB95KjHBUtHh31CzCOXY3nums8GyzWUb04bjWYVcjep+RNLXI1s/rsvEGp/R7yVYS4LpPfgqbNF/J7Kkk1hj0jqZ7MzC0b2oe+S1bE5zgldtI1IVtbJ3l/D2Y5RhyF8/UMkmz0bPSIaPf4McZJyLNpGK56g1dG7ME+P5J9Eff5JMa+LjQ6zz+SdFuz9GtM1UjWFhm9n2S8zoxx+zPVNGVn9mO8l45/RWZT/ozf5+HVgvgvOzfgxmvR/fJrK2WayTP/ZP6NPwc4Orgs1k4L4LT0vi/kvSvZuwT6Wtl7MaR3VSl/RhOnyjWbSrk+od04aS/BRuwt/zB9l/B+i3DZS/aLcIs1nOi9MpfovgbRTkqL0W44KWaPTL0x+Cx9fFnFO3IU8rB7Rrgs5Ldo478DVCdqZN41zwW+D6Krjo8tCu/5NH8svk8rBNzv2X8cFAycHMMeXH6hQSyW0zC3/JyXjldDutJFSzoTbc/Rey36LdrR15Eo6vwXo1pl7LMHrT2NzwKWa0XD5LztIbu0aN3svQmb1lfsUX+ivk0y/TM8ssy1RPhlLdFKuSqxaNGDCv6LPot++izRetmOTC2il7wU9OeC9G4VaFs3jR7KW4PZvykWYahVmMvRdvk9HtfReE9FgzWj0y3+key9Z6LnJfBs/ULONl8YL1l9H1sb750jKHhdmNzXxD1gTeDPGC7vxJrkkPSNmSN6WfieCljk/Rl5IJ/T+OSQxp9kS1g1ox2X9GmaL0YQx+y9os++R3/AGXsb7E0vaKmoj3jr4u4a9lf2yl8/Rs0WixibGumZe8GsMo85TP11S1b1wW80aTw8PhjYz8Lzf4G+Z9tk4WXxSEPQnyuxSo7aWTM3XzxWD9sw6+WkmMo0pVu4Rf2REwi32jSdL1aZZUY5eRNpY+UPXImyp/j48F530WbK3lK9wq4G5vTMS7T2UvMEksLSL9nrB6LcNzwV5wZX5E2/CLu/UL1+DYk/wAFutESu/yUWVGy8NwvSp2xNclumQ/kr23+izWmYWjPtFujXx5KS8k7PDf2X7ZgWNGSePos9/H8/GUalx8eEWb5MFmj2Yf0VJ9l2e39FXWS9KmLhHo/6no3I/jf9j/g+jPv/wCLEvJe0b8G7yZmXhFu1obnGSnX6N55HccHv8lPvZObs/XR7NeSzCcNyfZWjO5g3n+C9Yhd0vf6L9Ge6i1Y40y9nvZfwW/5LPJfGCrh/gt8l8aL9mX5KseS/kbG/JU9l+y9bK1sveylnFpfvyXl9jf5WirMz2Wl5foy9jP2OXgvZdUr5z5LdfsRLXiGqaKrmFfHPJ7O+ehvlF+mXorW8lcvBl+il/BbMQlvB5WUcksdn7K14O7wPP0NtxXC4K3iFm+S7E+i2+Bt6uy3PKL1s1ME7LPXHY7xtiXDx8XpImDf0L/qPEkbfBi56NsqG/8AZ63+j9FkLC5xnyVZjLwtllxSmv8AJ6Lq4LEe9mzjWiPX4PbLdKC2X9D6OjqQqVXBhfZ+0VfGOcwz18TBe9mzoW3GDK9cGWZL2Xhn+RO7wy+SvORvtl6+zhlPP8H5PG34KmXVyynlp5M8v0YZZnkyS7yeIPwZhE9ckmnUWfQ6tZT5Po8GT0ey4JT04a2VvCR3C9HBcbvxZod6h/yNPLN0/k/JXj+S/Rg1iHos1hk5lf7NJ8ez1kypzRu+PQ1McGOqeMmeFWPZWsLTJ+iteaz+Sz2NXROHwOESztqZXxVyVZzk9FL24Xxns15F12ZWyLW7ySaRrfJLsTn0Oluj2oixK7eiukspMMr5cL0e2Rvn2ZX+YZzddki6MiL5wZ42LvngWd4N2lmaUumottf2b9HhaFnR355K1l64P5MrLwW8Ut3EW+RT/RlSYGuGjPK/0Tos8v8AgtLcs95E7s8l7wWZZfs3/ktMbeCW9DEBCta2iov0yclp4Kj2a8jfReFr48PJqlz2Y4KX6Mv/ANKe6YN6LdE4f2WY4K1r8if2eilukbx+DN8FasKx/NlOnRO167RZrPxXxnyWxI1JjsvRrH6Pey/GPJS/G9F/J+y+NjfRX/ovSKjWs0vTyhXlFnHplueS36M8fDbUaL7dmyyrRrY76O7yY4LVg9m9cELfos0Lx+xv8lT/ALLLddjczS/hFYtbTymnRL0q5eEcYL2Y/JZzgqWuSl8mG/0W7Re9FheWyp+TSi2S+Psv6FFmFfZeVob/AAWcEkSdj7N+BKaNF7wVzBFyzL0i0vRoiw6YejWnSzZh5a/wWppurgS+jBEtZTPoucaN2qeSXG15JbxDGH/Rh+DK2Lpfs5pwPEwPiclk3gohvv8AJD3iHoqLM96LTGU2Q2hpbyqLHofjXxd0f/hSzZeytb7M0t4I/wAFnGyfXxPNJHva/BjS+yTWSn8nllkK366NlR6Ps9FvguyyGsfo7O+UXjR5yMteuBmFtmeMH/Nl8lT2f9TP0fwLTvBTZjXy35PrB0qWawXg1vZu034RW8HGC6Gq+i/vyVqZLLCpY5L4K3lHksx2Szn0WbQ3qFTzo3ovKMlXonf5Klgmq4d9Gzwl+fiQ1hjSNZGaCsuVz+ymUWZRdMb54Ga0Y5yXjyVEa5L0Z2tEb0Xovkt2PH+iwu+WSj83BbyZ4webUXUN7wbWs+Bk4WfB6yVPTIuxNZmPZVOoy9/kkxuck8eiNYlP14OU9BrqvJ746Lq6RG3lyPCTwS7prSs8ibe1G/PxwedI9ZNXHwn5+jZ7PeD3lM1zDCztPkUuS+D9CVpLYiaZeN+EWeBNf+GzKJSos4L2a3k15Nizh5L2Xo3s1vfa+LJ8Wl2WcbL0XhM1nR0xspj38bLdo4LvydcE1j9jxrRTwvyWbd8nTsZf2N8dFpxkv6Ntf0XrZc+C3eExv7NF1S9n7HGN9lxgswvyV8FLp9FXJZ4RfPyruT1pl8/g3vH2XGeCteDTpfums88FI3pkiuK9wZtE1tQ3+heKzaeCeexyLG5WqnBt8Fxg5cPeTH+yqC5/sTW2XxkaNEqGT/kzthdomMYFed9CfD/RVjzwVrfOivNN6M8FlSLFGb0a2V5dyXmfgs1nyNvEwWWlX4Rbzs3ySGOC96ZPosx/B5E7lY8khU/DZcpLAnNY9GPxwV8GHG/ovFzSt4ShfNK0sGX+ODuZ7MM6gl0ovejKbxfI03hON9iWfCajjgiUjqSw3yW1PngRgq98Fzn/AGcF+iyzJO0bt56PRPo4jFsn30Ju16KTPFy24JoZtunH9fCKb4TMgw2C3gec6J0O8aL5sLdfF5Lcjc5LNOovRc5P5N2HXgbSuMdExyLkvC5Lw/8A34uldGXvjou+PJ1S+zHe+yzBdifDNayeydE7ejLhJfBOmSWkujfENk6L04ScF8mvA7wUfjBcYHsvK3T+Ct5ZbOTL0c+B9poppUmm8o96+LczPBbg3Ln0Z9l/BV6ZfxSDiWcRZdElqrElUSZtiXTrN0/ss1+LJSIr0LGr9YEJplSpu+lWOgb4Siec5f0N8kJtM9uMiolOpC4Yzbilpz9HGSl8ZKuilROdTgreBoaT0vqL19F+Nez+SzZvR94LD1taK88Gs7LnKGkvKJPODZB45NYaKi1eywb6ME01SpzBhayUvbL/AOCtEaky1hiafgvZWndKaE2I24t/wNz6PeeyvLTqRnDWG+NmslbXRTzUd/5jVTSfshGllt+WXlmOc3gkyudjc2tdLJLmNLo2s46LuYKwyVy3s1haOMsq30KbUOpKtc3gjEZuNqS+1H+hOt3nht01wMYdbpvP5UEoQjren5ZAa0bTU/SVF+ftJ+W3/AxRjqh7SX87LvgqzjZPbWP5Gq4N35sba2eeej0apWuN8rkng0XhMk8HDvPBrieBY/3wXdKXKb0V8n8DztGsfsr9mNzJU5dk74ON+hq++C7cjNvJdqkusFuyG8UWjysl3eST+y9aPOjyVvZZcF66KemdQ1vfZ6KUszC9fsvI2Y7PHI2yrSwa8lvkr29l7G5EbymX/wBL9/FMbZbss1o6pvynG8uElsQeddmdlMLL/XJghOhP8MhLKCTSzXRqwdWumtiKaPNVU2lr9iYDHKnyrOO4RAFtPE+IInnP8TEObqVT/Jbot5+P2V6LH1DqclmTw4GbDpvXFi48m8l7N8z4jfhH6N/EX2Zynk9F/wDCwbfGC98H/M3naLPZfrwX7N7L7IvTKWyZG9NYL+j0VOy6Fgs2jK3k8wt5/RXw/Zul/AosQsRYr0SVW155LPfBblcbZuRxDnKDTF4J276NQy+Z6MVtb086LGHUZ5z7Mc/oqeNFmMIy0qisgZt0m/8ARKAKSRidQxIVpWknM6v9mRxzpJmR8p4ry/8A0fa3s/2W7wYN6I1433/oWqUSSeEZfEZ1gThZaW6Wy94Gr9bLN/R6Mb0PH2ZJ3os2WttG7Pss0/o9vPJVraZS3RM1l/Wyp+y3wNvueUXaLJg2pYYYtmmz6L4NeT1g0XSbhLeCFfeh+aUvkeZmNdDHnR4f0ZTN7KWm/wCvjWjHDTRXyVZmjUvPwq9Iuc5RbiHa8nmomzfsvgrzMw9YL9mXm0v0K1FlpnjxkSBkZ90kindnpMToXpSucRp/aH6c5mG5keSNHKZv6skJF00+01hk0pseBrrwNkCWQNpJ5aq8mY9TWopaqYk1HGsfwUvBZ9F0eiv7LcD39F6HgphtuP8AvRUpWt89FLvkpM+UXpaKejdzSTyS+GdtI9mhtLisxUOLnZZeWZcFrXA30y3eISckeYi2cJbLWyz70J8ckF7N60ZLTxwJ8GV4O/5JyhYdayyzWaRc/hmW9xdQqThNAjxOjeVC5UyWOL8l6dK3J3klvK6JjGEuCzX4I2qsGFtZL3k4ILTHL2va/Y50QSNL9IvkJIzGeN87Z0v4GIJ7fhUYI1/AZ4yTcMIboNT1kTCdKFPW+aVvWxLloqWiXbz4NVo3t0sxM9w3f2XxEa3oxzo3p6KmoNoi5chT+CwpEfvyXt0tcak0+Dd5L9lu3DfH7L280vLjoX5LZSvgzyXRn2zsp40Y3NGSYPHYzf8As0WeyjapTcc+i/gbn9F0W7xDD2y9ZN5Z/BrWT+S9ZMPfBc75I8Fm+TVSZsuycmFoW05U19Gl8/mmMAIi16s42KaFZiaVuuv/ALQoaQlpptLuehg56aapqG98xjSVdg8ZDMhPjjJRNLucpevPsR4FEkkWkMWDFaf0/wBMSRp1lhrUKuEf8yluS9b5K/S8Fuyq4yhojeIO2OlL/wB9luy6M3fxetlu2W0t3j4wvsv8FpFeoVY/kp6whtdQxyi9Gtm8lfxSjf4Gb0mTCLN7fA3U4qYLKk5L1gs8obcfs3/ZWngsej9MwsPLM8LHJVVNsl4yUjT8hNPKzN+RtLLx34MOZt00T79lz0gmv/BmxyFioWpXLmGnZfxyjGbovKqLOKNuyz+k+f2VNQqncNH3+TCHvcZXzayhkHDZhprThG9ZHHJFicTW1exuS4fZtw0L9PP8iFrqS/uF65N/2VOYZWs1fRNR5Mu4iNC3DP0Y4WyzaPLwdsr4Iszgwt5+PfBU3hxFvZHp2cl+/Bd8JFqzwPj9wu0aRedmcUb6UO5lmtIhJ/k/kxx9kvkyVPW0Xtm+TfIyzBmFn+zY3qakK+n0PBXyW+iz/I2+zVxIW4uPRaNtXgtwi4ZdzPZeizyn8XnTG+OWW6wW1fsvZG75LbnKKcCNiX2iuGtPl83kepJlUc6tLTbu3Um/0PlHfY/0JccuIMEUp0kokbGeXeySLSJzDlanT8NCZZ8zSeq/6PwWF0eSxb9lb1g8pUy9MeORPKgmIy038lhfyI3eV4LecFsv5Lpp1taLC8It9GqXOyzkvCyJn2VPySrBSluLgrWyvHBW8rBWV/5I9mO/0awsG/XZT9kMm+CJHZ58cCTeNDP2Z1cdG/Hga72Ndfg1llbVXJ7kJNsw9ksTy0uoV8pIw9ss0bZwnkamn6RO8FsxWfRfr1o3j+xOOahU+RqcLKKmJKEkTSS0iU1Ytlaaa2tIWti5T8uStoamqwrN7MpsS32yaUqH9MwhKnDeyw68V/yLFWPwbn4MFyfSOlX7TQ3gpryx00t7cv5MC5yiyf0LnVNHS4/okkJ0Y5eSY6G4XpfZOWZ52Qtxs1hl854F6O84L2yv7EPqfsk2Z72RmsLF3CweKUeSdmj/AKjT40Yp+x/gvZ9j97KRo9E70PGjRvyWeKNyzKZ6Wtlxlmirgxxgu1S8nrJ5Wezzoq++GXloZJvTNc0baP8ABwUos5h4WCmvJ+10eyN8mlWSSWa5BUt+lz0NaMmMOUbzkRFUm8/oaua4SrVx7X7Qmga1TMNdkaz2TlE3iEm1WTgjXm+BJvaGZTppGsNlyIUvp5bW2S7yiNLYmW8ij057KlW4XuDDNYkSdyMKWNtOGecl04eueSl4K0XpFyTd4PeuiF6f2ZaxicDfSI5lkzok4LwYMMnaKniVCm0WYNW7FnCcL9PtEubk/obSXFEo2kJSoi3tdUaXP4PRJvRUtq0haVfoje17Ma2Rqz2RLyLlMI5c+iKJbTgm1cOGil6IjGr2b/g536o7/AnaX9Nf0O4/GRv+igddKf5ZVieI23+kXeI/Z+YMK/Vs/owYnDR/2xpWE3zS/ZLGDbhT8JsyLV2kbX5bX8FXkHvWSG2putf4NK1dQv4Rnq99/qk+70/8lNrfpr+zGPyk2v4Yjy2HAf8AJhq6ZGnXrV5Jw+zeJ1Bq2fhEgq88m5CvnBvWENTzk3n8Eb1k6TyzMxk0kNckxjHSN7RZS3R5fReNpFxVyZU/knRU+Smi/ssLDvB/1MF84L0bLfJZg3kvLL1yXqM+yp7L/wAh+CtY/ZZaj8Ex10clvOhvvB6eyy9FXChr2Nv/ACUdeiz0WRrP9GilKYeskPb7KDvq4OEnPWY3bbwwtu4mT+SgENYD7a2YHpty01jIhRDmrt2iF/yabG5fzXj6HJnTPuLjr7wZE1Vq3U9cHAL7P6Gly86HPk6/2MK3lbEv4MIeaaX+xHlHtRf4GuWJZk/pjUnp5dv7GtNncx+x5PaJNf4O6207f+BtlrrX9l3mXw3B4NPLbd48bFzZtP28fwemZ57E+mXplY8bLxgtKXhFebBdt/Rl7UvJWto3zk/oy88FfX2XvF6L0b6TgrTwd8F64N8F6L3ks1kveC9YMrk1pSJuva7cItuOEuQm9taWMjGjnuFctTwWyPZ/JMZIvQqay2i2poW6LxplFwsM41+w/kSKPfnP+Rnl/lN/5Gdp9Nr+xvU2eT/sl+Gi/wAwScJxMJKEt0WT0p2O3yXw9cFu2XYtZd/yezCV34PeS8r0P0Npb12VL+x5BbJfaLcP+w32z/tlnhmrwb29eBXgr+uS9LB/2Dntn/M3YX0/B+i3Zv2tG30X8DR64PRriLsvX5IuDXs8ow4zqnimi9ZP5PB2UsePsrL19G/BbsbXBWeUjwXh5ZEtMuP5Eb9ln9l6Zbs1JiGPz8ejvBXm6ZqZwvheODGTowTjvoV3VKkSqMkYKmuprsYZGnneSiGKyJtm1eXIwQKqbaXkzXesSmn59mUnVa+mv6EbgMStayi2wlZMMJeXOSXO2ztNcuDjapn2no87GKHSx/OhzyzG+xOq69lfDK3HXR1sbweW09Ulia2b39jJPxzwkt4+59EO+5el1eFBrHK6R+3jyY5aI7zV4KpV9FbS58iZzTk19EKkqS8iJO8spesH6KL3svnCP8lfZW9Hll3/AGXKf7NaMst3jwb0et+x4l+jbNf7NdnJprkrl0KOllnJpK6zD1yVITXKHPo+qiJVyVmvKG5w2YcxPCKkW60a8FujC0voSqaqbVfQ7gpGzWSvq+DPGEbw/wBDdw+PotztTRbvngT7xGennnBZzvkejiijyuTtPPZFy9C8GFl4zjye+Cn6KuM0j+8HmI0jSa/DZUpN9lWtsbTwnks8FprHBFwWf9sv0bK+Me+TK3s+tG97LD7iN42VLKLPRWoYb7KlT2XoT18O46G7S2RjZe9F1Cvlw9rjs0KreS9KjdWX9nULL5MFriPsress/wCwNLjgZUtFX2dXss0WaN5O3pl+i1xl47MoflFw85KUyzQiNMiz9Mrnqm/tLD/AhhjanJFmTau1c4/ZzQSfYjIVH0S8MoRwz2H8jW23DV/Ywn7uFHxEIKxwudafistn1WWEdx4Hvx/JAPFJL8jxL/yJRVaEjYetuKf/ADJyDuve/s1zofayUn786lv/ALodyDxI3p6HTvlNBCspIm3aVLTT7VJ1jzSV9wihTXMkkjrf/oxgxaZE0NefrBP9jdcCeBr/ACR8F2JycHhmdlm8Futdi5LBtYK22nkkXwn3kqe2IuHjyR5vJjnjXgXnfGTxsW86MPmIqa2b9HSS2ZDioPV5M0krOkGu0XoV5f6L0y+YM9pV9Fe/yi3ReiPe/Z72hUTyHSPZbrAlTl/4J4qIO4mCy8+C96Lss9cla9CYmk8ul32W7M8PPZZwWx/ovWjq5Z7/AEy8fzwY4dMXOCdGHxnwNVLLl+UztLeL9ncyy29lP0VrKyZvnovKY0sXZUU1s2jVe/Redlp2nlckmuOy3gsnB3Ufk1+OT/oWfFg3+C3ZF6MbT/JR5LDfiFvk34+P2RuR6K3wcXhGOT99D4qg8vL1ol5wS1MT7LsvnR5LfBZs3gul9Gi4LTRV3hlPVP5L0Idcin0ck3fmaTnlEgD9yVzfgyldZhN3KuskMNTDZtTWjIJSVjiICbcy1/sfpyT/AAQU3J7vwVxhz7fRFjEl8RpnT4GKJ17DOv2YI5SWzU2NYlvebPstVddx+1Rrefbax+/4INXzFSf2x2LlatifGxHbRqHj+RLMPz/grJhPaan9FMY+2t/wUXsJf8jVHyFGhNiS3CT/ANiOzub/AKFwwE1k6rnfgtiSKQStP/wcX8W+zIkrWRvBjftKbf8AtHNtw3P5IH0bTI1lleJon0ydr8Fr0VyI3pibzWXc2j2y3Zl5eZ+iRWoh4ZqPjgecntU+hLkxl3pvFxSNDbhdgZvbyXp09i8ntGxr7XQv0KFe0V87L39Hkvn7Hs/DIozWWq8KjXYldbKWyP8A5Eb0r4K3C2lgRKJ95RMz1V4TTKYRDj0dKhXDURfCi7E3DsXY0tTW3tVCVrDw3lEJVP7RQEpbqqDXaibxMPl6s/3INM4uyr9tizbAq23fGFn9EDOPLdpPuDThJymqvsu8l7G2jHHBd36JFhl4ZrJhjq9dl6LrJ7yjD0Wfeil0N3Hkw98muCzwXvZezC0V8/R1for4K+SrM0VF8lfDLNn5Lor2s0peOT+GLFuy/g49lLDHOfJceTZU8IvKLwb+hvob4LT8lL8eeC8/FGa9Ukys2djPgYuYP6GkYKIuBJEc7E7t6HhYHWsYmzuYT4HU2Cy2ig2vVDL/AJLWUy2ksmHZbT7T7Glla0SXCG7lQ02k2YsPHMwV8P8AZuvhlqxwM5XGxr6Q9vTVnrDaKuzLsL2tiaeOO/JZsz1vyZTTshttcGsapeBNqR48uDJGk9TSZgCfLWfwP/VDkldNT/NMmobqCM5ytL87/QiLz4ZP9cEa3pHPh8DTLU0N/TPL36HOSr6JcyGXrKE0sclSyslsp/A3NZ+xttarrsSuXiCMFJMo73Rk01DVu8eSPoPKKu9Frw/Rn6L2eNH8lL/zM3Lno1bslyyPhbET/wAsbx7KorTmnXvZqSsoTfp07Wfa/wAlzRr/AJybD0J/TRwPOcx+2K99Cm/whp/mmv6FiIuUjf8AaLXzTCJZQ+k/8EF+0P6ZDZ8OP7LZ7aNP5E3T9O/7GKn09xxgyx8tKkJH8MkW5DwjQ03USNlpe0v6FzvZN/QkJFy5PxYaAe4v8DpCJYEjen/3Q1O5nkd990rZYbLwvpmt8lXJj2W+huaLMa7puzBXjhl52jnBDyXvBUsP8nbRbha9m8o5NGB5wyWJZp6PfJzn6O68l4RF3sysPReuiyln2R7WSz+2enkmh9/8izL0eUPPBD9C+6X2W/HhlEbWPwR8F8cmiJ9KNg50j/gcyb/cTpV3abL+hPf2sD/DPeJsrzM+zX3svXGy87RvKyb2QSzlZ7HHgqw/KnPvSGh9FTb/AKITGmksJO4sv7GOlhZJlvfk0Pokr3OReHolmZ9laectmtZb7G08ab0a5vRarohCpnHgoy4f0YNOvrJhY7Kv800xpuXRPtIuze0ZXp5FnHInnL1wjLDWtIjWllkaTT1dle1j7Ga040Ki7LMVHXmmNKmJRfFP0ImlGqpfaKaZYtMqhNngTm8x4RVH5ZtVOQmditTSaRSp+RCDSdSZU2V+1HSSep5LaKsuST5EgUcyjeZwM0wq01+vYx/ae9Y8azeR4sbSPLdoZL9nhfsbN5wXaNZFc34zoquTBjfJey9BJvSbbErg2v62ymc9rieZ/kYuds6bwio3z3krWW2Wc5LdsoZedsT6yW7yW72XjdF03OlX+BPnS9F6LdP8FXJaWRm6xLWSzRW/8F65Gr2KPn17WmvJUJuxc7IuP2X9GVovey03p4MH8GXwZ1SP6GsYwVL0dTRe9sswitVTfJZoveWW8b6PR4KkillG/NP4YnuYQ3UoUzwx48ej7NlrjPwW+PBZfPJZKfRbrPs0Xo/kqf0f2Yy20kt3CGbrLpcFZ/SCtK10r/gYOn/1uFBf0lpfpMV4p6eDX5ZXuNqcfozUie1ef2hj2Ziv4ITbLWb/AJFgJPQbmAby4GqK2/sq/rQ8a5+PBvNyKQcMxViA/kRt7TWMbKfYjTS/Cr/g5GlixP8AdY06J4ap9JQpo+q1uer/ACNDtSvUTnCNgTzcSxvOCzymSVSuO+ium0TVGsqoSIe6drDN6zOzD2so2tkudpHnfZbeRiTDwX3ga14Zte0PO/qnrA2lMVvZI8ZMNzrQlGSwbW6a2SWO3GSXePQ1Xj+Rv6nJ/IiayRH4aEvg8PHmmud6MDgwyxrLQxrLLyw/Bah4Rfaf4Fd/6baVa14E7yRJt3hDvSNpiwSYdJ4EKkCsJKCsiF11ezBnDnsTpKrLSmRDGBtFIBM3EkkZ9LqXBoSb8YRbTZ6Ta/SI9XbWi6vjaJYv9hLFHb/yMRZfjFL+Rqde1Qv6KBZ2nX7Q/r61P+ykCebH7DB4HhN/0+ySZtZHXvj6RSDZbKhVBvhYe8vsS3BYX+jkqw0/yPyZejeb8Xrg3sl2/wBF6Mpx4RjGPRPrsp0XpGsrZeeS+abxx8V/krWEtmUkmWF1fi8LZ6wfR6IlnnwYkeEzHWRabyytb+iteSzWR4E95E1/k1p1XRXwjG+ReT+v2VlmH+SteR+XsvmDd2Vs8L7ZrTpn0y8GzHucH6b7LbB+di62/Jf+Z04Wl70Us3sxyehE7G1Vw/A3FQLTTaeUJLz7w3ZLs3/LFcTdJQ8Ec9YKdrybKW70e801hFebGH9GmCN24v8AsfNwKtLNObwWYT9CNxW3H0ZIlTZ4auPwVRBYQv4X9kAJtJJwbn16RzbcveWXRINLLa97vlDKDNKS03m/sfFlXGVz5Hk1Mq0SFI+xXKShUk9f90Q4KUtSOZV5NrOyAKjmk6YhNxzxwd8mL6/ZsePJa6zV9UaokmXnBup/kjmGTv8ARvC4J6PuH8HJrC/RrZZh86Oaydok6wTRPx3TnnwRukuUdciVxr+TOyNaQvHG4Q1ftJRnldOszAfYcXma/gwHt43WtTn6Ij7bjacm23wmL+xphtE2r+hNt09N2v2i8RPKTf0O1OksvFJfQl5UNcu/6EaHWVevsg0Hkv2LCT9H/RjRN4RV0V+9bk4IZmRCZfkXv2XQk6XPEStK+hxZ6q/omIFYirAlxJpPSShQPPIa6vBaWN5G39jtLqauPj8kfBozjJsQnMcF6wX6MbeDDyXVZeSl+ylKuC9FuXkr4LdF7RVhvg3rBnS5LxdFY21S/Yn9nrA3Nq9luxvv+TL4LPNLBZ3nJ6yWawX8ezW3ss0Rcfkq50Xv8s5xz2ZVv6KlyU2YfGtFTjE1edGVkw/M6L1ijaeJs2b9F/Rd+SGvJj/A3d6NTovWil0fsg3CHpqdbdOPiIetbtyfRZgZZnmUZq94vU1w+/oUzXLuR+aYNkicfD5QmmZSeV16G63MI21OCjuSpYq79CU+1fTZfyGni6NW59EWTx0I4GTY7wxntCdDT3rBQe281+OfslRRJSkt4cWE/wDAoe4jsylw/oT9Jw6M4xotPKcYTSz4NuDakniYGaZIRtL+BBuurHrkQVa0qX3Ees9Dxi2my/Ix1g5+Ui+uSmnFrspaz6KeVxzBFWQ15a0v0IxVlpTDXPo1puF/toxHlHj+KLJb4Vv/AAX2o4t/20VlIVtKdSWRDSO4FLHhww3vpEb19iKz3htP0QF1a9RwU+gbJIXoqqNyRIuTUD1LEeynUrQK4yKWRaRG3lvCEdK1Lkr/ACYe1/s1v83Jhzb9GHwelPY7c8ciOE4NQ9lXLPWyi3qv+REnl4Wxs4W3jWCJKB7c3se8pS7G28ktdIWo3mEKygsQpHkkvW8Dc2KfONexwTZvScFh23iqFyabX2nyzMUFfst+idYLxyf0YLK1sUu+TgyOGzb/ACJXf4GuhPh78In0d8nos9lR5RefAnzDfOi+BP8AJZ9mCk5fRJH2W80r6wXlY/ojXOyzf4LDrRSwiWeyeT+xtbLPJZrP2W8x+iNZuGXGXPottLd/ov1DvkrkWfsv0V8ZE7rKZvCReSYUz46I1jj+DvOHsw+Y+TD8/UM6MPWzRe/0N9LXZ6N8/svZ5TiLJS7ql0Y1ki7K0/XxjlF7Jc8luzwvyxvXdN56PWi9F6yY4ZZBFV409CRb/wCF8JytTyVHWusjiwuqNo3cnADJLt7YrAQXmPj6NNpclS3hmcF4bwyZ21J9v/ResNd9yseZMG9lhtkNLnKZXHXThXlCJBi3kif3j2KWty6Zfk8sWytUlaT3r/JlnaZf1ownV9LL/RXlN0TlTUPaecGPpSSx+CbLTMc4HrpWJ9Exe+puE6seiGa14/0b7jppZ/SMGdmT/I9RZ71j+TCG+nf+hxk21hUj0zgr9idcbiFpt68FfpqKRXCngtrY4d0Z8DaVLl4bQSV1MKG39bJdaTaw1XqfkdDeQq9rHrgxwXCdxjaAessrgg0jfEjhXso92bS6nRL4txtIWvLRSpu5gafoa3EOrgxtu9EtmO0VrDV8EmEojD3+DSJdCV+iltuzFJhu48iAsHn2IHaz02ROSk6qyC8yaSy3nY1kbUy5j7MmJKrNITaxK6Rgdtu1Gy49CYRCJL0ZqpuLjkdqBaj3IYZHcbaGWVNqGoXW7F5Kqr8kWTC8Q3xWucCeSUklVY/AlTdfvBP0W6waNb5Lm0bRvWjHDPJeEVrRelkb5ePBZss9FusDfWfQs1z0V/Y3yPG/2X6KufyXxJ+y9OlkwWdZLvJGtF5Tv0XjZU9sedYGvaFS2iGsGeUU3rH0fZWlH9ic0SfZZvHRqpcFm3ZovnBd173ROzB9fY3M8eC8bfkvnLLjyjWHsveEXvZbxD75JfJe9F4u/wBfH8jc0Zey0pH6RpwvP8FRlmy/ZJ/sdLIrYkdEuYtDkKQJpqNTEPujG1w/8FUFWeVzRHbiXGX8m9hnS209wVs/bThVccMXwtAu12IDw9qOco3roVlyGPC/9EWliK+Mlb2i3L0P3+By5cSQnjGi1vlYK8ZZW/ouN0SmNdDiymaU/RLOCvwVPnW6btNy/BPOGNdPOCyNXyb+mW+y3O2eHj+iNrH2MucUek/QVo28+F5MY+9ijbyvMI1laoh/Tcl5bEgWVW0ejIiuHWfWhXTIjnDXUGpo34AwICRtzxyhQT2om374EjbzuLU9E4ZIjwUtZCdT40jvTuP9E209cmXlZJl5RL5glFn6Na3/AAJXbpF27bP/AEiijQxTn17Y8TzSTr7o2ky80TY/BRHG5bS/UMjoxNz+iNG/b/yPPLtc1/2QafXlV/ZVV/OB/LE+O0ifw0YKh8tDcl+QqhWNNrpf4EdE0wX0u/BfwkJ5R4aX80RlTx+lRfCz4p/YzOrcE3+FRaPLMu+KxmDCJ3GjDk+i8Mxwe8EY6vJZOL2W6L9GtvZbpl+hPvfZZvXBUtr6RWyGiNU9Dcw8FpUv9GeXF0ZSd+mXtlxjJfOWe+Btdwb7yY51wWGMZz0Np+yp5eUN8J4N7qXXZhWuFusM1lmXrBWqxNua9lyVr0Yz2e1T9ESaf4F4ZZM7N5/shbX0fmF/CG/2e80a8019lvJd00cFvJT2a/supxstv6Lb38U/s0e+Bs5EnWE1fbghqWM5N6FteZfodtnpP0UVzRWszX2XsxwYecZ3+hNMinHoTpAiOeOqZ51wTyLMzR/Gxm7M/Z7GrmkfCLH7LXnBtDzMTwRvXB/PZrQncP4qf0S6/JqtY7FjWfLEkLDdflMTsV5+mUztaarjyacqOqNtWJxtzBygVqDc9TsfYtpVRItOcCUq6ZRWUnobSpLHKH958rRbSfDHbaZJ2XWsFwkyK3E8jk8djam4nnCIhdO+PpjonWCW155Obp+NMfl5Jzst1idmeeDcqV5SJ1ijdy8GOov4PRE1nZM+xKN3fhlyn30UCY9Fd9b/AIEZ3vDcJeWsL0vyJ69WEsG691ie+GaeNl29v2ZW1CzWfZORvUeSYeR3Vnos2yzNpSc/BW8PLMokNrwVksPHJZ5f6LMPLEj8NFu/4E7YpmCfnJF3GW73wN9n39E2S90qeZOi9EX1yJ36LNfkv2VvLJ06VdnlY8EiVwXm45L19H3novQ8c+p8LLNFWboTS1hFmdUq5ZL7NvP+jfm7JPX5MLQ3u4HFyi3T+jL3wWbz/aI/Bf5L08la1vyW+WPld8lsSJufXkuX2N53gs1+S3+kO+y6hd/9Sv6fBlveDu8mXwWaI+Wf0Xr9D6KTkvDx0NpeTwY4N06KUv2ey8QSGvoC+v8AQ2AoFW79la0zDcy+OWa2NtSfon63L+S211l4lhW9ifM9CPgV/lCXL0LHhcsn0NXX8k22vcP2uDOU8UhpLnySqHvlcGt5E7vRngkzqbR7xeySMbabaeKZ0xumuGyVeeWKZNp5WprkaNKrS0lPOi0+VtKzb8KlTBaVP+SBklppKXeKJo9cN2f0WmmXKt/0kPtZhImv0xLi9ttxpvbwkSvIBPy/8Gfhabt5X6GMm9LU4MvT0SePolrSiI/onCxSd/ZJgjcmBpP3SWz/AMPC+ynvPoYrrk23hQZN5fnV96/FJBkvKyk/y/0jBHzcu9/0Nt65O5mCV+/JUsNfJd5l04LGGZe/yfteC5i43ktKlvRFiO0s3XRKcEbfXRhU9jzt09DWc/ov+sEj7MtFzFhknsw80t5wXZcHdy2aLd4+hcpul61wNTevBE88dFuZyQrWNapvlCc3xwXrfk6ZGpM0z/gnTL9r0Z7vov2a0JMtvME7vZy7lcFnOfjZjjB3MDb4TnlmPyYULL7MyvH9sbzeOitWZPD1zCt+l4LdYhXjPsszwW1pztIt8Fx/1KpjL5Rlb0WuUyX8eSp8VosxMm4e9wdcu1oXfRfo1Uj+fjPPZU8ckS8M9susm9aKlrZezyXo1r4viF6F4etiV5w1drItj9+JN4pPsTPal/RH1hckfWWUykU9K+iNLWSltYfJXK1+xqdaiZCbNctLnPEfYjEnhrafK8NdH3bwxG8LJlAOGH+BmyLK18ujgGufsd1wb2yOYdLwj3+TTyVJ410yzFhbvZYb41oaPOU1ldoYqsUwaT85Wxudap03+S2pbqp/mjcv2jS+jhu6F/QxaVVEm0lZ+RGrdd/uZ/Y374K92jzvE/JbmRoa67PC5J3tGHPox6JLz74Ny68GyOY0TTTvaLvFdFkWipa/Y3JL3wP27oyq9N/4KGb9YHPX+SafnK7+T19DW8s+Ct8yeDLxroqWHhksvBZxG9Ulwlf6LfoccmuTTwjKynaWbPD7Guv0V8izX/ZoTquj3rwW7xOUWZeTFzpmsDTPHIkenccESkxdkXD1yJ9iSX/hUvfA2hOPGfDG76Q2sUWN5KVre1or4h7/AEWrK+yp4RPzyXzBiVxos5v8icWHhrResDaX+S0vnI3NL2W7w/BC+ypb5WDWLR1Y64K1ks2tLuPPJuXrAncPCW2Yzyi9JuckI9Fe061sbiw6WZaVZcZf4FjHPNLH9F630UktdpeL9EXP0W6Hiwt4iM90r29F6L1jwV/kmrtGv6JeNDdZfJTe/hDdK8Qq4KYi/s37NidJtVmqqX0Xld5lPyKrU3iX9G3dxUp/BWn49p/gQ2HbRX+KXVe7P/JkGXkxtJMT3d/UIPPSdf8AksTwtXf5puBb5N/pRDNLDaKk5UbafpjLoz6ir5F147WDCFFW4aZMEWm44uKbfbTuW++h70bzrrxfBw3mrpt6+j93o8l+odRln3wSYsXCN5eURPa/ybw//BtLzCWTB4NYSjK+/ZS3f2a5wQa7WrvKEfhhRfRLnROVhPZE3nL7FmzB70Wckmn+tm/E2T8eCcNmevwyEa272yZc5RcZ0Jm4nfA2LJ1rNnrryZSJltuH8v1hEgtptFZ/19DG63byVrwPOv8Aws4wZdjE+t+SvnFJUqrBV5lRUtYLcWk5SaLLEY5cNYePPY1qT/RvWUi8lmVn7G7vZr7Lz+jXFXgbmMkPtz4K7j+MGHpRorNfFWa76McuCe84f6LBpp5UXZW/Psavsq44JjLvlEnBGvvssb/6mU+l5K3sNLKaqLnKq/kszKb8ey9op2fsr/Hgr2vsqZVc94Z27srXrs4cDe+aXzYN98dFe/4N3/JaVK5pvf8A4cZyWTMfg278ovHPOTWGNHh+xvzTRXxk6nQ3MNz3ya1SrN5Gui+RvplPbhmZaL4ha8F7Ld6Lfo5Rfos2dZP+hlw9l8ESOzLuS8Na5RYXJa05SmuyvoTmsF4Q3nBWvMLqF/LMv6LZwV9w1vPogFrTemZsTjW3f/ZXO0Oo5FXDH16RGN64MCCrLV/L19CGh1zL/vZGC6VMZeJH+SYOJDpleVya2Rvf7OjCK+S4eRaOHwi3F0WLneC1OIv5Wy0WfXQlu8O3lVha00WYR1wYxX7+L4P2U8cl2teBNNtI8aLOKankl1h+BgRvLz8LbEZSZREvOcL7z4ESnzXbZ6e/serfpcIbul/sqeJZ0WpzBEuc+RO/Ynlp/lC8qdn7X8GEa/kn+8lvA+Cwry1s2srRWtNfksiOVS3LxejU/XkjMy4J1YxPJV1ovX2bytDc5hW+cFunBNvH8NnjLYm64a7LNozWJ+S9ZG084eBFY6603TWRJutGW849kS1oTkn7K3ja8GFs35NaReW89GeRx4cHlOlfOkNXnWsmtPZX7ZUvBdTJWsv7LcrJbvLWmXjVKl5O0pZ/2iu9Y0VzKz1TtpYRe8lS5sLdciJySZyqWpzrJbLpcFfODDkK9p89/GRdmy5htZyuDWd+yvN/Jz4J9FWbg0Wm/B+z1sr1se8GvRddj9FSKWF1S/oum8X4/wCZxjJ9ezcNVZK3li5SZ22dJ5Gp/oiZcNM86Fl+C9Jr0dUhHwWJ1UXsGM/ldezFI2TNfx75Nk5lWW5Q7VLpYjEiMYQ3nnH9mzG8xcr/AEJBiyXb8kmXi8oavOi/kuVcUeG7+DHP0JPjPgXPPRhayoejK/s8pT+zhsmFB51lknMv89X+jgohPTVI3r/BbnIiWs/0Xt/Ql1rsd6uc+hrO9kjS4RP32a3hlzGqU0UXmsXfoWRumzlePKaX2xBqWHY+Kv4QrobSUl+CLOS9ExW/wX/04Lxr+yJYeL0VrWTy17Rlra4N+2dJYJZPs1vfZJMlWXf0N1dnBqDiw8U6zSJWs9F1x5Kl5+jbq52Vf6ZXZMeC8tTrsp7XpF7Ua8ijyVjN7MvTiM8fdG+8l4tFna9LStThLxst1sjq66JysXZm/wBl3iX8Cml1onmIkdvo2ralyJquZFmsKlSX9Cm9oniHsl28TDWyd6WvJU7ForU5miqppZ8Gf8Df0WYWfJVyiFrfI1069j35GlU1pDZ7Knzk8NQ1l4LM/wBDfTvst2eszyW2jLMK8zYm1MryiLIk3bmWVreTVGcIW86P0y/+n4Nb5MF2izRbkrco9PlrgsyWm877Ld4hbrgeDCJh+S9L2WayW6JfYnuLJTszNo34M5X5PPWxZq7MrzDeBYLzss073C7SJMkXr+h9ma8ifXJUEXjFVOmi2m/V/wDOmsoTMiS5r/3KGYWMJV78kIMTbaRrwJshOxU9VCZ2EqwP3n+iEr/wwNePvoUWV+Sy41yYWzU58jaXg3+Dy3oUdizS9DxlyuBL7MC7xfsc9Zg/pT+hvaTLdiylMNjUTPA3OS95Gryet3BkWEWW3Mex04jh36uv2fpoDntqfhMoOsu3n/L+/wADKrVYQkvwjw8Ulwi9qifCz0jftaIn/o9a5K1j8Em3OsG8WvwV5qqJZwZWtE5WH6pM6qfQ0nxvXZHmOE0mpbvfRLKtETlyn50Tz6K3ot3+SNYn7HnMN6KLN+dCH4fobkX9G6n+hOMOi5l14KuCzgt1n3g5dWxvjf2eOUZWE8+RvnT5L5/KMsdaK3jVMP6LHlf7NPLn7HjWH0b24Y5XpF44OF+BjjDEktu9Is2/Y39+ipLOJoyngWfsbb2/wx4XZjZZ7RPGGR/5o5xj0X7MtoVzfoc/8KnINW1le9FmkNpf5LwseTXk2294x2c9Nlmf5Lc7LM6hfE9ZLM/0d5/BXimXYXB9v42Xjgk8D8G9H7ZFyVI2TvRhpX4qf2XjslZq5K+ssvWD+ORtp1aHnHeh7x/6aar2aZa9EuNkdxgUe3DKz+jHBHnJJsjXP0LzTiXQxehMvtMi/qn40x4sDTFFG50/H4I1it+xdoznmaf9+BgfIVSPjmDXkO5F+STGi9Y7NKpT+D+yrjgx9Ml/GBO+jT9s3YTpb4I39bE/3oe2f/qQyybG/lmS5M4Hxdl+iSNZvA0i+xPe7aUVGyKiv+X/ANka7qLOOosL26yO+nN37wvoa1h44K91YpJxCauyfpijs2t+CLc+yvj9ot3j0sEvO2R5q+JN6LtrROZbvJmRYIWdYZrfJIsvCLcW/wAlthe8CXPRJlFT1yZytLwWaKl1fZ1i/ZI/D4MY5N4Sz5I34OyLyLCfP2POWS5Svgqbx12TGFks2WbzOeRtSixvn7G091vhwt049luF/A/GP7N8y7MvReNGEvWjBZVfY49KFulGY4pVysl6yZWdobWWyrbeuCvjRoy7gq6LfFGphfZuNPexrZakksL/AKm+jLe35Ncj859Ge6l5LunnXmFUyP3H40XyVrYndO+yzXfJbrkxvQuy5z81PKwU5yUvGvJ6JdfGzD/2XdKmKtvxotzst4Lw/oWLz8NzXRvfBPGOz+ezDN6x4MIeWVZHV4hz0/5H7/BbF+zKweOaLlc8HoT7WOzucEZU9b5KnrN+Ce1iorNmqnMeG/4fAiSqaGuql32Q8N7G2+El75EObuhf3/BRBjWTTd3eOCb0p7OZLymo129kmHjsk2Ov8Z+J0e1X4N5eIW3k2vK65JXj8kbz1syHaf8Auf2JY6/sH0JPj9DWlBqqVvWS+nmVSbN8S8dmtMywiK+1TNtn/Kf2zIZs4E36X+SpN3BX7GbeMNdlTqdqLxMnrPS7J2i36fI6rBLNe4bxss+iVxci72RvwPPMmjenX6NaXvBE5NPQie4yXzTm/oa734LjK1o3pmrOeyWc57LLitjnCkMvRlbejy50V64coaSO/s3I88kwb1hGHlujfKw0zc7JN79m9o3U32yNPDz5J2ozGn7GvZ4br8ETzqFrVd6LnDrNp54NzjyN3FpXp/gxpuQmqkz7Rl60VMqnT4K1Z+xPOVPJ4euxntKotSGV/wCmF4hr0y30JrnHWTP+Bu4bJE2iW38ntfox2eU8fybeei7hI8ezFN2ryXVyc15eOR1yr0NteGPKzuccibSzh9DdG5pX0cscG7fopnXw12X7Z6Ol+zG2aG09v0NSTRdIuqNzGm9GXUto+oje8G9Fudsp55GvrGjrgXcvZlziFpmvMJzb0Zwt4N72dZ+ibhreSUS/0XyJWuxC/kjTdyeUVPLwYXtiZqnBybjZJqv5c45WBpipsSJ/ngjfCdWxjXAwLzljx5ml+RNh5sUUbquiJWFqSm3PKwQUuuHS7f5JfP8AJW8EbKzEJ1S/gTcJNnMlFzwNXZW00q+qYBsj5X9CHi92fzBevY09e4k2SXEu0XvkSuVuz/20f5Cn7bHitm1j6hCfNGlVuZ3eR6KG3jd2eW1BixxeoNd5T7LVSJ6GWuCjml8e+qTYyxmtLLEnpnog3XcKMqr6bMECNZYnV36+oQJTvKfK9oTunJ2jmIs2qJ04WYZFhr7IlrJ5/k/Cm9PDI05MexuYUfbIlhOnoalj2NL7NZWUtjaxi/Rb4ZFu+zHF+ib7Ikv5MOL2NpyZGunKXsk2SMKCe03XwSeHeDz3x8Nt74PKYnN5vJI8KlWG0Tpkm/5NbyyvhXyW64JF1eGeDeVrkbiT2VMlUXBes9jd3ssLwudGt5nBktDc0a1oT3SzjBbZrnBWtm3v8FzDReXjqFfWDPeuDe8kuFmFWm6yTZvHXxeGbwNydIt/9K8rXllb051Rvf8A0GsmCbo86yUpe/obfCL2LSfkylWN66N6ZrGvh+4y6L+kb4KtHfT/AEVfo1IxNPf6G47tdFqqdf8ABn2HjWB4z+fhPvJq+TWVm9FaqWxOJQanGCLh734JMG1jKF5hOxeNdGudFTUtZe8Fmsro34GIa2ivuw2lHhvGr+nGTgMj08vL0IjlaKcuYWx7PWim83dLyeaWFlf2KWatLJJO68tjsaJctn/COQbr/wASouaUH+GzOJl/1s1P+X7EmzFTq2k7+IL6fsJc5bjzg/RG/wADpW53/ZM1NW/5Eh6xC/gtU2zdlz2eWS6aeicNMmNaaMz0v/TjIlS6o210BghZnH+xBkpw8LDf0se2yHRETdaiId28S1lz3/QxlW6etlyWknt1OiKHANNVSZTFsn594r7x+BGmzR+n0Sy5N+ezDz+if+GVzTXGyHV/Q09rC7E+Fh+WceezW/5Jy1vyYnllmvpMw7VCpKcC/wCM8fgvbhVf4HBKdpXBhk6l3yROtO+DgUTqyujL0x7Jy09DeJ0WcmXmy6I+eRZxceFkl9Ebq/sqbi2jFV47J1nrJObld8EuGJsZ12NKZw+xLLkxnnsbMSwiW8ezCYpc+yraWeRO8bMalY/JlFm9sr3PcMrTvZsa50yTLRW8bnJhZb/BftDUcT/JFw8jWKsPwRMorsw/J9+i8PJ/6vxbvH9jbz0Y43yIk08rtMsqbj4JnezRGOrLyizWTGXo/wCpUtnvR0E4uzCtf54JNFsu2KJ4y2WbWfBr6LdcbK3/AIJPFODt8GNSPn4TXdfkba0YfGjQp+DKOmti2pr0evo3vbI1p/k7izwSS8jViQnFvItVlXP0f3yaysdm8pxCXM/BXFFDNtppvKl8D0n9qq45j86EqOnptNcYMn7M/kIYSusf8GOJFwlRJJLBfRTGhb8TgTvWPJbrgQwwkxv0hW0XWe3yMZmkb5+jfJPtEe+OiVdEwiLbXseKLCX+GMEt+veTTQiaRcjVNpk8I8r7aS+hTuMk5cy/t5N5LSZ+G8jtrDZpOH52bTOO4rWP5FbYtN1+RJmVakpPIopte6iiab+sDZ7i/JvyjKwytPwRr0xqZSDTe83oWKsirvjsjfH+xp4uMGdN4fI1NMk0/Zjr3kkyntYLObeyzePaI6b/AARcv9jy1yb3jwYXFLdZ6PqFyip74fBvKwO7mPB1SvmlmGoyt/8AaHVrI236Wzy/jZbmw86pG9OM3av0JT7N83wN5Yz4Pebs1FxRznCL5Srwbw8NET1+Su40ak4OsmL1TVjn0ZWdUd0iPCX75KuSdvC0YWXjHZjep+yJ2YJq5Nax5OPonaMbXA3tvHsbq/saKJ2kvgq44/ZblfY50c1mtFk2s74hZhZvY2uFfBe8F6eDK2rSZ89M5zllRetH8GVhot2xt8aKmnyiVdDc2NvayWxNnpZPRZhmtGWExOYY8TkvNL2TTReLYVRNvJb7M84N7q+hbXAmcHq06jMOVYGmt4cEmtFn9EfL+yR1CT/Il1wT6E08TXYll09fj4zn9l4CJv8AQiebJPw2xEpF2mKpr0JqyW5k8v2a+yfo5Se4W4kZNGPyI2iKYy+PCX2oIQbWkvbn8GVp7I3kn5Mux6NvB9yG85dOlSlNxzfhiv8AlM+0YeE40hqemN4wQBdi5am4/wBD4uVWuU8m4lTc4bUV+/4Ij+eVpyKzX8maE+Zq6X10YZlqGVvm86G+1aaWsdjekPblb+9iFip4vBL5L2tFuHszw57G401sauU5kjq/o1OfZ3V/JJn+iXx5K1vI1N4f8mMT9mGYSr3olnDJ3mcie+T7hVlrJ6cN7x6JnqaE45oTmG55PTi/A03vJProl2RaWEW4mjL08m7fwRvks3sqW3HdCXLdGmMlmsncz7MvHI/E9GXGl6MdYJNP2Zf4LETzlGzeN5FEl0OLDN7NXJlTNJPJuPbZUkVvfJ3oq1s15IuNES2Y0tMqWdotbqLqOsvis05PqifEwNWTjZ/DZbldYwbzzyXh7EPLqrDThW4e3orc5E6wzZZTPLpWpOex5eckf3yYU0dNaez/ACYcpr+jUw2xPansheuDivHlmje+T29aMs38EWrUuS3ReWvo4yTvPgjzdcGeFk28Fa0TZ70V4j2ToypcRfDXCN+DWsEsSzeRpuqqnvBuzaPCn+SbPP7JAq2OekUoS26OMm4nwTr/ANLgLTOv8bFTVsNO4E/MwGzOJOUsZEqnhLQ2aL0W+leB8VB1tY27LzBEp6e9XexDd5p+i/72MQ7VNVWVdizx6GS2/o27+CWPUJV32RrSjLe1RtGolk/Im9RQVeEYxENTJJL6z+jH2WNPmM/sflY3nlt6z0K5vc9bf0YA7hlWl7G3tzyM2lc0HkMRZ+Cp472iJa+keXjsz76Mqvh7H0sfR7Wf0XC8lu8G5kl03g+4b24Jc0aSnk8LB9Hh/kaybjU4KuoYe16MorSyqVPWBubzejuFjvZbrZenuFbtwl0VLJU9ZLMLH2OYaeEVcFWm8HJ1H/sia3CRb+mjlvXoeirSv4LMLkbS4p6Q+G8LwWbE22mXwZfI9YzC9Yf9lS3y+i74NfZh504Px5I+MfZJ9keblEmxZ0irP+BVlXBvxCp4WD+ybT+hBDyXpGrRY0vWTLLyWYZOloys8fmm8suCuiW8TSZLZib5Fn/qaysvkY3iL7N864Kr/gsf9FpMYeC9P9CS0nCb5NLGWd0eEqbMLy+oe1BfjqEu/sl8+yzS9nr6NJf4LivkrRPNNXmc9GvJM1mtZJUyXF+xInevhWsM3xomM94Kd6GKBKzSxvWOxOS7ObSun4fo2TwTdfs9ueRmpq1/AOxc6k/Dor2cRpOx9eCXKdQjxFrs1MRl1fx+xgwLDLlopjaK1U5KJJGtJY+xm9mRGuDM6GWJWWVq6gz4+tKvWkYRGtVF/ZBKTcv+C437I/oz6R1EV/LOVY/X+RXZe0S/VHhGfPcXtxFhM8ftJUYGUsu8OlEmL9jZKr1nK1RGvXJMQWsJIl9Fx/BPydLg1wM5a5Ljhb/TMuaXfDkn0zntEIlrfk1jWDPOWNLDT+xGub6J5I9L+StYShPJNsq8pkTtx9keCd4onLHclTrWvZas8FmVhHpF7xO0XrBtMqdbt7Ljv6G7OPTNcFev7L9FmKN7mCv1B2Kx9Fbyv2VOwxzIeiJVLRFq30NzeWRcGFhqUvBZxBZx+hp/g3rgfawZfsr0lDup46ZObPos3lCUVMvLUPeSX4y/6ySLOWjeU8HhP9E7ZY9Lv9sl28onBrEokj4LWuHA3WRubwXGeS36Io8/gZPW+RkwjPTyiWPXZcPz2TUHRLLKj4Em/wBE85fSKuHr9meTWOyZyN8CT4ySw1X5MKFL1vnwar5gmfh8FluGa3yaw47Gu3STSjKZ5MpDndS2Z4LhUiK+ETOMHjULODbtkNbU89izM/k8DV0z3s47fRasa4I09EQ881KTq7TEr28yycfS/kbRYXRMEkn0cetjGwvQuezZE0m13pEc+USm9QdHDCVv8mzi3Lf9DUaXe2X9DMR6Z3/QgqLtv9iGcIqVfsyCnwb/AGcIzzHJH8umcvqpGRsN7SdfpJC20PbSb+zU9Kf9s3UcyJfwKI2u26/ghxldz/sVkgvR/wAjZSlh0V7zBkFSyY6etOD7hty6WDdy/hO7MH6yWcY7G++DDy8lmGqJ1PNT2hvmdtGdjfA30r2cPMq/BU16+y3TtNPCjLq5Z+v6I+6bOMmXvRvbIsrwLGU+eTlV3+h51+zelrZU8NRnXS4ET0Uot+TDwVNVF6RX+Ctzl8YLVjIlq/RIyyp4Oq5CtibW0Zz/AGYaXHB25H0zC0Jzf0TWfwWLol28laahh8exNTvozinOOTfH2SYNeuDO2oQtFb5J9eISzgSfDNSvP8kzU/plNrj0S2rX7E5rPZdcLgkzl/As6ySyqfZ/RYs5beCSZEbxqE6XGyT/AANaJcCXKRrRemSY2RvWH4K2oiaLa4Z/nJWn4mDjGO0N6S1sT53/AET9EqizC9rJr6ZOycaph56M8aHh+zfGWySx77L3mEyohLwTvNJ9psnH8cG+Kb0WRc8G9K3fklyvwb4wR5wR8E57I1rN4MPZPpEtjsG2xJrL0TG/SRCWQy3iFPu0Ux/Y05r4kbev7NCcYnl0JZ75mWVXfYq6htZj6nDJ2hakr6OYXSav1x9kTRzm9f8AK/7Y7LsXIft3j6Mk5jy2+BJrd5g/PEzb/bHkubz/AMl/DzX+RWtD0ZvTXSf4K0sdTEK27eeWVujekTm6Lpmc5Rl7c+i94IPGndbGarLY3dv+m76bINPr0RHhGt58k6Mb2yRZZL5m0VrZrEwYWVhFmVmjchqVb8nhZE26lx2bs4/Qq/rY0T4I1vkb/wCRLpx+SN+12e80ST0/apZhL0SXRHxxwTTX6MdZ5RY8n9mFrT5G5rN4L3hluSrhEsqbXVE1xhntZ8FfLv0c8/ZabGrtZ4K/bSLnOMFmnLwXdwb5povInMNW8kz/ANg/kTcKnsw8p+BN96MPO8nf8DUqWP4J39Qte77Ldr8G+NFjjVRY6s/WRp44eTBlcSmVhY8QnjRFHMPtlcyxNcZfSHnNytDaePg81PENLP6K3hPWoXvELG+VxgqW1ejUT0ZeFilbecnKX/p210VrOb9TBfHokkVTJeJCt+Cd76HOP0VxcGc8ejK9kx4Pv2WtZns1bpdH9njvReForLG1xzjZVmKGV5J1hw0lXKXnVKkYazyW7wzehOZfoX6LM7Hv46/Y+C3XAq5jfgwq2SGW3FBJWF5Vpff+BoKabLlMY5Ru8eWhrbcqjWnnsbmYz7f+0RtyXPAlJPYTuYORyyteYv4Kcz8j/OGK1wdWnlpVYRyrc2S6u/4FSW22u95GmXninl/oqCE0nWUuqVv/AGaL41yV1Cd2jKmTW8nZrRvyeOWfsx0RcExk39fGNrXdjDj7WBrGSLGG0sJz6j8mVh7RO8jzvBoqNlnlm88n4HxD9Uy/KKYXFKszB9nZFw96K1tbE6sYfRtK4fhla299lhZ/pCaebv8ARekbJmtNkdx1+i/k0XN44/Z/5z/JBx0XgJ3R4t/gpSi7X/Rlz7qEup0mZe9DWnf9lddIlvJvYvBZss80q5wXr8FSsxknnXNKntF2qVZpnGn7KnxGjcjx0XMLedES5l/B1cFlmZ2N1RYaG7vfdLNum4LEG7l8Dd08djWmsm9iXfBlaUXPZdVYfRXraGliZhelvnoj4dXR40Y79k6xdDSdz7LpJv7RLCTDw/A6tFW0RXHJvD2NvjHg17It1x3wNcordeyT2+DjU7KK9tVMabsdq6OOzW+BuV+EXTWKT/005Nmr5LwxK62xehN8ollxkfjK4IsL85GpElvkmJ+zrs6TG9OGHx9mHeUiXPDO5x4Jc/wTvOCvUpvkmqp2Thsqc4a46+IEVSLpkbdFM+GuUWiB7UlZu7Ge7Ksfi4ETnBl6ujgI6US4UNQqJyuEvt/oa8xGiYl5FMkg9wogtEiu71x9iwYTyde+Po2Cew79jHm3s3lfZJyYGp/omueheviEka0f0fwXh8nj9kfA6sbJrBO18f8ARfEvEYnEaZQi4Obv8pfleSVGpi6fBIb/ACZWExZ2h+NjyscFEglvAqMws7yTdJsRptPaEe59TfOyr7Juq2tP2ShB1vCSGz5UeiPh6JXDVf5GmsP+B8m1eERqDW2GjG99U87FPdOM4E0pXn+TmTQtT9jr9V0MrTBylsV52EtrAXnBxk+1Sid6mHIlpDjlK6vRkazFTSTZhay+jI6LPgbzENwpbvJbx9DTWE/B7VJv+TvmFmzD3+jK5qRqTCKuUVOTJe8r9n6ouvJq98mDzyWXEpbHNDc1yXr7JdKfZW94+hq7wvAlfRnlaJUn+ISLJvDx6I14DapOf7Ea0q+XSaRJpZ7o86yuxrh+B48U7xTPOUSLLqRvW+qJPJhv9Hp68CmY6losYcfkwjWGe3odnUG3FSpJMiX8ZE9+CrKWv5GrH+j9safetmWV1szy/Qp1ocf52Xa234NFMTZv70Ll6L2W4MNR5hhY0dwzpZJdfeBO0oRHEH02qIpWDOXCG3FMn4cMjcpO89n16ZblL7EtlV/cinuFv9f6Mociue9/oRMoJu2T2qZhFVd/4EuXipGsPaV/aE9SG7tP/wBwN6Xwm8v62xPAsOOPcRhc7kl7fBTB4Jf7JMdlmvulXCPB+ifpF467PWPBIfdXBvNp4eYez3oSXByZVRb6RvbEu9kzgl29ETJb6/CfIkcmZGK3hXz+n7HOTUnBveEfdNO/wSWf+j9iJ5Gx0pRExJ3/ALoZZamONJNdEtX88mNh2M4iGmmNMckR2qf8+hPui/I1GmljkRRbdJtK8ZWighej6Xv2hozW7onyM3ejDwlBYqRLv7JfvQxMpw3MI0lcwk8tlXeSk/8AD3ryVp4eTJq8nFFfkb3in/NGUsa8lvjvyb8Uz2Z/Pk1tUu0v/D/sEmmXVdPRbseNMvefRHwThswuMsnePJ/2SNZ8lEreTe/oveCwvWP7MYi+zC3yVrX4Zut5bLd6NIp5e/5FVrSL9GX47hT8dEuXxomN7Rhf5K+2nI+Evx8JJ+OiNvKngmY3jgiy09cFuGRHMjJYZbrPRpu5a58km1X0x3JKM1Of7Jzs/XaY+yy8YJvVK3BejC2p0XG9Fm3l6LIeX4F15rKTjvs1I3ar+EQa15v5RzRcNE/2Y5yulv8ARbirli4EWrUS7ZPLWn4YJYeDmRtHH4RjDJ6t/ZsS8KDqp41t/wBEOl6bdftmTZNrj9IVTzWnx92lfURONdbOzXS0kuS3eTeR55/RO8f2RMzJ2jN3webn/l/A9CeGZfjGREWY1FJRLkc1doZ9tI8KYufwWTLXffmEuBEo2WNpP0yxJEkmklEitJq4YkswXNJp6fJzjka76EmzPKhNtbRWt5PWjeGS3g0Tn+Pj8D/6CVnBHimEZ0/j3siNcykyJoXR7TW1fP8AMHYo7sNViz9Pz7NeUStrs0TPg9G/AjNqeVp/kV36eRznt6GJJLl/CGyl1Gm1C1laIUUyit/pbJ1fO+X5YlbmWRPKdfMYlc62R6I0itP/ANHI19dc8X/oYh5LDTTqHHvPohLejbTY7aeYm/oTnTLWoa3lEJdPKLeKWSjROTLYjG6Lq4fZJlfyb/0W4WWfUfQ+Et9P4leDY6Zezf0OrSN++zwiyZFneSwtvRnPPaPscxUYUj0bS5Mrz4Ynxos4v0Vei3ZveIWRpY90tevZ5FvicMp4hnTyVvnngj0zaRN0mcqr2aw8P9E65I3vHZCmKnyTcZheSW9sqW3s3t1eipKSr2b+uTdjX5E5KsjOrDurkT7Uo3d6XReHrhDxl46K0kmWyb5HxnROHBMq8fsmi0OcTjTx/RDicnaq3kUz6dTlPvjsa7p2i+rSbf8Akj1eKMi8e0jf8s/sykJO2P0/wKv8NxRnU0u7/kIkld4VFS0r6KbcfsvnJUv9GMvCb+Bm3tbv8s1o3rZuYsNb/An3sYVVq7EQjW1ZSm26yNYFaXX+sL7Mmb+TrL3/AILQcz6m/suJgksLUM75ZrR4R/0G+8Q2sLI32sj88cEWMGi30b2Tpz4nGiU0b0SE2RaT+PZlcElT3wSZJ+SZJx3+itaIZNCsL3OcYf0x8uWOXmX+CTg15N5X2b42Qu9iW7wNmtFeaq/ApFJoyq6xstSiLLy0NlXvI7Bn1VMjh3ofAgHTePLsfsieP6NIyWeLgd2twtXsiOelaaOrgiuP2YvkypxNNIRt7N7zC8JRImc6Hq9vCp+CSXk8fkaIkxrfaNT8lsMZxnkr+lwV/wCC8Qv59l4/ks1wbXdLC0r9EfZupv7RJvJLsls2iTwjWdGPQ10jriFr7KlyVLKfJXzCpclxqESXKznNR/yM4a/JXtr7LdIWbStbyb9Iu2l+OTbxlezWd3gphYS8FYlWc9cCP7EvsTy01RI3lyESeDWjaykuzWlP7FU4lfLEknGmjn14I30Xsa5XO/JGVqUlrWHwQvro3Z9IvI1TG3gbk4ZZmy9FfGUJ85HbvMm4OdcJNF9idyvs1zUydcCTby8dlcLqO90qe9/obseuy5zrjyTl4Qk+c9Hfk0Ze8HpCSeQ2C7G7+TPREvro/WTLH7Qmfoc0Wu7PvSIPoAV73/A0T+/GMbLMyv6Poic4LeMGULktl/ZnnHgiPLN6yi98mcGscmUNEmhKZzk85I3pm/ZrfzE6b2SQVW0PE6ZCEHZsprKemhsoa3OJvOOunwJ8Kst6a0a3ghseRpI01lGuyRA7ql97HUR7Wbb/AJYkkukSXpG8P80VLKUa8Fa1rkbu8FPeGN9oTlKfyeXhE+yN7wa3iGeMmNciNUrCMOEyp7qE1NHvXk/omaMeWo/klSaUUwRv2NaVRDtY2K0q6I10NFnktK/9Ff0z9l7Pr7Lc6fXBXtbZXtnZZOUzK5Gvo9uoi2jw+SNb+hZxsxxzsUMO6I8NNH7HWsPHhFlip6ZnHBMms0S84fBZeuCvEdFjWUVt8Oi8SrsnmnrkSbjeSaz7h6ybs+6ZW/5yYe9L8m9qzTRVcElfD1kTnlFt5XsvBfo3rDSyadfC0XpwjdhW8PQjTebgqbiyTjngpy8Ii79CbW/sbkivZgvNpdXg4XGRk7o+Z8f6Eje25+SzPJLJinDj9UaeE5wZDoZITTqiw06RzH2cehTwqzCSHuZcqNEu+Cd8jzqC7Tpu8ClXL/wO2lab/JvDHggzReyFG3TrH5awjnF2+Nrq7Yhd5dV/kfI6RqFu+DyhK/4PPxG9PA01vo0YxT9F+yTWhl02c52dG94PWDZjBZnoXPkn4pbjkpM+Dwsozhfo0XZH4hLyT/kRsTmHM7TyhJLC+iJ2YNejPPxbgvG+yOPk8suyLzohb4o23h8GHPGza2e6Z4VQmkfZibXtcPh/kVl2zPGuFevIlpHptU/wOctz7LmVNJ39IRsElWBLlUkrUzYE9J/mzbyuE5+kPnBMea+nS4OsT9Gijd4jLd/gvjLPJsnRovaNehZw9Mt9+SpYv6NrJ4X4E+sl7Rebjpl5SN8xclS2VPWPRbZpFsix2aL3wc1fhjrjHlkcpkr4yZZ3z2K64ZHW7Hwa5hJc+6JzeL9oiXtk7dSG8ZwNKKm5rgb3cT+CnhFmtcFS2WImscGpze2V4Ug+ymSnz+i36JNqrh0rfjwRtY42R2/ky+dD/Cf8km80Wbco3vF5Jx+GKNXTJd4uhO+miVqmya/JC23X7ZevtsQfFhOW9Ir0KL65H6VXdXK4vQ3NG5BI4S7KSbO9eBOVIxLn2LBLkc0NOjeGXH9L7EikcIooN3Dx6LJOTTv5ZFk6gkC22n4Haay3Ud9T7bQy8zwya/Db/RPnyPmOsb+2T2fvM6W87LpPZ7OajXr4eOSN6MrjJla1zS/8ja8kXODeaRej2vZovXBXt5MKzJadZMbWX8Sb5Jx8dshs/k0e8m6nME6RvZ6MrH4I+ckMk/0b2T6+L3oanJLhZLjv2izRG8fozrUI3WvwZfGSbhLvE4R9wwsWGFpmHyzp2f2OSnBw0+0+BvqrhVqfhlM77Lf9mcbsNgej+FhTlDSK4WUNvaLa7SLoqgw28FxG7OXycOFiL9obhS9Fa/2N7awOzOUzWSXmeDeiXbIn4Z6d8ss3jos5/RVy6Xpei3WPZFyZXk/6FXH4Oit0wt/Q7yr1GYa/gs39FfplN55J3rw4SexrZN5n9jbw3W18RP0Rc/RblfRz5S1C9KfY1P7EqnSdYhj1e0JqzDplT1qnvDMrCK2mnmLGBpnSfZE7VvdLx1rBZI6robWpKZWf7N3O/Bvx2iT0Vdzo9rWicJuHlK0TtYEbDFTz2Rh6Hhjcikc7SYkSJDXmspibbts/ImZst5t/oTm+V+Jvj6GzNaaV8f8AIuTjV29v6QpirB/Nel9E6+z0I/VJw84NpNYLdKJGVsGZUycufM5Hz6pSovCcfRK7XS/s8sS7LU49Fu9iSezwcmXyZUTzkwO/Z5Jy9dFM6prWGPE5hu5pveiT7Muna3DD4LTgjzCUa7OehY2Z5InvBraJ1+CYJ+T2ePmWkGrsa6HjfxBuhtpFb+iIxijjV0ILMdlqMrKZTcc4eGYOB6TaNbKbS30ZGSpIm+rxRztYNEuYXcwTDmCPfB4J3kk9GPR07lm/owtcCd00/lCx4kjVzsVxiJ9F8C0c1g1VC9KGtFfRvn0ZXs37GmdwtWc907mSefpkb3x0PKxgmv7GrpHp32LPM8ku8DWq0/18FObDh5seSp+cDwPOiNXlNl8wXDT5R5Y6gm0uxKrH4E2t/RlWGvYncN6M4jE5snWB3a/kw+Z4L9Mw8FuEi5qw/JW9nsnePBhW4+hqxvHS4LcWeyR4/ZG8tfgsq25LLizg0sqt/ozw8TSI83PRbzOqiz0Wiw5/yKtWrpFx5E7rF/YnGpmMdgVbbg22m0mn9Gl4rNwkh3mhN5WUMzc8G6+DkeG59EeVM3eqf5A0cjengiBLK5Xivz/AxtSxqu0WX6Jd/o+sE+i9DzK54Elsrgyuaxt7a5Lgln6KzyX8Favnnoviluiu5/AmtcHD5MPReEzVuiv6O/AlnGmXR+y+Ui09l87IyiM1YPPfxW7wJ7p0ZeWS0h4+E0tqknjyfv4vRj7McMhORo0NkcbptzRj1bi/ChgEbmTHBhV5NyjPSLfqaGrAJDpUbyJzWyJgzprXH+x4ErSeMr+1+9jNDD6b/Ynz/M2Z5ILNRJh/o97Q1nSpkjkbpzRozIuRoWUH5GSzSsacWMidU4W9f6PqnwkN7K4K/wDBhtQ8Kl+kJDvDb9vYyz2WeSlfBXyvx8Nv9l7wVrM/RbYoZW2PEuDL4v6JhzNE7JmlnGEY5Q5/gWLz7RuV/ZZvC/kaSeDHou10Rfot5yV78lXVnkyxMFmHnorXNJ1sV9TyXrfROR+EQ3M1eBPzV0XtC8okTSyn/IsRPPgveEXvSPeF0cp7LM/xkt45JDWE7nLZrfBWpcr3oztu9Qma/wBk3dFXcXZVicclaYfrA0rnjkxWFbski5JcIX7XJbS5i2jeVhkIZN37LRJcdtPgQoV1ldop05l1e4JFJsYnhivDq1eWtCvGiXFVKDhpib78D6kpObe88exeelm29PovL+jOyTf4LGT/AEJ3gglj+TbtCZK3gvyVFzka/wBZM+/o3ya+hPvk9EuF+zjEMKzRwf0Z3DetfE0IiZX8l/JP/ULOjWP2e9GPo6hc6Me+iVfHk/Znnk9ZL3jBLSE6J4MN4wiQ0c+zxgnI0nyS/Q/BrKE46YeUtfQg2KeWmhKPY0CtNlw6MRiQjHP5DUpW1x0JnmTkvrkR0ltW739mz6+iExnaInpkfDozrRFTY14GLavhOqfhnf8Alk/7E95PLY2um9tdeoJE6VuvBoku5REazpQrbFb4hfKLgjWb8Y447HXrBJ/4Pzyb08luHh9FuFn2Ovbl5ZNxwzpm/Rq/qj7l8msNyDc8pl/eqY4xP0VPmlyk1hjWltclWuTLvQm9Jb74K3G8FWbxs3tQafUhrKyeVldntCzDeX0R5/ReHj6LLPujmHcCc5hpY0xI1P3wVdWPgTusP+hONzPaZa27DO2r5K1rfZf0cLT7JOd6EvToypFJ3hciJtqZesDX0+hXEwl0RWo04ma3gumXzsWNlmtlfGb+hm/+jIiTa6nNFKmr5Gm8+PBj4zTaU15LbT0lwcpE3zMidYTnZN8f2SwvR712Z2jLxMPYlMLf8/HJp9DWnOBjka1ONm9Iv0VraMPJ5K39aMrZcYFcjbb1sXLL2Uuq4b5pV+Cm89HoSTysMnCJcwvC+j07TZOIaM+i9HRe0XBvRfZqdP41oqe+DZzkyTrBb/Y/BLs1RbzrSqVjE6wjtJpptzCgmkoo1m5Y6pnNnqiJdt3K4JXWakcC0TDXA1CujeXDEEpv74MgVIfCFvbIWLnAmQ6ayrcleeUbXRJl5I3/AEZPGBNmE4n5G44XzPsbhU1ngjfBHwjDv9tX8DiNVppSmuUzlrsvpJtcT/P0Pz8V3hr4NpcF42yteidlng3zvg3r+Dw/0RPBjhj/AHx5MvyNcSd5wRZvG/JJrKZE5yXJbIrePZhzccZPPPI2nos8+TeDGKcrGHyXCYphnf2R8+yMrx/Z7w+IVLL/AA0XLTWeUbtwYbu5wRb3k87pe9Isc2++ylYpnJesdnBr7LYmaW9nsZvWxOer0XktCTS+xLoWctZKsvrQ1hNafTJN4f8AZ0W3z0ZUvBj2/kiyLF/Zb6Fgl5xyaGsOG/kZcucl6Q1ynCt742cdrgl2tG86Z4WyPT0jxsxwWbLojWix7Rbn+Tts5Cy8zx2NJ4eDrya3l+BNrZOj0fZb/RtY7G1zg78GUN3BM+jv+T/qf2IiQXkn6PTMrehZJrEN+ESymNQhKLJjXYlj0JyswSbIuBmsE/ZrWTRey/jsk0Zf0b+xxRassqmRdF0m4KSIsKQ1ovQ3bnBrRvQxjyk/QhuFWjWn+RqaJ4x2RcDWd+iPfHZDCKQh2sDa/s0nh+hJl1HLeCi+6VrPAaxTI9Gdqr/JvQ9NDJDuciWeSg4mSaUeOBN3XtpS/RW2iXn40cxjqycM6pZJlIveiR45J+P2hp8aOqVPWGuxO+bswvRJaaeqWYawzyjDszNmEPXY0nlfgtzqdoVU46O7gj9iSXav6J2r5NLWD/qV+Gn2Z40ZVL9mFtZWivnN+ictyHhghar8GXDeEy8P8lvad4LfD8i1vA2nnTXgt9ryVPEjW4WurkaiTT+iXf8A4ObmeyVZru2b3lG0WGxqVbo/H8m+a+uCeKhQWI3/ACaz2LIlHlZJddmKUtNjrjTOPRLIsn9GH654MN9Ux3G+TbUXB32Jtcj8Eb4MYyZX2SbRjl5RhnpGbGaxFe6RPmCxZoTrX7Kn7O81ncw/5GhJa80s/wAlsvZY8n89nS5NZWUaUWDez18YMeyk/wC6Psi4PZvwe1v4TmC9bPZ4Mc4NYMoh6JPZmM8sl8Ep1wZW1kZgpk14LbScH9DyVMs0yJQSt6c2jLSvR5Wx9LfRNZ10Rr/BLi+r8a5hNY0MmPx7ImK1eZ/I3qLlVlI/vYmT9ODjWnSMrWNtNz8GrwXsr4PJfJWsMt8YPT+Jfo15Y1V9nqGSFmWuCfbHVjglzGnDa3YVPT1wW865G09nhaLHU4QtqHOM3wPK6Rre3oT8tdUpfRVy4/BXw+S3WBPaeTWSVk3Hx2Vp9/RUsp2/kytMtxq7K1vEf5Itp/R717K3rRenhEff6Ek24XlCroXnDz+S8vCeib4ppdJb5NJh7RWtP7G6NN613yOPmGUPG/ybxpPZPwdRVGVk3YahZ5ukNtekOUL9Fu8To3smM6ZOB4kwbwjx5yTfaLeL6KudCSbb2Q8b8GtoklnDGoSw3LPDo2sYM84Rr12S/QlDSVyv4KtnFWzPKI8shlaOz0ejsbaKsmFG3tcE1DK8+jTxmmEb1+RZIjK5Ob+z1sl28i4uCfZ/XZrfeGTo2JSwlPXHxsn6MGOuST2SZ4NG/hr6JonSNdHorLjomHknkanJVm7J+9I0bLnVGr4N6wNtQ1lfsy94Jd7Jjwa2quCYP6L4HeRuS6LSxdFu1kreXz+jd8F7MOYaWqWcYHjWLwV9Y7JJsbuSytZF+DO2EuOycrst3qnjRGtulTiexbi0WNpvHkk26kW60VpY/wBiXPYkm75gs4X1k94hVmPjA1nb7LJNciLqp/oqW8oaSynO1s8naTeiRhRd8jr37GpHJ2kYuFGYdbMZipVhTjk1biPZLHkn0Rv6L04+RNvQ84a++yPlxk6K3zK+XoXjb0mR8YfksypTBl+YJf6P+wTnln3PBDnEsn+f8DaV5mDLBmnd5RlbxjCFWtCT9NdFjLfrg0R8WGV6fRFqjbW1gk5yy5kkW+xo7BJsd4M36TaGTXHRbr7Ksw3tevhOpt6NWfY5gxpPIvJtm7kakfJvPR3OS8I39mj1kSP2WZQsO97ILiEmkKrffxRZNpzgv+jlG87LdFhJv6J0fcKTm/RtYwa0Pkzt7NaO8myJ6PQ8/wCSH8sxk0WlvsfgxtlGuXpE7zg9n68kta2S7Y6tFa8vsruT1ou6bL0b+uCfv4sLNnZZoveirJOivnRiWeyvgraedjd5IuS/6Mraz2zUuz+9YPqq7LcHgs2Ocr8GXrU0VPMueS/9CvTz7Kn47OMcbwb39eiLM/J+uy9Kl3crovX2WrGRRc2iXWC3eWuSdfaSJLH7N5Ts5ZbLn0W+ZpmmNsbamskLf6RGNexu64/Zjbg6d2Th8foy8Sf2W7YqwnWt5Gk95Gq8ZfZZvF0ZVqrXnQ2qIlrJnZLeDXFM8E7+oJXxBm+cnvoeLFl7FeNiit5NeTD+i3CUXJZpUlWMeSfpEqXs83eitb17J9kb8eTWspFsuOjBdp/Asd4Xqlp/RrK+2e+OSWRl3cqk6J06T7Grs36PX7MF6z8fyjr0LhcFjhqlW1iHom8ibdTErcZK+eCYV2cfYkaftkhZr6P5ezKvZJFLSX+yvT4Na0zXXx4O4eznz2eGTs0ThGiRYMaZrR6JCdZL0Iu8GFo2SknOid5HmQ/7I+y25GnU9dDUv7Mc5Ib0Qp6J9H4K9P4b+itz+DK1o3pezXk1vPZZtbX5E8vgx0W+SSRWlnmDTe8fdGko1qa2YTrc7LM7XGCdsr5NLDn9k/I3n3tMt7xPJFtb/TJXhzswz0VvLV8LBLpUuDpyd4OcLR1j7DuJiju8q9DUy3P5Lcv/ANN4WDCWV6G6znnk1VrsqWlrQ4/CfjRWsTHRD29bwVhpYuixO6Grhn6K6+D3vsbrx/g/jn2dUkm16Ga3GiNNxxPZK1ZpYWCzkkxweTfssUWfsSXsysL8UWHv6GjeE6e4NWrQsvK0awynwZzFfZrTJ3wN9YEp99FXBdOb7Zdf8hNtZ4/Zv0NzyX7wT9aKI5HvehZgijk9sT7L9nfD4P8AoYxeTf0SfZJHS5L1mGy9/wDhL9DpzEdl4PZiGIQ9lb+izBe8C/JTLPQsn8m5TwybhhLGzvU7Mcdngk2TmnBMObJ+y36Ja9GVzRvKM6P2b/2QkJET8nlbOClLP9fGvsqWHya5qInonljc1weudk2tpE65Ldv2jdyXyLKTNb0YzwvjLuZeUP2Yes/GcYPfZ+CR1P66N7yS/Rta1zos2Il/g1m0smavJU9YJMpo2sau2WyYgs70f8mNLXfk64XCOrno8tRrWRO6yI9vT0V8ZnnQ48vGdEutLohvkjW9Iyecrxkje3fvRLMzvOiqxP8AKE5rJe3i4xo5xlG/BWt88mHxxouYzSy7PJc+C3XHaHi9ItzXhFvhzlEe0t7NLxzk5NLyVrefRbrE0XNWS5um/wBla8CvO1+R3hJwS8WHs67NW5Ft3BOI/wB7feGPyxyNzKeFiEb+yzN+iJ8Wml5pvWDW+t/HnZNl434H57K01xCXnIndZM1ZaS/LKltJfbOXRvXRZ/squeSbpvFEn+TnOYSzjwXhckhj0LRnn6LbMQ15L3gTNaP7IzL8wv7FVtiqtNaL/wCkf5JwsQ6olzfoxSXPxv8AyaPeDTPaPLO+zztlhDfMF+DWzWHhHvj4l55JPo3SLoeaeCbhO+ODKrRJ8T99kxlHhPDJOy4P2WFfKjg3PMRElkJb4In4MPDN/F6+Lcl30j+yz0UbvFPJe+OS17jWix4ZrNpnFW+BE505GTOTRR47IuNPRIPFfE7OL09ki7omsou34Ev12N/krucdoTfCwS6dg/O09IvgjVfLZrKW+iPKZfZWuZei8Lf6K7n8Db5x7PHLKeXx5JySaE8YxWVLW2s4FjMnszzhMu2/wjHCy+zD1+RUrzCziYz0VYuj0qmy8rHoWOCvFanMRa3Bu+MknnI+O/iXnkjzSlun9sS1Rs/TZ+j0RL/RnjDJtwk1wVv7Iviefo8D4xZ5N7xRqOPPkbvSLdCytZHIR5WoIWvKV+i2+Tc8dkV9kvmaNy4n7LP8iuI6Jao8NCXLPOxeUJzeKX7p/wBCLC7NEsyM+BryIk0dq74N3g1g146GTUwfZznORrlGyLbJDUYn1uEN+jx8Z7JJ/RHSbJo3v6J/3Zwf1o8ssN6NETpo1KSjUyjw3H2ZXkfDh7K1rIyvlGtr0Sa6MvAvHPcGhphM9EbyvidGB5/s3obRWx59lm1C4zvsrdbRXvReHvky9ym94nBreV5JcrRbrXk196J9PrhmZuZzUPLJ2tbJKu+iYzsmNjzvfKFFo51CzR5bfgqWXjGzoz2W/W0Wx6fRca/ZKun7L3iGXa7SPl44PeaVLb+yzO+qW77N6x0zWOOS6uV0YXGHsmluMn89nvJra30XlY7plYf8FskCbdieyJeHM5wXluiV28Ej67zSJ4Tq9Gmrk9H+R+OSpeejENxrIy0SZ+XBlo9Zj/BjfJe1KVXBp+zTw55E7hb4PPMyLOWvR6Uvj4T/AF2RrIohMvt7OkBj8f5J5a/Yldkqi5/ReWSY6OM/+GNNE/5lRuPR/wB7KiXwTnovQ/i+aTRTWWaef4N/Z6Exg8kzWdeDWtFG9XR/YkmsmeS9ZJy8G9FemUuoXc+x+NmeUf0Kqmsns8rPj4/o0Sk8cG9nZOMsj5P8cm18Z9notzo1teh89IzpwVs9cn6G2szZbas/yIUzw4iLKbLPREjst2PqXo1ok3ml+5wb4weF/JftIr6wxq5dhvayR5jvs+qeVztMabrfeYW747K249FWOBbiZl4Zbr80qWJe4VZjn8kus+xeXod2tcmEnPZnjgWdqdeTJz6TZG/HWRXNcRE6uROYWbtGrwTTavXA3Ni6PHU0Xh/o3rBErXfsqu6W6U64g68NryW4Rj6azos9F7/Rwv8AQnOnwtmWtISvqZJ0sQkj0vZNq588Ci1xcLsm5lEaVtnNEkv7O79HV2ZWhLrF2KOTCojdawfgi7jI9NSEvMXgx3oqwXmDTbaT2bfRf4N/R+8GGhqZSv2eLsnY1iYyc5q/7/wYM9ZwevyakO+zWGbcJddi8Gec0n62fehHlE75LfRFwiWFNmsWF+xeRawbp1MM8ISJMs9H6FOScPv48cnZV3kS5xTOc1m80qJ/gZrDL+znmFso13lDWMfEh3VCfYvBv/A0Tv8AIkS+Cbho9lmNr49/GNxE4ZujzJtET2Toef8AR4bhvBOGSaJ+ejen+T/sjyPXB3WZ45JTC8dw6a/9JcPFJF6LftGHnuGtYHVJ9kb4no/g6byl/BrX0Wfb2WfyG7pzBZIr/Q3tck/LknCy6W4Ffd8jj8na4Ktr9mVlqtsz+De2LOXgzslt5fIr2WPG+zC5yJzemWzN+jUXWjyvo3vfRJvPowqJ3DchVlkTzxwzeEdFhclSt2VNWwrpeMGy7Wl6FcVoazVP6I3jHk4wLHPr4syuf0XwSbg997f8v9mLcnXjZh64M88dCDW7j0TT0VTUNibd8fD9cH8edFrqY3a3+C1+ORE7bX+Q1q4PK+ivjNJ/s1eV0XkSvgeN8FmuTeiVZ/BEcKm/7NLDKuRl7E49bPrJXcHGM+/iPC6LeIdLg1MwhoTe0TyRuxxmufZ/kaL1wWfRo3MGscEt6P7GP8wn038a2dfwN4wi9l/8OSz8nsu+fRsfnaK3o3/gaa5G/GGVaL0VreWTZ32i9Ia4e+z1+x+xrxDL2/jK4NaO+CPspoy9ONC/Bbt74HjawWvHoami8d/or50LOuR5ePoZynroy83A10yzeUSYT0YznPZvUd0dePBvKf5JgTmVmEWHpGNyfZfo1i5/Quc5XJb5hZsbf/pjLbq4RU8LRlZ/TZpu4ReHtjvGTKsXsuZc8CSXk1pxIWX37WjW8/0bt/8ASpRLnsibqwTBdUjb+iK5USJa1ki4b/gSqxuZRvy5bQ1cWpfyP/oRrTnsj0mPJLrB6PZvKWUWmvZ/J42F9bGTzw0W+cF9+YLNuOyR4wOLWW9j4LaKbPRM+j09HlY7LN5RaQ8coyDoX4X+SNb5LFrgkyVvwY5R/bGmf5JlHrosa/otJPo/5G94Gr9EP2aNM16PaLwdmEdok9F45Ny76KaOFeeiw9LDJJzC34kJq5fYt5HH4yPtG5NkLCtcn8m/ZO99l6wd1cmTXJvFh9GGb+jY8H9j/ZO1+xC4TPfJGj70dnxyh5iJcvKM+ryN9jz7J+S+TW2NrPXBseS3DJ2bwXrZ5eP6LjFhVsWUx1vZtddF1/JU87JY9Ev/AKUrcmOeCTWSQjVn0LLyOTKJ1gkw8EX+WP8ACXJpLGSSR1LsueF/Zh2r0KPDVaKb49EeVos9+hvTb28YG3p+CtPc6PDzC2TULMG+P3sjXgtysnPXRLoRLKdHF57IlL+WPGVkvEs6E1mLfJO/zSPWoXvD7XJOOyrjZeWWfZftfH/MtvHxbmyF1faIMYYbS/g3z8XdWzwuUcZf2KNdwsqMvPPRbvaeStynXJhfReYZie7ycDWextyacr9/6N/RelV5MvZfAnLTeSvk0YWsYMLgv34L1s3s7S0alzTr9J/FxgxzgtN3wZxXrsr9Ilzs46Z7NGe/RUyZh35Nb4N5eILOv2X8leuTjJvRo9GzX+TevjZqG9cGzs2Qp6OiG8EfLhhKbJ/zPZsn5N03bhm7P2NSNc+cmc1YQ4peOz1owL/BYNu/GiPPZFjgau8GVv8AJM3gWM78Dzr8H66KkscEWrEav6IiSp5Xei/k9PMMtdl/5cG+co1mzJqwlWvZh7cNVPPTI1rK9lT2Tg97pPwxLD5OHFX22eWox5zzwjxMrsbmxPfFG37p517P558FS1mroay4ZHl0rsQsN13rwZwlwsk364Ol/Zf2eeCx6O2n7JSp+YPrWC9dFsqnRU8Lns6uYWbh7N2Z9lLMKnvrgxtccGNr8E6JrOj+jD19miFW4f1TKe0v0J98Ebl0z1ob4X2YcejWsZJNvBucCz/2RR6ZEsr6JN7ZZsZbhYjnli3IZtNvP86O81l3yirUpFxySb50ToWYlxwbzLT9Uie+NjxoSP2YNbPf+ytlaaN6/Zq0SyLZ+y9izoaLGjSxlFsnQluiXey6JMpENeaTp5JJTV5J3gw9G8L7LvPxPyfzyNLa/J+zBv4Zv/Bjg2bOobJytkP62RvAk2iUiwyFN4OcDS52WaY3ifzwX8pHPjoYh+zXBLo9/Em8Qf6N/wBEnFItpYJ40VDSJzBTh1+zdjsMTUTOJskzZSpzEY3fZ+54LMtx+D1yLx2RvjJdXCK3lG/JJr9la/sj2mL/ANGu8dGX9Fnj+CXF+yvrWxOUWNrHZf8AqZmc/RWipc+zw8plTK3zB53jheSv6ZNNrpkdRFWksGvZXlrCLwJ1dF3g3tfgsxJ1nA3NuLqfF8fgvRlvH3g+tmROxr7NGynJFYej2a/ZOxub2aa4N6Nm/os/2b5JdcbJccIwSvUyNzrMi5ML6MW3qLI8tRmN/wDeS3XZpr9nZ6K1h5PBI6uS9fg8Is8k57OTfg3vS2LOPIl50esmGf8AUu7o/oTLx8SaLyW+T6gt5PRreTfsZzgspryUTRqtPfBUb5P0Q3hYPZut7+J18M/n4ZL/AKNGyNE+rv4jNZRzJtbJdYH5/JEt7ZODLCwVrryWN3JhL2VLyPPkqe/0PwsFGaGntGXotx2W40Rq5HiZhO/5HrcZnncL3hkaNSYb5Q3dqUnJeeTylbuEeYoJp5Whu8RrgytE8wzyzPJZcmF9HlZo5t87Jc8Gt9+jd6HPwb5vRJejC5qLnGR+DcJOL9n7aNvC+idmje3snasIu99G/wDZZrP9F4ZrWStYSo2k8NmVpd1XsvmeRN/ZXp59oS3XeqV6efQm8+Ct8ETzSR4IsTHkqe0byakyQhhp/wCBZ0tvvIn2Jt3n2VPgTZnL/J0kc9nT9Mx+TW+jcn2WZWRKTd3peCWzE0PTuJ/ExUmrbjfmmtcm9YSRh6ZiY0W/5NaI1K9D9aMIS3lkun8f2eJk0WK9ixsi3yhck7yWawhaJ3+jeuDeifgSWlwQSr8HrgilZmyYZYf2dNYh7L2SY0mcno3rkn/ImuPiclNaHjXxYe+SwpwQ3lMf4O48GdGecjqkLgl+tkso2NXxRxbGyp52NIqedEuIYRPinsn2ijSXP2SaN+ex+fyTkmCdsTczwba7L28Mbko0l4vJeOTKyvwTdxf0Ze8dYLd5ZZVM8Um+MZhIsZonJVCpeC2TIm81G8WMsnHlm63McF7f0YfhjWMcGUnyVrKWUX2fgjWv0Z6pXHMDafGeCNrGc5hJjb/gy96JnoneH8e4z/tkXGGL/kWrDr6Kk2+Dyl6yWwxny/wY1dcluLTridDjmPZvWIzZv0bKvU4ML62RvKxeihW7yZ9ym/2c/GoLGmZa+xNveSTO2zLRvh4E+2ZUTNSiVx6a4ECxBjh8jNx9neBMPb/kGp5L0qJyp5NWGpnZvHK5PZurimM8G/o17LX0vJ+y3Hkq7o1ZOPhc5yKMmPIl3lI/5CXZvg/jpGsCU0bpj0eiahZIPOsn9Dau3orWzKh9lS1o7HtGtFT0dvs2ejDMstw0aybL3wQa6LfBfwUy8D/g3tEWlhDXH7NYNbGm/wCxrpG+z8ETy3of8lljfQ4LxobOXb86/wADxwSTgp8kxlFmts98F2S63yXUUu4Pxnyby8M1Krkw1g1rTJwy75r2Y5XojW3UOrTwjyYeLgjXM6ZLv9GFjZvWzU0GvH7NY7/RjjRU8L68EutGFJwXvB652a3n12Z9k6xC3HSM4ayi3iZH4LdqeDKnKJuYnkjXoiWzCJ19ludE3H+dnvgl+z3lLsscXBe1ovM/BbhPgy+iRrglEsbEs5wkYTv6PS2bxyO1DlK/lCSGkuPhLt66O8G2f9UTQrezy9kTcHVbzpiTXmMzxsj28Mn1Dpo09tQc7y3Ly23EWb42xzjXRoaTxorzJ4MtV4gneMkaz1wb8tlmGROp5Ps7Fnwawts1hk546L4M4GkT/uyvGNGfifR4PZvRNm/SFxMHrg8bN1LZfGGaKReSXRe98nER7F536NnvhGz+C/v4t2PPk38ZO4Po8/Fa2Nr0Wjc1gx3knbN62euWJ9jjyuBz/Ic50x48/Dzlkfxdm3k7pb7POv6N4Ee3vwTXfYzH32TXZb48EW3kw9a4P2RHMNCerisakn7LWfWjWixuDe8+Tai5J9PsnZ6wz2/ZrCPuFSr/AKK4aa6iIvdJNZaKq01fJE3bjouc78Iq0v4LM6n5LZCvgab1uEa/9K+MsSn/AIVc48n3j+SV+yzahWq0TlJtMnGyTf0PM4Ze+TyX4L+CdmjD3fRdTkw98H97LODxpoy2iiVqyUWuRChI1VbEtx30xM+IR6myNcZhHxkTvBo+yaRjWi4zEavpxiEz1htljaqaVDFltayRVo/Q7O71o0dmcSwVUGZic58sbTfp7OqeX+idMv5Q6lNI1Ml1OSpMgl9MvBr0Y1qnv68Gs7aNnZ2aPLo9CVedM3PBJjR+yJehfjyKOzJLkk+Gr2Y2zeuTvwdYNnBWkfs3/ZilpOT9EmWWb6H+n8YypTpFnpEf0ftFJ0X7MGX5Ieipj8Fms9l/6GO4yN6MLi+RF3oa47/Rb5G/9Ms+Xwb0fye0PNzsl5nkynFtdjT430Tr8Mn0S4fJLTDe+NmNN5KnhKPwb8eTHCyeG6xtYinsxYvotOY9iz/2ybu/ZJPRXkj5z/R4hLjok8Xyb+iVYK2/KFl4V+4SfbRe1O0Yels1zjkjxP8A0k2ouMji1sTrj42hqVrjinh7+Jdfs9nfYvH7H23vs1kzl6ROGqiJf6IuS4/gT6wPtbIm/BLxrRJ/kJ+PRZ6POz/kL/0n7F2aULjI7TtvGcIs2+q1/YsJGtVomdTOcCLivltDFj81JHCC9ho3B7WP7ZIrPdDhC8BFaae9Fc6XRT1ibpb1g41jSvPL8jnNRToa5EpvbE98ezCnnRnKTOccGTyVp9Mm7non6N1o8Sw8meTykLOsGk2xLGy19FnFLPPQl4JDeiW+fgsG/o9Hi01Yav7OOqXvJvHJLhZ+JCn2ejL/ALH4cPWTKJcI9sqba5Q3fswpJox0e/0bP0XpmuTfg14LMm8la0T67KudmjHBcfwSmRrJj8l7/A860cH9F+j0XhjuOTetnhfRWvZZ9jVkLxNnCx6FjWV2zyS/aGukTjkeGpEfrtm12O93yJN5efNJ9QskSzzDDsFyaxCtYZW9YI0blbZhqNUzoxp74ZVxtLNZnS0SY16K88eXyVvWLyVvfHJU8Nb56GrnoSm1GzzvgsJf6L5yZRLvM/JM7p7ZM5Z+oS7wXpm8wnaz/JhSuZx8aLbV6L1aQuKzaVRHySrya+ibxKXcx4RbG8ToTePZX3wVp3OyuBtrWi4r0z9m+PaPLxCqORK72xN84gt4F685NrinaHjeMbLp7Z6wiVZQla8HoThC1nH9l72cuafZFm57PTlG7rA1Fh7ZrP6PrHTL/wAi9iximaiNezsWP6M675L2SfZ5KTfkk+9mn/gkvk2l4KXzkn5LW7vgxuG9s7L+jz8ZVX4I/jX+z0ScZNk6J+jbvXx3cEmCTR/BxkbuywvTHonext5uBq+zZrWD9+T2RPZwiUj6HnZYm3lItNEtuSdEkPRl7UJ2VvRhPO1+x6XkfHN8kW6SaRG89MdxXo8/kiR1CwosC/bGoVtY3x6JVl6OVx+jfBFxoneT7hPuCxnl7Mcfsl0/1s4xvyRt5p/Ao9LPZvieuCrn+Bq5bUKnvPRFx90bu396K15hh76J5n0a8+y3ansidWui8t30RLYl/wAzjOCduEvl8klcpUpXsnD5LI5aXsvLGt/kTrH9ir2V8FuiEuHweeyP0awjfxfs4b0WbzVgvWfBzj8FnnJ75NcaJJeTy1YizS5/JvZr3zTi8+XwPHB3Fo9bpI4tlavNJI3yY3s8FiUyLpfdOc6Zb+D1wX9n9CyLxpCzhcmVar9milaEr+Rss+yy9EWSr8m/Jxgs4JNFbXRdLgbsf6IuWSb4LuD0TGC6RtPlbsw9HrRsT7I1otwT9H1slJSQhJo5+bN/F8Gi3fB20ZXP2dja/wB9HTQ8V3fBG8lpFol0T6NZH0v4NIzyeSQxm6XJKsQlwn9mVz7LqaJyiJ8ElTRjn6G05FWmWYYwXsyo098k+0ZchukJVula0skfCpuJ8EaH5yJWp5J08cHnjkwtaPeuip/4hU8f0YVj34LVhaZbmVrZU+L4K1Hwbw3CNYM72vJ+n7L0RvWfBLvB4Z8EszPFJwvsm+V6IWuSTRPBJeC9q9l76MbY5wxNc8GvFMvW+iXked5nB2xE6/Ik+conQ7jkws7hjZFx+BZwZ5fotT8EWLs1sky3VP2W+cEjVz4HGypaJbXT3wKZ9mznGzaZVHMdoknRLsx98F+j9s0TczCVCq9GpOTBuEf5FnZ+je+BLGdns48Em9dGo0JdKH0bdX4RHmck4Ty9n3oi3oj+zfo8cmokTKP5L8cXybZh/wCCLPB/BuZJ8Q+z9/HPhmjRbg9kNZRfsk8pkXBvEsInvA1dcEb2ype+hu6UJX2emb2ZZ6yb1s2yNt+CO+9EbNLH8jqmMES1sjWXp8ktJPJh29lXP6HGiJPqifT5HJ6JZ+jf2SZRjOk3xS9onLWxZvfBsSzteSyvdQlJNcs9Z9liyp2T/qfcwU8/gk2v8DeP4It3JIu7plu3jhlukXs3tc0tzo378fFayW8Jmn2je+OD9vgrXFu8lfJYSvJY9Ul1mm8LZPGSXL4JMl67LrGC43DWuS8dfHi/gmzfo5cf0QvH/M08YJfQ5TMJ5w+INa8mvs1vvBttPBXmcE8flEu8wvaJm6hZaaWdHpbJP7JLOTetE+hO+I4J/PZvmEfBt+uDnyW0nfJpYL4L4gnNHBNI5PJsx6KfeWcaI9diwbX8F11Mkn0VPM/ZLk3fAulgvLN5LCjd0bmC9fszxyPD9+RucWn9cH8G8FWy3CpryY4waj2Pgb/Br0zQ+nz8f0TT7LHnJOuDQjeF+S8Ult37MPPKwfZ6NEujROmZxr42Xoj5xSzieTz2d8m8fkm8/g15nRJpehrwSu6M1XTWCbcJq55qN+DWbrgaqJ3vyW6N4pY9skztn7EnhoteDLvBrayi8/yYduCXK/I2hh8aGuvslz/Y11lco1sb5WZwyXKJLWVOxZ5PRZJhcHlbMN5cMcZg4/Jl4WCLgb/DE7vg75MrCa8oi7MYu+CvjfJz6N/ZzwT9nTf4L08ia219l/XJ/fx7JK+9Gt6LP/CVF75+irXfBdF8aK2s8mvcMbe/A/st2JTz3k/sxpwayy+icvOOCSZi6M74MK80j1xSdcaEoeeuCCcXkv4Fhogh4PfxBNfYvwzzyyf7NkPHx+x5w9/E2uDC+hvWTW+ejn6LM5pP2QU4N7JC4Ka38ZfH5KSezNaJu5Psq4MHvZM45LdGvjeeRuF7MLyemN/rQ/JLvZWRc8jutDWSSrrR+iDTXo1ojNLWB+S366N2f+l8fZVlr7E54MtEb5/RCNZWIVuQlw8P9FSw1C7uvI1+xY0qI9teyO1ZUyYWVn+h4rR2b1hpCxow1wbU37Om3g3llZj3Bpvv3CyJvC1kjzcZGpZo3pw4wXn8kmzKcLk9Y8mWRLO/R/RrTrZreUz0/wAm4pPRr0PGsfFiRly5I+EXbSFnZZjXZZUlUW7yeuf0U549EvSLJOs/HXXJ2n+TpIkvb2Jxm/ZvHB60uzXszzs7nI3jtI8z6JeSTWXyi2LktZSRb7Km4i9Cxsv6LOCXeXMwsyXrnR+kLLxgq3XjZl63TKlZkiSwaw+SXAk+MM57Z54NCd8I+zRv0eis6iP5N4MrKLvs9k03olO5vg34PLIJ9CfYkkWFuvjWyp/0b387vgkwqaJ072S+PiTz8eifZpeC9FO+z9I9IamjLXgtUS080fgj5yN2ej9DWn4PR9kmFwSXJkfkwvD+OcmsNbP3DBavBvY48rPgs1+Iaw/rye8IeWlkOtfyNYnNOcf+Emf72NJawivjvRN3no2YXgx6FaxwcawesMvPJ/zvJHxx3yVekLevyVaePBeuVwb3iEb2/Z+TskpPo356ItJZ7NFnAnfB3eTeJIeFx0fX0Toec8PZJokysGvN/k1G/wCT61z4HnKzdEpHjssbpFvkTmBrR5N602W3jJqKxMR3k1Mm/A88+jK+y6n0dPk3rD6G5vnRvKLz0edJGll465O3pcMy8svPY2HMt8GUePweHp8lu8TR9a8mXwa0ThO9mot0lx0R3OjP4Gk8rknXBvRz7NWF0LXrZvRKskpo/g3FsuaeuSzCJ/Jng9dFaFW86Hi8DfZwvWCdOEn2c5LWRO0ROskW9tlXB94hvKWYLOslX4NC8D8E2dzaM8mnZT7JPv46IWl7VRE1kbW2VK3lYLjXsy9LZhczsZxdi0TGCdmvD7J51ofZukX0zL4pFimFr4iUi32T67Mphlz1TWiSZ/2Vq3JpVq+TKTmujHDr5JEohTBKQiePOKJcGtfSJ+yTCzgnmQsxvyb3wXrJ6/ZGeH+hKfk9osjf7K7FsaT3lM156JOb6PfPBVrr9Fpc6jn5G+Ga/wDDO5kvWD6vszhXKM/0Mc6JdY+y68bI+F+x52oa4N6N3tHhvX4+NbyipCf56E+y+TWtIqeujcT12WGdsvfJuZ4KuVThu0UWttEb/wAsc7G3xlla5zyLo02Nrkw/oTzMibT3g28Y6Na52XrKJXnCW/Jh5KNyTT2Wa5Gpp0070VZuTGG8Pwe8GXjhlj7EqRejPGz/AKC6pbhCnBYbyWG98nguMFT3ros9I0ZVf8j70N0n+hQ/7JvD0xqpp8aOvA1+TvBOiwWNv2zZrAvj382eUyahNw1r4d9fCU2eln9HPkm0y36LHMEqjdNF/Q1dPJUzs97F8ZwSG9meTROT3yTzCdG9LRLkktJqIne0f3sSbh5zwcjx6FXhwajU+kJcdGFEiTLJ2zWuTXPOjCeMUw/E8jxv6K9s2V5Ki9Ibol2ff6M4wWaY1+v2SK/oyNrD2RLaJHnI0rl5ZbyNTLf0W+PEP2i8dFauSYI+MEe7YRrf0YexP6/oTudk51/JjsXnMELJeyWceT2LyL0JzejL/JXyROl8FSl5FiubNWckbx2THZY10ZX3+jW8ouhePwarmBuy5y/i1tFi0WRrMwVY8jxpY5NazTmzZ6E37Mvx0cpavk2a5yz6Fl+uDDFkfjkVyS6PXBh6E6M/Zez2WPtFzkn6PyLdluyZ6JNfk2tZENbnBOnrZTeeTVUOxVf9snC0Z9n2a2c/EIuTeD+ieB6NbOTW80rXo8CVE8zo76ZlfXg8aZOkYzfozt88EuWvZixGvDM8kueDZH9lhvJLs05yfk9meRpLeHweGZ+zXhCvJ3Mk1xOjPtRqn37Mn/dmsv6K7hWmVmuCcb+idamS4LfgbXBbneNG9dHfo9YLJVwMkTSwQanPQ80s3gr29lvBX1+Sy52b/wAEbE1iQl3jykbs3yZzmeBvlm8k8UqR6MLLJcNixK5Ps1zYcI6cNTnOR+cGt74aN+uD3yY5FjkTrE1/gt2b24y/oswix5z14Mb/ACePBVk3lCdWeeC4ZprRU10+jrhzXYk8x6E9u4MPbPv0e9rZM3g48E6U9l4WVpie0llHkkahjEZVyjUGM+DLx57Fi3szzwbN5QmiRd5N5PemhczJdMxiaL3gWDRonZuYKtnNP0V7Ldb7FLlz48/ouXNFwbNaLn2Z/JaL2Ml4nxo/j42byYVcfxh0iNbPZ55+PDJdmR50NdcGtWn9ltvBt5/RZ5XBz0WbMqpDq2r2P0Wn6I1r6M+ibo+Jo0RsiZNokHjf0a8Cj3sp/Jjj+TLqaG7vM1grcmLs7mi2Lo3YvZdrxkvDfsz3gn1dz4NKdpFm8XZzqGlr/ZFtuCTeVxkamO+GJXo9oTWTWX+SpaXuja2iPb0Ze3GazsTawlaaH7/BtRdDTVxYNt+UJ3X4KuVllXCyyfgba8kuuTC2sIXNyf8AIn55ZLsq1yb5hTo79/Fz5g9nJTz8PCFs6fHHz/k2FyezaYth7H9jcotX4c+zguUdjRwuzTZF+ItO8MXJnQlSbU1+xD7P8Hnx8FwLn38cHgn8fL4OUPGF2U4EXZf4+LgZx9icH8TH2cVnfxM/DwMfg3fh8G9/D+EImKbSZyx8+H8MB4Fn4fA2K8/C4KLIx7HjRWLI8QZyNYnyTo8Hg8mx4o/2ehPZQlZ2XHsZsey6P0+MZxoeDisRZ9D0Lo0xnk2iy+DhMWKzhM9kRv5FpNdnTJ5GoXJTb9m8fHfz/9oADAMBAAIAAwAAABDhhAwxxyzzjyCAQSBRThyjBAQAAigShwgwAwggAwAQAzygBwBBDTjTSziCigCjhDTBzzzxwyTzixRADDTTgTSziyzyCCAgCDyjiyBCAAwQjwQCzDAhBzwiQyiADTTTTwAQgAAADDjzyywgQhCyjjzzTzzzAwAxQTBzAyADTyCAAAABTySyCAAAQAhiABDxyTTzSjxSyCghDBBAywwDAAAgAAzzTTzjwgRDxDxyyzzBxwAyzBDxBCRxzzjiACDDSyDQCACAgQBCiTCRQzSzDjzwyyDyRAABDyQAAAAABhxwywzzzQwhBBxTgzzzhyBgADDyACRhzzjABTghxBDwCABBgAgASiAjACBAQjCzADSwyQgSTygABACBTDTzzzQizRyAABCBDBRzjDTyxijhBSwTywAAAyTTByBBwwQAAwgAABACQBQgAAQxAAhCACRRjghTDjxwTzSxDjDiDAAjAATABChRijiiwzzRAQRjzxgAADhSixwQzzDyRySxzhxwxwAiCDyzyhwxxhzDARRzzDjxCCDCiBQAADQyQASCCAARCCCAAACiBCQjizgABBizjTzTBDjRCASDBghSBBDDRjSDRSCCABRSyiAAAQiAjQhwzwyxTzyyzwhwwSyAgAAACBAQghhjRwggABABDAABAwBQjAAjgCTACgxSxyyyQAwRwxhDBzDzjTxiTCzQhDCCBRDBhijgwgyxAggAAADRAABwjgACAAACAAAADyDzjjTjTDDTBDSQBgCDDDgBSiQxRCQAQAwwzgAAAQDQgQwRjBCSRzQxgASxQgBCBiTRywRRQgACQiTzBDDAAAQSyhRwjDijjxjjTjTDjDRQiCwgDjTjSzQjwzTzhTzxCzDiACDTyjTzzywAhhRhzzRxzTySzhDggAwwzzSCAQgziyjRwAwCggSCTDCQyDRQSgwBRABhAABjAAizzQAhQBADBzBziRzAgCiyQzjTzSjRAQAQzzhCAgihCQgAAjyyxzgTSDAQAygCTDDCwyBBziQAxijxSiwDDzRwCCSCDgAQCgAQQRASBDjAADAxwzzRARxyQxhDSDDSSjAAAAQhDzDjQwwyCiywATDygCigDzSTxzQDQyRjzzwzzwzxjSzgADCAADAASjzDjChhRwRzhQBjzjDCgDCwygCSBBDSAAQyjDCTyAQiihwgDQCjTwCzwRCABzijSCyRTyTzzzywCSTzThSxxjiCihgTziQzxzjigRgRAwyTBjAADwRCSQwCTzTBABjjBCwwARzDSSygAAQxwSAgygDRyzyzjTASjTDCwBiAwjSwDBghwDTzDADRSwgjDDzCSQiihxzQyRAQQDxBAAQRDCwyRCTzzAhBQBDDDCQzSTgiASzjCBjjACjSxCRjDgRwxzSDRQCBjSAzhAjTzBCSijCxggCRTBDywhxwBDDTCyQxAAzQQyAwjgwgQAQyTiAQjiSzxSjQhQQzjAgxDBDTBDjAxDgTzhxzzDQizQhBDzShTCxxjTzxDyzQBDDAAhwgwzRhzDAwRixzSQzzACjBCBhDSzhQwxyAAwgzzziwgDCARBQAzSDCjSgzThSTghCBzQhDBjzxzyzzRiwgQwyRCBRjTTCATzAQCAhRyijijSATgI4KIwRhDyADRQwwhiQzgQQyzQjijDSgDjyACjjDo7QixiiQQBzQRQwyxTjzzABxiABBCgzCTgQyQxjQZiIRLyyRxggQRjyQgjDDwwBgQjCBCQhjSDAjzT55AhADDizzxQgoRCDwRRCCgQzCSzBixgziAyBRzhBhKCr4JQAwwRLSBwgwQwjzDBSSBAhTyRBTxTRyyCySyAQKjwwShyzgxhzDDAizTiACghAQAiAzQwgQzzwSRDbrZ7rq5rZLr7TjCQzxyTzTyDSQigihSCSjZyB6b4zyhyw7TAByAgAywwyCxxRRBzCihTAxTDTAQyzi4BSyT4JwaSwDzJrzTTgjiygxjDxjChShChRwAQgyTAwjTCBBhTQBzSBRSCzzgxizyxCRATyhyiBTiBADJiIAxYqYoaoKJKhDaoCAgCAChRh5IAzTzwwxK4LRghqaqrwJihgQQyTgiCCBjDDDiBggyiiwhq4Z4JLzjKBgh6CSAwLhwCAzxwTqZDCTizTxKAAbhSqgxAjzBBCwhgTyqjTDDABBRDjjyBiwwDiATjALIoarj7LT5hoBAyCCwKZJarjTrLzygx77YL56zrgB6QAARizjCyCQ4BQxjSjCCQxziBjiiRTwxgRQxAiirA5CzYYABKQrzzSZoqZgq5LJB5BCDBxZx5L665KJpTjjCQDSwxggiwQyjQyzgizjDzQgAAxCiziQBzQ4br56CKBCCATSTCijZAgR6ijywSARRLDSzRywhCDhigCwQzzixxiwQwhADTQCCjTxzzDCSATxRzzDCgxbDKZojgYYYgjzzyj46YoAgyTxyxQbijzShwQDDjDiAiBTyyiRzxSTAjxCywRBwiCQhBBARiQSCByTgCACjCBCAjYiiZRDTSzgyKBTjhDjpKYwBCAAyChxzBTTywhgRRwwQgTzCDiRhDTgxhTDgiQgzxARTBBgQAhTSwiyABA6jSJTDxDggarjzg5LrjRACBCRTSBzhAQzTzzghCQRgTCjyjCyDgwxBSTChhRRAASxAjjzwyzzxTgxBTzyri7yZjzxbjgzgKoQBbiwCAjAARizwQRzACBTxgwASzTTxxzhBwgTxzjDCySBwDzziDjBjDDjwyggDRzizxqSDSYCrwijhyDTRTxyhBQyxBxgDjixiRRxTAARRAyywDQTgzCxgBThwSCzAxiCAQQQAgSjzyBCDhTzyTRKYYITjDjDToSZ5bwTABBizTQxwjAjCQxwACBzjyDQgQwzSzgjiTjiSCBzSCSxzTRgDjzxCAQzTrQCRzqDSBgiBoxbLDDBqrhDAgSjSADTiBTxzDhizxzTSARhThSQjDwCQTwRxxDgwyjTiwDDyQABiQK4woTK5KIb7BARjzqIwCxDCRCRzhyhATiZAzjwSyjDCzyRBACRgijyxCwDSDhBDwBzjxATTSChSQLaj6RijjBIwwhyQRySCQAaQzDoaIZrjwAZr6bpqQQiABzjgDTxDxizxTzjyTSgRACyxwRQTB75aLpggRCBCDQip4wxzzigTjwQzzx5zwyJR7pLSgCoQgRA4hgSzgCzzTDxyxyxjhDyxCBCTjwywhxCBQoTQahYxjLYiKyZzzxSzjjRjjBwBCjB4BAwKzCDTizIZRAaKBTwATxjTiSwggDCjTTwCTigRDihyBziwBj5gSJbQxqhB4gSiRzyzyhwADgBzyiwjBjQLopITTgjYqIxiSARyQARhjDSDTSzjTQwhjwywxhgBQTTDjwISgzyhRBKTzwCDBjDgySiQAQzjRiDQyRCSKZYSjSga6R7pjRwQhjRAzxSyAxyCQSQDgAABRiQAyShRBJQQCRxiRzTDzwgQABgAAQDxSgTzQACDRjoYpZoJxCCYbaYa5gDwRRwzDACwDhDThzTiRjRghyTChiwSxQiRwRCAhBAzhQDAjAQCDhSxyTyADQCDDhhQQCiwCRC74ojhwAioQTDAhQiTRBwCjxwyDChxiCwSgTBjhgDBDhSwh4KDRRQDSQwiTzASByjxSwgwDyCRjwBDCzziyyighiAjigRTyzCRzDDSCxBABwSgDixiQzySwgBTggyQxY6DBzwgzizgSgDyBijTThjAAzgSRRKywSgwwxQyxyjwxQzLDBxjySxgjDzDjQCSiwBjCDQCixSwADzjiobBByQTxxQhyADyCxRgzBSyAygBQiyRiSgDjwyDQAjwBDSBBiDiTBTzTBzhTCjzSgiCBTBCybAyiCSggaCyjThQyTwDAijzTjDwDTyygywjzzDiiSBByBjiBCgwADCiAzQhQgjDDDCASACjSiyxSDxzyaDgxiRxjwCCDzjyTzQBTCDxwBQwgDzyRCgDBBADwAyiRSjBRBQywDAihTDgDRRCjzxDTCACABDzCjChRqyTwgDyzjgADhihBxDhSCjhRBSTyTzQiRAjSRghAhiBRRDSjyDCxhzzBDzyjBxDRjwABxRzQgxjTwiyD6iiRwAzBKihDxwgSAzjwTSAgzxACRxCggygSyCQjChADSBThhxBQxDzxCTxRwRAgCDBizxxQATyByyTQ7IYi4DDghTxAgAQBgixQRyjxziwACTQCjSTTRQiSjxDxRhwLwwCxyjSyxjwgBAwAgQSwCTCizhRhRAjxrZo5rAxBZRxTBADgCwgBwSzzTjSgBijxSQDRRySyxgjTyACjCxiTxiwzhQDCQiCAiDRzAxARCzxxyAjChCRjACQCzDCjixxzjAzgRBRRChAxARjxTwhRjwxTghSwjjRihwwSDCwDDShDDBxxjDxgQQggyhCQSDBRwSwADQwAjzxSBjzSRSijxxjxxxiDwDggRyhziihThgBzhwDDgBDQQwDDiRgADwwRghSwAgRSiywQwxBjhwCQgCDwxRTTjxTihyAgxyAwyxiizQyTShTzhzBwTBxiDQDCxRDTTgjARRASjDijTyiQywgRQxyQyTSxRwBgDTjghDjTgCjiARSixCCwzzxCTQjgAxgyiCywjhQRQgghjixgDBxgDzjygTyzACRwxgjBQyzTxxDQAwDDQwDRwyhgRADSzBCjQggiwDDiTiSwBzgzwghSgTjzRCiQhhRywRBAigxyADgzghCjShgQABwwz/xAAWEQEBAQAAAAAAAAAAAAAAAACgARH/2gAIAQMBAT8QQhDhap7/xAAlEQACAQMEAwEAAwEAAAAAAAAAAREQIDEhQVBRMEBgYXBxgJD/2gAIAQIBAT8Q/wACR/3sfyMEcNH2s1jB9rRUggckx5FwUlsHmCBkA1oBe/i6VAe5DeiHwUyCNRZT4SRvOj6g8A927+4nQtQNj+iLDEmuCIoF2OgeJm4rwAyRa0PVQWJd4jotQi1zR3STSfW3iaD2qRKlAaAlRgUHiDXkEsA1kvXGm+gzYDCRIayC0hIdF6gESSjAOgjwNsJeW9muKwEiy20FFKtMg+z2ICoDuuTkBEyhITSHmiu9B0iW4XYT3UJBrNalFQm+GGwkbQaoQagg+wgeILAw2ghIaraJqDQggVsEROgxghiDYJAcJEjXBvJ5E+6QUMqs3UQMjrFVg6DdDVCe4KkHdNcGgfsIyRC4LBJ7g0hcSE9AT8iVQ4BpAZOjom7xLARlH4JPIGUkxdgtYxdTwibwklsN6PmgnuNgJZMXwp3EsFK9q57f0fg6vIgRIzD6VfOphLKk3ndpNByBuBqg6hs0gP4GGjMTqAnYDEmhk0VpTIJfAAutYNZCMrqZQYcYfV53CQa0q6Mx4FNHKB5lgLNJdAiDsT1B8yJYDTBrBCD6J+icAgOgk3GyC6FY81SaycVAihDAN9jyIUPgG/QlDGUw9YJG4x0StQk3uFdvKYpNFPrH4CsAnIYJwDeTzJhcNhjiDBFFdZ0jhCKuvgL9m0G/RFZFfHoYkDA7AnBlIToUjJtlYzmbQb9dmCBoJWliUH4RNJcjpG5HvG6GOCeoNWFb1dTiCYfAvgiOIVNO9J124oEZAq5HxMkB+mD9qL4EQR5ouPRHBQfwZ2P5AHzSP1l8gi8EviJWBWSBcpI/UTwWAOwTh/K7/iF/O//EACgQAAICAgICAgICAwEBAAAAAAABESExQRBRYXGBkaGxIMHR4fDxMP/aAAgBAQABPxDxF5HsB5mOCvYVNBcBArPgbRIfKEuAGwMKxvPAeMGhfkfIhlwa5CsMaNkckMp4a4KOHbgy4PkAX8AWQ6CDMuDtwdv4g/4gAX8QDkHILgQP2IA6cDIQYN8F0eTgYMBUDCmSgYAkmhaDgys4H5CtwPgPMgfY+w7bD0OAdNAo8CmKDLieCeRbPoSAxEcD4QPBT8CpBfQNiUNkuTgZUwWMD8hCT9nQBk9gLNkDS2KkQ/SGlNkFiI+AYCCy9Ab8Af5gcAvFgEEF0DwAyPyG0QGIwCAuAFQoeE4NBUBQBgF2CsCSWgxXAXkNcIdo4Ib/AIjZsXIC/gAWI5B2HA+DMOMuTAVCQuAv4GenCzwPk/IYXA845MsEMP4BBaNi4Ey0csrB5GHEDDoVI3XDDgQPC24FgcHkyRCBgYcF5AQMOBA9BsP/AABYoaoK5AJHngFAkWX0PQZld/RJsgewGgJ0DBjYwgWARAMIRAsaQWAoNh6AugC+AMmDAVHAD0DYwmBYEcH7HgEEBkZBRwPgISGhAP4DCgUELgdMfxAXAfRwfDWOS9BcGg2O2P4Ho0PgfIwF6F3/AAy4kQwPH8G+EC/gH/BPBi/PAXwVPPBFBkPgFm+AvDg7BU4L4BpPAKQVwCBcDgVgc0FhBjIb4Dxg+D6D5RwWRZNhrA8iXoSB6AfAMDwIfoMDoG+ABin4AkGt8AQJIH4GO2hwBhRZOhAwB8Y4HQHCAqaGXjvgPgCWSsbTRsDkwFKEsGw/sbBJo4GFwCj4FEYKlmrgVuBhgfh/EGHAuQfJBZC5LIdOC8v4BcDoXARZchWL4YuHjll/IZfwy4P+JvgwxcjC4GaoeBZyOnA+QIfkIYYfh/AScB25D4FaA45B4KKI4Mnww8EDQfRhQfh9j5AEcgdv0Dzkewuhpm/kuYof+gKANkj/APAtQBZyZxAxDiYcEKLMUSPYgHYErCEDoYcAYDBx6heSQSyAxFTwDQN0Ska4C2BA+HGA+XIN8j4/iMjA3wVB8EGzIb4b4F/8AADsWBcg2flw/wCAMksGELgPh+XBBcNm+FyZTxP8AwFIMNOGMPhgPo4P+kkIGmEGex0FgfZ/AHkDC8lx88vkB0FaQwYL4FIMBI2P2F8AfkPIPHARkCm4FMBh2RdzAXYsBgNuwFwAO2BoHbbFBW7CryFbodgI2gFCB0UAsA0aAUzbERhrgEBD2KGQrZDp/EYDXAlkLqDD+YYcZLhjYuTfYy4+eUPyFyGx9iA/R8i5B8glw0YHoTwuQg+GIcPYPhJgVya5FyGFaB5Ev4BmA9N8BIKkfyAD2MGCsFgKxjwJkwF6PYXB8GuQUcBoY2QkGY9D8BQB/aOBDwKkJSBYIIdAYVAecOAVIHSw4UV3AD6A0DJtBwAKkhRALQTBpEgWCQ/qDtAFbIVtI/2OBSHbIdEPAxhlA0BdHEeA0G+BuQpMAsef4PYuCG+CeTIyFYD/AIAX44IL0PgX0EFyGTNC4NhCBh8g+OgwoB8EMiDRPBjD+YIGaFwP+AMYDH5fxAOQrkFvgrgh4FgGF0HJjkdhcCAvQb4FALsNjp0NHpz0OFcRfkO0h8B4CSYCkgDkyKiCcg7f0PJZcryDEbH+kZBvc8gAfYxDIKT5AIEJJ7BUmLDTIKsBsAw0FbhS3sJANAyCzhCoLLuhDQMmAaToKnB+wfIwN/yCDD+IMQfpwuB7FBlFEQ4CoF/EN8kOYZGXDNGX8A+/4D4Ekk8HmCBJJ+HLXDAeXw5MoKgxRydEL+IMZLk7Q+w3wKMmAcSEND7ECtI0fA5EFQGR+Qv4ABDgGAqD1wCwF2zyA8A4APIO3AOCvAyAYCIPMA4MgnQKYYXAB+A2GjtMDk5EhqzgDiUAvFcBQLexQKApTsLGjku5AeMhoSQWQaNDJ8kI2eRz6cNduHwYOBrkYcjyGBs4yOhjwqCuCBjQuywIGxgLgLAfDf8ABRgRgZcYf/AD8uN8LIscBgLg/ZsygYZCjQPsFAIfPC+QzPA/AWQ6cDY7cC9gYYAgx8gUnbgZDD8HByYBBzYMLHIFEIP/AEHsPID4BtA42CmwxlHIAqDzgFALgDtAoyBBg2SLPwBMBUh2aoFlL4H4CCgKgwPwfoRjZAuCwUUKiDORlwX54PYcRw0IdgXBsw/i6C8uSU8jpyGjAVHBGXDBBQFmOHzwR88Hw+CjjJcDQ9h8tUL7G/4Aw4GaHYZHDNcMAuDUnwGHtyfh/AHbX8DYy4ZTwHJCyI4H2Dw8Cp+Qf+QSvYXZwL6ArZCwyBrdi7casSd0PgOnI+B5BWAiwBl44Mg7IHyDAXycCqAKgOMiMwZpBxOjkX/odBEAcAYFPofILNgwBAwPs4IJJyPAUcA+x/xAfT+QQhhyFyeAfA+S/gPQ/sIKJ4euE9jA2HaRD4GXIY+GuAfrgX8AOwY9cMAWYNAf8BkQOCFCpIA+C2eHgDHyMhyYGMAa5NEg+gXg4MZNj/0PgCn9g3wwHgFoLgoBZDgAvgAxDoB9ANGnQ7Bh93A4B6BYSnkB8Dt5Fk05ADLPwNBg+UCmJA0x+xeSR6fAFZD0GwfAEbR+B/4FAgXoSQEIDGxnwPyMpBZWFYy2g8DDhhBfKKOFwnx/A+UELCfIzRh/EvsOwuHn+BhyZDcclYbHCjgwhDGAvD+AQJB8hXsK3BZGw8Ahh/BRwQfBipwHaTLDgQMHR3wxhwMuGQ5ge3D4HoCYD5APHAek4Awi+AwB8lQykUCZQsyDAwMvPCiw+w2DwGgoJhUNLzoexr+ywQA/2D4YQOS3BT04hBtDkDwQEPCiscB2AtpAw0Dg4YL2jp/EB8gO3JD5PD+Ld/xUxgewHOAuAYH/AAZD4uODsZcC5B8B04GuDIw5WcMh2DAyoMDD+I8hcPqKOF8GxjILgC24GEFhDzIrbHxDIUHnzw80IQ1wGGB+QuAIGgaFwDofBTC53yNGwooOmj8jYDtwytA8KAoXAF4gQYBYj5BAoQjsMPlwAb/pwLkFI08AvUkAf8NFHgsArQL8E/oOCzZN5GGHAYSKDseAkQgLQ9jGB9AtgfPBcFgMnhiPJkOeRYEYcHkfIsjXIMhZ4MBH5eTDyMPguEDQgcgqaBUg8B+BZ+AWMoP8EORAMKg/oIHIFbhBoLAaJJD7OS7jXAKwbehgB0gLgmmwoD4MJBhMnB4/sMBZXwRueB5CwaWDwEMlp4K8AxD+wpArAf8ApwJT0HgHSDkMI9iwXA9ArApIqOCkDQEug52KEwcFiC9h9hoIhEPJFa5BZQZfgDsAcx/ZoPMNh4sfLgD6ArCLDByRo8BoBZk0eeUlMGA8RyBcmXDDEwHTgmNnoIY+AZGxrjoFwMAw5BCpyH5cCt5MOE8jC+hJ24BhASfkZC8h8DsUCr+BQXoSd8NOD6DtyjoWF9BcgAfkBBeTgCZmAgMp/YqDoA6Ai+gPCg+BgoA5B7LgpOGuAMH/ACRRwH+QC4AC5/bkCaoOguxCHnA8grByMNGpCMjCDx5LHbgUy8B7DYfkSOhKIHwH0CpBXJA2BZn9cN5+BjRAXAFjQ3gH4GECxwWYLBcAgX4KlS4YcPAg8c2MvJoMAhj4IbMuFwaC4FGXDDiQQUNUIfsFH2cD5cHt/EAOwyMBcgtgsAIYyYAbMhiCHQgYYa4H/wCBhywwGfALgA+EGALOA8yF2BgZBDyAdMPZBUs4DpYGJX+R6iggdAHE5QeSwexSIMBAwFAMhQYBeAVKGAEB2Q7egP0HAPMhrsxYBZjgD/0D8rGGTX/DHsQMDIB7GXI2P9AQhkEDsHgKIsuAw2C4CkHoHoMKg8gcZSxCYNwaoKegx9nBBB9jD+QGf5AuB+nGhUEW2hs5Lohx7FwOkCPw4LwGQ4AuR8jgZB2/iAGA/wAjeHARPIF5DEoC4AqFHADYUgYY0DFHjggPNj48B24C9OBguBoAoHAOEH0CgAqGStAqXaCXoe7gC6kEkA1khQD6BSIMaIwPgEkiDyh0EmoKo6YqEygIBsb8Dc0BUHQYLugsTYHJ/Q0oCSB0YCt/6OB7Ay+gEB24BUbCk/sYCgSbpxGEkAuAA10MQ0DISJQeR2Bw94FSAOCBeg09h54BiFAZW5SCoINcDB4wKmeB4jiELgHwVCo/gDFTbMLAflwg3JxPBARQ2B+XAx6D9rkyFaDI2OOAfIOgFAFYcD4CsDmAuAx5DkUBZ4CjgsEMJ42Z/iADzwP+k/4zZsdB8ikBgKALSB5BhAoQWBNSCabIMOw/yOhAgeAPPkUE0EA7AUegPQA4/QHMrgMe3QeNj9AYNJD/AIjQlgaFSDcHMGAUQGX2GeZ8hYAwKSgfAplwLwB2LAwGGBYQMaAMFoo4aOAWe3AD/wBIXkfDgbBhgFMHoMhQPACA/fBIFgHwLAMuCAPThXXB+uBjJ/xHyFyBD5D7PZrkPkwH+TASFkOeAfA3/AB0GDCXoKUBHkOeGKFAwB04D8uB05BUBcDA0yCpo4MDAPgLQKAeA9nA6cFDKDyMQHmR4pZXAEB4RTAp6CQBAy4lQSmxA2rgFGAgPcnA/oGBRYDSGDg0SBsswDDSExhIgfsBYsz5BRoFIA7EBQaD4F5P+AH/AFBlgYCkB52K2BYAehkFQKG2FNP1BUwEHodsG3se3szPYSCwMIWBWyk0hI/bjoaDyHDDXAKyN8DXbhlThsSjh8HAeAv4Aw5AwK9uHwD5A7JcmEmx8B+RgGDBjg0cCpwBWFQuAXqcEID/ACUBgw+oa4EFHyZWCAhZkGw0KOD0MIwfYHbAdhwEHsBg8B5BsH5jsFlkDYbYA+wrAoAvcJRQLZQZGC6HwAsMFZYcGQbjhygvsLoGAAthC1Bgogs4A+weAx0FAF+EHNA5P0DaYA4A/wCELITcSwsCQoEksg+QP/wFyBAQD7ljgDQGAEAQDsMKgEwGC5AC4A7FykjkzYuwwDDguwHIVAszwLA3NhcjAFwFQKG4Y8SIIL+Ien8QFaBg854MH1wOASDhOQKyEB+08hgGRYMgvYG3wFjB5BVFArcCYKgKBoYVPBmDDyIC9B4B8AJTofkFYPyCB9A7cAHAqioZDuiwHwAQB2MsgeV2FagSD7CZjwF4AHBOgmBOAOAJtuALSzyOT7BlwAgwsAeSX6BEtA6Cz4D0sXcmNgNuAFTA/wClEG/sdIZhZBweBM1uD4ApIA6JCgKNBh+QowB40DMCwSbMunAw4SAEyAVInIdhYRkOw6EgZDzgH/JKEB5BCehQEmnAFTRR2CpwSWXAgRyJHIIa4GVnJg+A++Gv5BsND4MYCz4/gJfxxRYQOIwOk8DpwAs4FDIQxZ6CkgsyOzIGAYaEAoG76cE0MQosBGBEYGD4QkzJFbDg+oeENBpiJD2GRfQZNBglwBvXsOJSGTYNQBkw3JgIHYYsin4OIA6cwBfpyRQcALIKJBBgDYWK3twGuxZwUf1HSoD8mIEFDIGIB8h04AFSDgKIAeFDA0ApMhBAw0LNGwxsJABcCwG0gaH9joDsCgDoGA+AUlAf9BsIFeg0gQ4BhQ+xkHTAWQFFgwGVg4iRhAykPEDNhWHngMBcOgbWg5gLH8QWDsbEwZbFwIf4LngsRwXJvguBB4Ah8i04Gww8iDAeAoMQ7WF9hwPADDmBZDuGAClAqHosEhAcfg42cA4wcAhkMCAhOQdsBhrFgrWD/wDA/oH0DByBuAbJwAKhG0hIyA4MgcnCSw/sEIUE2CXEKkw8jK3sbtD8AWSooH+hBAbdmHFwMgKNkB9MnyA8igoNGQcCyKyB9DjgDogethTIFZgdAHoCDyA7QKD7B2HvkDKErtiRAL38j6BTAKSg8Dz/AEPT4CmBdHAcBjJR+xgFaRGRYYMAwA/9I9gVsBmD6BZEJyAv8AIlbIOgUFg9C5wFtwMh5JcEthzDjXA9CgC4Owgw4WGHDbPA8h4GC65Gw7DUlgwIGoDAQZIL0D3EuZCmqYBy0QPWR28B417FxGX6D4BIs4qgOwH0GADwCmgrQA5HHwE4bAlrYUiCABC6ZGzcgPoA8A3oPKFTsUMC2ZEsA9owefyBSH+YD6IjLvi2AfuTmBVo7Bu5BU0MmS1xAOlA7D0SRSMHBYIRAFoBhhYGpEmEQBdh0GF2AdmwC4QIWR4BXsFCAdOPkeIKAaGQeASkJhaoMxFAFFvgKB+QYpoAo4BtQkHQBbB7ADILsBtAogb0DlLA8kQgMC4CAZBhB/P+D/pHJkOglFgqSdYD4AbgFYEB/Y8AIJDmAsyFwyNAwXkHCDDhuAoNsNuxcGEI+APocgG82YDwG5CBXtAmH2Dk8ik4G2YQYAfIRQIwFlcIKxOwwQuy4WGGg+mBiA/MMCzNjzIGIwYRkseQOcECPVhGEArgJkpcgOoMgoj9FDAbAUB7gWYMoRO2iiBjSX5D6AHQxh+QVBg+CLIExwy/YIAgRIKeOAHkKgFWkoUiLdoFED7DVPyEGAsDegK2OUBgHofQ8qhaA0soGweBoYAHDAVE2GEhNjvArBaAFJLNHAMqKDXAHZWLjgCWQoAra9hsKiMg6AFYDyHyB1/oUyLEFlg0JRi+ISAUwDk7Fx9B8BCOQRew7SPkczrgLycBcgEBAYqHBGXQYoMMCBgrC5HTgKO3A/D9koD6B0B2D/8AA6B03JYKDgLHnkAsJy4IsEg7gK0EAtjgAwQYD9AZBQfIK0DETIV2s6gGVBpYNswPyCqCYBXkGOUFNGBYCgDmhDsBEgGYKHoDt/sJwD6RZaGuxD+zgCUKggIP6gSOCcg+wHfHAWcB8AaoFoEHoGCk4AXkS9gsDIE7AZaBQWGQOAPcFsBKPoLkIgNU7A4nAUk2OmBoNlL2VF7BBVFhhIIlkLwAUAd0GhgNJDebPYLpA6cAFkI5AZRAKRIBYUWBZGAHg+uzzGVrDAdoQwHNGHyPA48guwEh+AJPIHhOCjkgKAyGF0fxAQXk9D0JHwB4DDgUBBjP7MuBYbB1QdhoMhhsC56GDYdvApFkGw2BgYE4yQHhkH7AuwIHvAfgApKIsB2kGgIHkOgUMBufkQByWHQDDfCgadGQDA/Adg5/ICuJQPUAyHc6DkCgBmEiasiogcmzgAVBI+wxSD2ApkUnAAYTCsYoBhwFbwLOAMLKYMg0HtFnyaHAgUHoJo+AJaeh8wtjwGsDjmQDoeQhpQYIibzezyDXAjQJgoDD2OyAf/oVuw/9HCMnIXPwApADYBUnkHibFMBv2BTT4AyV0eyB/sBae1Cto2LBoA8fgHoMVlIC02ewUoEUgdIkXIHiHkVAyseRwKFgiQsJg8BpSEOwsD2HA+VwQgKnAoUmAsdBdDA2EPZyPNyBICBVNA0RQDwQMugwpoA5PyXIPwFgwoPABDhEkCTALqA6MD4gCgH8HYoz8HAUWkaZBOHAYQLhCAYhgykFlwgZkgrcAKYVQxk6PiPpcJfYLsAeggYAyKm4CZwBbaBRgloDIWdA7lhwE+RSLHgLL8ODUiCDUIB1rIRs4HpSdoMgdwDAo8igLIeVBEraA4RApIkB7zf0FQWZF0OFlGMHyMEqCo7BMB2BpAGTDLIPH7HW/Ji1hYsSFQvkcA2wcDIC9AdFB0W/T3xFhA+QKgeQfQKj/hH/AIDtAKjCATKVB0SQ+iBRCVGxk4RQSBSaOjsUjzIqUAsnIeuQwYwMHNICxBkCBGciAw0H5cDejgyDhpkFIVgwOgbeYuEATAblg7fkNSSajIkQCG4F8gLIHIhl4GCfMMPA7B5BsZOwiYCDQVBVYGYH/wAMlg9KY8ApgiMJLIGGEjI2CokWHuzLIPAI8DgVMy8FmOAgWf0IfQwPCkMhRwB8gHQJsURwWHgytZlofYbagpjsYFhWBaPMHQo2FxwLRwF+wDsDU+QhoCkhPIETDwKNBwbBSgkYB2f+gQj8grF2Q4AxyCXwDJaAgD2B/AHJQfAQeaIcSpegaB5oESZ9xUKDRdg0KDEPRGnAGLQUvsDOewF3DQKwfAKBCc4AqBqCyCPBYvpwQNCgIyGeAwuALHIG2QFgyQZeeDAOQx4dZOg9B3AoyKTtwPIg3kJEWtAzgaBPAyDBwgOCyKJSHAIEhQKACAwMOA5NgxbB9mSQFgw9DaX0cH/kCzgGUyCbQdCmgH1dj/2CyyTRwCsLBWH2OgVAt9BWYHwDEDBwBLpwOcgVgYYywHbwUSDQKxIUmw/6BwKdHYUAzICrcKBhAYQIArcEaFdoHQICYFMA8DRsyD4AeAOAFaUOSAnALIB4VB38CAJl/ASoCzZ8DgHgEIyBBPkK/BQkNAKkYCpH0Dorej8IoUkf6B5JTRIeBGBWsjgeQo+w5APgCRkFkhWwLoEwCgDuD8haFinIO0URvgCwZNESCBQAyyGBhwWPyOB0JT/Z7WIcBgWQ4QMMBwDLgRKQsth+AWAoA7dDyDg82MCoCluAExjgdpkGgvAOjdmzlDUgzAehFQbGX4OJxZacBNOAHsPQPIDgQDpI1kMNhQDx2/YosgvDtwMh+ArBjYugooj3YXAGPD+AeQPoCg/BwBdApEDALyCsjUFklwp7BgBobAqB5DAPehgxgh/sCBuBZ6FA2pAr/RgKnQIE2TpFCxUvLgL/ACBZ2DxgNIBiHRwcEynTIHMkBRwB7Afg/wCxycAjS+SHj8gf28DwQUSDfZUFMHABzoQJpfAsiAMBqDkuAYL/AADIJA/sMoge4KAawDn5T2YF8gswFdguoLQPAGMgTZHwNcCcRwD0RE2RLgXyWOBUGpLHyAATAdAqBQPy4LkH/DMmH4BsaDEMAqAyCIMHAh4PyIMwfoTI4JgID9gn3LB2PsQW1AAv2QgClOIxDhAXyLoCAQLP2CkjhbPILgfQJmw4A4jJIXAWQZ5BycB5D/s8QuADtkbAMC5VCcEbB7DgOciGQ7cmgF0KgtGHTgqfsaJEgKwUKLL0aUOF6AspQwyDkC6Cx+AgAUZgVoCACp/4DxD/ANA9gYWYSAnlsfAB+oMGFQC5+w7YAQkHTZwizBAkYYBhY7FF6AsWoekQNexAw0KwEC2AXgJCVR8gaZOH5GAMvUNkFsKTA9CAFAMOBAkE0gc4DgI5Z10X00H5dBWUIMGgEDYHgBkNP2UeB0wNqf4HJk+46BcKAwYEqQxjueCZg9gXxB+A4BPkAFTAvIOHhSTVWf8AyREbHd+gfK+RNgXv44GBd0HZCywCoB/sDgawsgHpYkEc/lyIFJwFzIXkEQYApuAITYYLAw5A/IXEBg3BRPABApOMLokp6CiE+AMAdQO4JYQEYsfYIG8lmDth0DAdHbggKJDp9heAUAh2HYF+DZDQWg/2DLU8GQSAKj9gyYQDtOgTbUexbRo8sEk2D4AhYCxEA6MFRDIEDFsD4eBnLYUWfrkAdpoqNg5GQ8ABdA+lhQDwBvofQNGjg8YBUwCAEGDoPuGzUbCuAWQLgG0FbPAIEpWS4CyMvItvwGRLJ9lAcEipAWLOQPJHEOhYGHAfYdxImPgE9KIGAMoPUBUHIDH7AXsaCAUwMmJIdKNBPyYAhMMO3RZYDxgHAPs8HYcAskHvDhRSwYCZqBsDAAyXSOOggYVdBaeg2DuCnuHIgFwAMMgcQ9CxXBLwBlwB0UgczmFsDMgOiOAbEewFnzwKcxCg5AWWL0FTIsWGCPbgfgGAqYeQmBGzgMOPAy6CkygMDVmDbidIqDaJDgG5rgEgPI4F54AdgyC7Dgog6Yeguj2Dk88AvHGj2LMEyw8AvYGDgwPsH2A/6DkFl4D7BoZenCQeSLFgEZYDoB0OIIaHQ+zVgPgPUKfYQsG2CzQMgiUEuSjXBMHkIArGQJGgHa+AD8DDAZaCPzHgMm0lgPUcX9hRHAMpCih5/vgEwGdg1IewoYggPeAXtZGTKyCmQMXIUC7IOkD6BwaWQyb5eAdk6CgcFd5xIAi1VlCggGGgHcAugGMhC4OSwOYCwF2MeCztZgfkKB7AqAmxoegPKC/uAzgF4PQwiRWhU/IF7IUi2PCKm+g7NNgF4dh0Q+BeBRwI8BP5Dg7BUUxRIUB04BuAGJSD8BgZBB0OYLGAqeTsDyEAgBAMuEZCwBUgBQQaFB5BgLYXRwBfAOwg+AFwAbC5AIKgX+AK+TDzwXB2BYAp8ispOx9B6D4cHQAx0j0KAbDkCpg8gavhZwDQ/YOEsYBB6B2zwUY4TjkA9ECY+B4Hn7B7EN7BWdcB2kPADDsGQ5gUFBLgoBzIFbz1wJ7WQN2g9QL/AEKOq/3bHDbqUUgLux/QAvMMGN0+DfyGPp2GJnoucxHB3kJU1AATPGUEUsJBJ7O0Cw2wiYLAXzJNBPDhILqcEhRDWeAwQYD9IG2g+5wQLNnwODgALAHGgytDLp+BlxC/sC4BSXBSUDQGqDMCVAwzYvkLsAdAKPLgSDLlCZFAtBBoBZAuAf8A4ECxfgPGS4FyMPEDiM8FlPYdigasOTyGgGQ3sGgHQHbGqk1wZA+PkcwQxHkO0jRr+ioGgiA/kMAUiHYCYDoeAXAB4gMEOZB+gH87DyNggB04AwBgDwUAw5AZSBlB4CoDAQaPwFBF8gCzDD4B8AslkKkC5DOkfsTHbvgfiLyHAyGzaA4dBpJI3QCpqBVmx1BIP+SSsYdhghmkvZRaQXYCOpg+noyx8zYV0PRsFTwBdglLBxCdiHoKwbYIcDCwFqA32ExVjwCYOpAJH5CyAVB5A4shMQLAPgD0SKBP0DJIHRIHjI0nAPLQsn9uDEUAqAWOQZZQfkWhJMBowm6gwLPJkCQGEDthj8joBBXArgBoLBfeLysNTDwLA3JOE3gNA/wKi+QP4D/oE3+R0C+kDeQgCAf+zrh0CpAP2O4BU6GBIyIJTl7GqxUGEBQA0DADLxwjD/0cD2OBMD2fJOG3vggSwoAcnAAf2Pw7H9BjwF/6CRhZA9hAB6DsHkKvIOPJsDg1kIRfwAHaRgyZAsIP+wD/AKgHQyGgXgB0OgmKhyCL0Co+AJADD6g4WY+GyApDoBwgsAVB8gUAPYyPQEAeLYzBYGXBCZNBdA/8R1ELigOQLABTBwBlWWcAeED/AGA9kBoZ+AQC8DITQGAaguB2YKWiBOWKTAChP6C3IO4j8gUxAbCg/MFYgwIGrhHoOAXSwOgwOugIFAC/0EAbGUsLmHsh6WFoMsDsswD/ABxf2MyCA7YcGu3AxhgYJEdgeVYsg9kENguyh3LByDDZrRwuHAYAsUmGgF9jIknbNjCmp7cB4AOTKgy8DGeAIDmAWbB52UWXABw2RwHCdhuQdPI+Q+FIHQakZRgPEPAMAoPRwQuBAHAFkjDp0L0XAHNgH2NAFQXIbA6D/YDHsjgVgfoHYLgpAUlAMTQYBYYNMH4ewBwbrIwHiCADGAqQLiA2gZAQDAPIEvgTAUAlMAoGoKJgA5DeMXQdPwGC52FWXxAIF2C8FJYByfoPpDBQc34AUwmYCKteAu2CEB+HCKQhxWYIbEGFvBLAMYA5zHyKLDFgf6ALgvBMUB4DkYoF8AQKgGRHxVGqEJDeRtoMthhQSEHYBhRwEoMJRwpQMAYAggSgnyNBZwAvLgciBexR0JdIGDLgagDYOwPZ4NAZE5ngH5AvAyar+nDrJGEDGT/gDyDwGxKwdqCAuAIHAlCESGwNrQP/ACBICWYHgBOKCA9wJwwcR5AYWvgMf0BWgExxBoNBzMAPEigih21Ex4gUNwhndaC38hZUKAkkHA6Ay8GQykFbsLIEgFazkygR9gYDoKLeCgUCSMg8hPbyFX7CpILyAr9hhb+AACCBowIk1p+Ae6CWgTNkBgQhoFJLMRKcIEAINtTcD2dgMgUcQPaVJYFqQYEeIF7FwH2HyBkCAG4HYfAQIfvoIBwX9uA2Qw2FnnobMMg7B6B6FAMA8IHbkBgYuA0Bl+grwOQVf3yF6HDCawfDgX/gMqJ8DMDshXKGGAPID0vY6lbC4DGB2g6YcBYBVAeFodgdg8dDE5EYBwB0GkAqDTgHwN0aIfoDsvkH2AgLD4JWBx+wFQdwGs2vNwD0mH34uGQX1SMYRM4BRYPDDsP7BCacAQDQiIKJeQgB0mKuAjcmQbnQFoCkOkBYhJKkHsKhYUgDvQKOABdIMBIkhkH2UYzMwBhEhe4F9DzAKEJgDQhMhEDsFGAoAnFkcgElJKS2bBTawRZZtCqABbKChrgT9ctSClcGR7GUAvmEXrcDaYCZEYZWFANwHRDzD6yPUgt2aFEzY200QvkCNbGDswt7LBVwFihwB5IEioEB3+EkwCJ6HBbDHEp9BS3kGzJIF/YGgFl/R/YBSAYCxI+QEDQYpJMLfLQpi3BlQOwL0BDYSwBsGEUDtJlwBWaHYZSLuDDZ/AAH2GAsBgrgg2HIHRAHlOAXxwg4BlwFh+w/IDwB+kl08LALKJMwgy1pFV2d9+gRJ/xKD2/KwXVp84AalOkrgb8pD9z1cgrHoCgyO3AqASBA0QrC4Csw/IU19j9hQlkMP0FP9A26dGoAWwHRAvAHcB+w4UbFgLAYLRsQSNlUZFcW6IgOCQ07HQMMD/zvQB5iRCIC4UEz0aUkM+xQKAA8mIXR/gYCMTdZiZEETfBhSdCFkL2EawCEfzAbQLAnsLOkBMALegdGwW/E7YjQIEw4ggLUxCsRP3eFtQCQz4Q/rK6Q4TyqIf56+enYQpAjaorwASH+zDgSAs5CCRZBbBwJAaB8AEB6gkGXgdgQYHOR1B5OAXCAMCm8PAmAsAFQwkl/YP2AsgfKDzQJQkA5F0IB0CwEAvAcDDQwYIBeQ6GHIDAPfo9BvglwHb7cBwAdOEHRWB2GESw5nQ8TCT/ZkCAQTGY+gDTsq/pAf+T2MPKdwY4nRLeIq+9pSJCW/eSQBKt8zxAD0f2hAHnOrPItHAoBoeN+wweT5DegNcPESFzaMHaw7TwDxoVgPkexXwL/ACDAJNTAXlYY4XANq1wCiA9cAwoPB5DDYY5RQC9B+3BgRMQPLFidqBcAQogWRkj0HwHkA16hhZxYkHRYKJyA7jwlrnY8fuMJhhJkAsi2GCv8CGGYTAUOXAB+CgbhwzTgxqR9a1gDvgAxo0J6AFp+xgoUF6H5ditgbNT3y8BYkFGAOYoJkHoBAJTEmInBD3sOlkPIx7HkYcAQQ6CoB1IDAHkt+SQLgArQXmETYGAuAHtDBLQCx+xKOBoPgbALGoO3AQkMoHyYDBJcB+hwYcDBzBtp5MACwI/Y5AO2kT44gxC8gKNnAfYYBEwC8hhwBKNcPNMRMWxOHXuQkvYq+Z2fAKZxKrBx3ePyYBqLrjAE91lgv1D8jFFzxBM/RI/DnPkiE+w6f44EB36eNcFIHwArdCJNoFl88ASlAyg0BUgQjaASnwJ10PQFAUGQ+AobrtwSNg/9BMxkOIHwOGOmGe0SSwWdGUAYA9EKAMoOZTghTYtpBW8CkHjg1mEFgG2BT5PfBI0TIF7HyC0QjkTReOagVkIJJT5CsvsCUA7CB08IOCE88BCkIuAHuw2sM8mYkXNVNegA7egY1v4GwvQEwWcbDMIoDxPYHieEGxlI9mGQFb7BUpgKwNMA8nQVgWgExET8UUfIcHOQnoSxUi+Q3mQjOQKaz8gH7Asv20UA6BgBh4A5AcH7H0cCsH5CsPgBj7SgjEH/ABB0JIEO44OkAO4sYJA5gWUGFg6Ai5RUCzQfsHwAk2BwCTLTgKmQrZCsECJYBBW6Y0vOeeaCdGwcYiscIsq/IJu8nAJtBsIIFcDP1og/R8LjyOT4FY1gIyaUyAoBYkKxZwCzYJWCAJSew/xC+lyQg7JwHnJh+TgKAsAP8EAYWCkonL2CGeBBWFWFS4Fhsf0HTZUqYUZ2gwe8gRIEIUoCWoMVbDq5/AyCoCg6I8yEssyGdQOqMIN8hKaBVyagJACjECTNMFRWQQBm/oAgoYxsBUSQXQDBsLfom/7LEGiaAPzhZlxxWn0eM8ytBAB/yqigJqEPU+HwNYMWAOQgYIWNyAQCwBx4PAyHiQwIU4Aux+hdCCzQHwD8hAitMgPoB8gwAYT6MhZuABvIQuUD/QcCQoPI6wMpCxj0MjgBVGQyFAGD4D7iwh12R8AODwP8gZICTAbOIJpsF7QgGQs0BR4PQFUH+gcAUATL/DkADoXqh0SDVa+4F4bAAD9ucaAjrUfqwNRmMJWlj4ABWQz6kA07MVWQ9APjWP8AkiAWAeYAciD/AHEZCj/tnjLs1mPoMMAVAsQEQBQuhYAmCpbonAw4HrgDoBpCz6RiNkBqHA4KBaAHJOh9FhwDBcAOgIIPEjQSEfIrJnAAkoMdjwAflIUYcAZtnAx0RQaB4JHlSSFb9sOBfgPAFNYR68AOg6B/cdJhsC5EQITTjgpTVaTwFBYCRD0Bvsdz3BJdpJ9lfAUACSzJGDvWVid7gQZgl0SkeE9hGscZjKB9OOZQuhzyHzes7YWIx6B2A0zGBCJQLCVT0heAZQOC3sMD8AYv8h4b5BWkPKhlr0bgsngKNehQiYAgyJFQqYgyGInAPPAZX6GAYQ3wHlSHYPMkcIegoCYAudAaQTFi0HbJiQMgwfiD6BwYA4NA1/ookGWgeDCDoNvaCaBhofIEjAdkijAOAoIObe3LIsmhwmKIjD0zzvAXHrcE7ITiwzyCywE8u3ZkSgPA9euTqEuXg6NwKnhpqANdF5ODoTHIj1/GBwPhAuA/UGRoFZsB7BlMjZgQQbAKC7D6RAFsPkLsIbIJFvYZgUlGKkgq+QLPCAauBhd4UXlREkL2ehwgsdBySoSjAxnAgAf+AKMB0KDDL2E4Ev7XBSACda8BCMCPPsOA1YxsEOJnzkgfqdZh4NDE4jlVCD45AQ+/tGEJ3lobAfflCfP7NbED5QATs0WIwDd+CCLBjx3XbCiQo2HMUtAnnQX4oLhrB9HAVQHAClrMJL+wfyDygYB9Dgjoh6gFaAUkokTNgLL4AEIUWQ7CQPgOn5PwFnBQPIf24DB+RQHBYfyDXZJkDpT+jhADsJz0EA2AjwGm0hPUcnQZMB5oFn/DP6AYP8iVrwEJgSSCkQgMuK+x+BYE+jLAeSVG9wN0d+sE86eAhP169uJ7SWeEmE+9kUBF9Lfmf6nJlsHx7LADYG+B7QArpVKmm3+0Vk9np85SRmQl9nYQM8ywCJeYUU1YTxWxhJgEDyzAUyAEt59cWBO5pz2Isx8IvgCsUDpQMn/yC0BBgOL4AYQBQoASAW0BcyHBYIRWsDL+wpkkDqIgewKkyEDpFgpshkDTZof+UyAlZAtk8AsUmLiHAUQ9TC4ARJZS7me5C26BGg9QCeXjDiWAbEkhkjp24yGqVqMBqWsZlBwQ0F6EssF4DrAqOQBg0IFMZYUAXqCYoYAnuAeoNyKAw/QOiAuFwYAc6HUNWMkGAFjYTbCvyA5ErBg/sNC2dgdMOAYMLA3R7K4D8A0NW4PgB2UYA8MBzcIcnAXkPYBUAdnBjIomAssGSgeACtoIxQQKQBSAy0K1g/k4ew7Ajvt6AWiQ6wPFUwQz5BK8t7R6uqfm2CiuYZlQJpdRBrGXmhUBRxscCAje+NeJoy/cRrBBxcEN2dgG2mDh4ERlNwYoD9NeD/0ItqJ5XQBLU9iCR8nawGoQsMA4IHqALwVe2gvsUG4E8zDLwLaSH/ELiEOgP4DgCscBJ2DIKn9ih4JAeg1ALmh7CmWa6LTHyGF+p6QfRCAHEkggBgsMQnfkPeXGQJEgXtwbKFoAZcD+I+HgWLQegFPlRf4yIWBhZgDwmFwwcAEfoAaAeIgPICCcATKIBAFJYM49xSACjEA8uh+4eBSQDvYwJblx6AWAiGBNJhD/AMBsDkhhtxHoOQCjAPLBA8ljBp9g7gLJwCxlCB/YebD8xZ0KkuDYFQKhgdkbgDmWA6HsHZkBzQPAdgOw3E1oKBQHO8ioGeRgPyehr7A7BNMDL+nAP0C4AFwSEwK3BdHB7Pyigzqi/wDoQEB68gD3f41ghegk/v0DKUHuJKJ2PgdveqBFxix7QYShfwgH+xoDgj1gm+I8NxhDRCRIrn5P8hmoBYOZXyACvVi/sEY/F6QNyXjzc/IdybYRMXb0ewnGjgnyA6E4ZrUPlAdlV5kIcKpwA6aeOToIv7gZv5Ai2bGwHmFoPcFSEP8ARL8e+IaH5BD8zgDFNHoG4C8x3AgDhQoDYBtD8+aguHbS4MqHXelgOwZLgAFlwWQOgoogc9CiZ3gWBKQdHuJlpnoLkQJAM8BKAv6AVGh93ER/oCo4ATsEQyhhsBgwsgwjgI7fYUgHPAYV9FqHl2FmQTf6H9iIDdQZAkyByGY9Gviy+gHhAUM0AYAOYOIL6BIVGqDyPsNjThMAof6DAOxEPyGQMm+PDjT0JOAGxlIwMLCmPpyhA2BJEDyB2Dog3wCA7WMrA7D6RySObCyfAMOQ6CRoszaMrIQj4gisRecolE4AZ4IBek8AaPYAliTMJ1lD+VCx02EBQUSH+0DwC9eV8ANGL88UFdWn0A/XymCI6fRBvtivVAQnaBjptXHqLhJ4BmQtTQe2SBXbuyEfHgRF0HnchrtGvuQDi/EALUCLn5MJLMkEO8KPbqDn514XMLkKz2PACzn/AGDZNpgVCQ8ALgEyBBZyFoF0C2BAWiOLwCpYFoSB4C2rqB9ThvxgcZNWRnvghOKBqZEoFyGHkswCUnyVwK7A/wBQXoKgLonzgYFgO6ESA7KBgVwBTSeBJ38HZoU8OwEVJJEAtiGQFtnQMBADnKEcXcX3gCds+ghRBANTMQ8N/jp+A79OkI/dACoTP9JcOAzRcKh2/wCEKwGAfQFlLg8YIf6DA/IE0YdwJQZTXBACzLQ9nA9gQMDkJ/5HEeTEQBE7ZQPIjocAfAsAYdrMfIUAdgyfgLs4B/5RbcgGAwyxUKg4BaFsD9j1wL/QVCY7caMUvjR/qrcsCP8AIOdnvhCbRCv+4LAIO56GB/VUcEa24V9CWtikJ9dW4QjCYw8CA/3AuwH5ARNDof2jSBSZlAOwNwI7NhfIGGGGkQVwSnw2KpQHR0zBoZkJ/YDRR8bCXd5KY3wMHjfConyHYdgooDLZcvDGRoP9oV2HIkINcMCRcFEACkkoXYlEVX7gR0hBSCED7AqCcMA/RAPACktvgYYGQQKKsYQYYHUcAOSwWADjHdX9AMmO+UEHQhggqW23Yl8wTiekJ0BicaCHse6Nkh1IU8KjEEEmqJasEES5E2d94N08stHB/wDSiC4c9kbE9QBgTSQJZGOA4OJYP14wEiO2YBJC5k3ZaCA2eAVjJgKmA7IgsGIgtBgjY8CgCToCJB5UDDPgBuBCs7DkBaDFwWANyNcAYDoCkYOCgOwN9BYnQclAYDieURSAfZwGkxBuBAPQOA2dvQ4kX+8LWCGRLEAvqkIKW2IpDuLY0HM8ABgg7cAFQGAnwwzqTtn+woZAYjdARFwRWIO7vQGAcbrvPPYPM8CCWMFYhNK8qAcOwFgS+MFPxtoLz/owek6BSCpGH15HQMtAVE0W0MkoJdwQFqQAkF8lwoCggkG0iHOGRDHHOHKhjkA3YIMnrAjY9OEazQC4+gYgSfiI8DnhDYGgien9bOBG3X9AFMaX6CBB3PyDZUGx74IfxtEYuA0Fnv8AEK1BfkNwvg+B8AGQN+gqAiMPZnpfoGL9/U0GS6zNP2wRMAVJB3B5jXJMF2gQCRqCcaOxnVBCvgBgLIDb0EAmKhAp6LgMI8AqlHky8r2QB0/k5BoBE5ArR8A0Z/QwGKhPglagbGhdsGRoLt+AJEg8mMIB0DKEQQpIFkRXICQPMFysBuPAuBMfIwRZBvoPyHghPkO7bsSZpBwAsdBkE5bHbsOJDQ4FTL0BgaoT5AYELaaa/wADQ4EkgFWABzafgBxqB3/MIb5GgSvxquGpAN4nzwCwJDzP/I/AdLPIuRYY8VvZsAXhPEQE43XIQGqeCSryAVD9o4iB74kwRxRAh117gYB3LZB4FxAQGAFs/tBEof8AgC4BR8FcKbiM5emAi35hrBuIAclIFkgd9gFYAVlIUjADEO/9AqThMGeUFxRRAgVBB0mEAsQwsKAy2Bh5V7wV8guOGIKy3J8MxemEchUWCGyqGIt1kixB459gZiiFKIbwxmm+nMnqmMgPdXMcD8oFJv7CnxGDGiEcepk6wYddDK/AePhGGY6H5FxeNGf58HQOQ34+okp5TA6AzaHYbEAnGBRhBkCjwQkFKdiTA/8AQX+yJsBbSDoJ00I2DK4LLgDsDHIPyAMwHsPkG5GQ82FBb2NBwIFoDKEh5BrdvIv+Wj6i+g8Sehk/KGj/ACCFbDyMQ/8AiDBzgYHxBDwCMnyQIGBoB7SwyDCAcR7AeAMcvDiCCQNmwaSDFnIIsbLHzdBTZ/uAm/t4fTwZhfUmYFB3kLsO/ALNAygYwySWbm8BmL8gEIlIi0S0oPioyS2wn/QNCwd6SAPtPmepGGDMjMgHkNqAhucJdscrvT5AV8KqBBefDsIDb/uIT2X2eDYCx8A8NhhuCaQO5fogSTQZBQQditoGJoA5dakMJAgsanALEJWDgnyEtCU/YPuETKfImyAHIB9jIH7OIPZqQ95DITbgjzgCqtnhwAEYRTyVceLQHTYPPOJBTLSWeIN130gau6Fcg0tSBk8U6wMTBTR/gV1gDKueopS0QJ/C4X4/CeJufAhw9wYw8W4QZajBwRj2D4bwALAoDDoHyIpeeYDLIVpGHAFQCBp0+BDHYvUMGsPzwBgfYkSS5OAHayQVKfIdNgXwG6G2R5hth1AHAHySAu4HNlfBJYA80flwCtoPADs18C2KFAYgfcwwAbkDsMuDsECA/sAX/DAsk7A9wNNgdB00HUZdA6GwdkJAOgOwOiHRODtkuQRS3QBxQZZwDnFbNe0c7cMeqZMVvX3HHAa9Yl4APbZ8wQ/QLKhkXlwRIakDnQBbAC8nKgJKfZI6Bn8SIJr8EYZAZmhEj4AHw5geLRlUAQ1nwiHoVCHAf8vCZsQUlQVgWbJhus91U+1IcC/rB50aCJRsN4B+SsnAPiwhQHbX43STE8aS4WKCC51hABWwHZRBKNQTPxEV0lk9D8w0Xwc1XBABsEZZAo/vTwEz5JETQLihRAYkB0K4DmsDjIDZNdgoA8gdd4CQO+Zf0CBC7/ZHmJBnpBWgK8z5hdBdbWADjmNIa/rExmVgD9hYAB+4+EjEeksgXvs6WA7Pi32GBgVOA7PYD6xGtyPu+AnREeGCtwFsKbfgWcgoBUwkYCyQ/AMpMkZAYCCBQqDZKYJAKZ5A/D9jBgHaQs7ESxQr9h6XYKLIEoRaBMDoBtD8hQH8HTHsAKkhgIYB0AFSAlWJ5QBSMBydAVshyBkO0BUgNh6A9hhcIBtFAHg9hwMSIeZHQPZIwEC44AD/AGD0Cb0GgVGBqvIQsRxna+qwuHtOMnAxEfKo0Bm+CZZD6QGxIH8hkQ6vZAbQgoBNJBgwoBYCEoAkNCGj9CcrABZL6JLZA+LySMA2kEUWJJBfqAv/AAAO1BAHjWbCkRDosB+NqQMcMZJUJPhhncPKFh04D7WQiv1zCE790EPZkLlCbJVqAV4cxgCzphE9n/k8f5BN1yPEi82xBehugmCJ+TOIJxU/sP7Dxq/hFB/HoTznEUhB7PL6YCXA8vQRKToGn3QJhIAkZkGsBhZBAiDPYtUSXgGnRTlgjwNmmiSE+wLhWICM66kGR9VAi4B8wnj2A3GtqYfUMGhD7pq/RIjtgFcHCWhOh7MAnOHEBopQK8Uwe3sUBoKwNASNDsuAKLEAbI1BRkD5Jd/QbARE2cIMif8AA6CrIS9DJALyJsEAyHJkPgcBhAQeYSGEWiQoA2IcKrMwkHc7zD8jAMhzUQ/+GRhMgHYyEokFXIwCZQeQiICr/kCAGJLAWkgykHNgN5DySJArASUIAbAydpPQDFkgs2fYK0i2C4EHsZjSBapJYio4N1u0VGge54TDj3rcQH+Y3mEDFxKwkw+BHzBdAndZoegSEsAcYJRIFwCTOvyAbJmelKbBd/4RseAmJFVuCCiHBZhSPHoZADBbybwYjofIFHaQTNsJwLQH70J09AV+HCQE+Sy5mCQeZF+ApgLiYVc98uDiaoeiHh7kBacVtBfNDkvALeHOKW/aZ7AE7ZBMQ8CPIVAB0IDAVzITK4gi5XYy3hGHHq3gh0DNPwWMdfSZg3pgAoDjpzwYZRHwQ7ip4HLB0hzLToN1MksEW2qDm2RP8WOJL6aFodYCGjhYDOYCZiCbl4sIpTt4gpAYcA/ILsJMRAUjWDIHRsKPkBrTyD2FGQSZS9gwA3MUKmUWkmwFmyg7g7FiIGLCAFTKBUgPSCbMAubdiUirf4DsgODKNnCxgAbxsf0AKGYKFf8AIdRyLJJDEKGGgen/ACSA6fkQ8ZA67BNQE8OFJRoLwB9gDCEh9Y3o/AqB7ByTwjUtjGYYCmMD0EZA+ALAXsf8QMnSbhvdX8hQwxmilPBjAitsMUtb/f3QH42e0GNULWYMmBWkTP8A2Af4GJC1eTcDYC6IhQkIZJ6Af2AeA8Aqg4HjAmNBbAVAGbgMx4tsIP8AJaAWzx4o5Tcj6skpoBbWubQQZMZ5kwvYTDl4h13DlH3Vzdc2rgZV1vUMWYQaAD/vATyCG4UEr4A6BYgE2W8g6h8NioAs5QPIwuzhJGazpwPcglK8AbgDGZFgiX6B1QX+UMbBKRNgSNMwbRUq+gEmbJQpAbJLD+lMZI3KBXmOOCQYOUDI1z7Q3/qQiNwAKAQwBdAi8pGwQDAGAcEyDpfAmwdk+AOzPAXsedDmZEwsvINNgYZCdgzwI2AvoYCBf9CBRZA0AcE/SewMReTA5gVMPJdAIgKLYKXBhpCaYHKFbAcfgXwAgMZAUwFbR0Erp8DJFwE/JH0FAaQjC6PIcAGA2nkFJgPBkWA8h7A1sYDoMHwEH7H2Dhu3DIVh6DXYQLv7Kkqx7cBb2Bj0ATEh66VQGEgZheswpsQPgAKrIOx/BclA0WA6f02f5gJoQeA8AVkYDWzGkHJF0v6AT8DBvPYdsBgCodgS/QIDpMAecFQoT0WspQf7JcXoPWmv6AFcJBF6UuMYIXfvjchQGChrDgiXOQ+0YfpcIn2/WqBvj0AcDiHoCrwAKRL8joMHYLGGw0BFIH/kAsvAI4geJkFHC1IFJ+voDIamOqAgLX+YUugVuSnsL/AaKAJigEoWgCTUTwGpsCt9gF4BANiDQRmYCQ4ByIRdYFlBWBSLJqQVuEHNQwwBsC3BL+gOWJDyAVILgThAHSfAxiSBIZBJLf2FcEjGigUj4EJ4A9iAQSmUDaP2DDIMJDoO4QYGQC1FyAdtkRdhtJCN4DsFZU/JjsANqwaoFhAeLgNBL7eEHFs4IwIFBheRP/MbICxU2GIn+EG5EgOADyCYIrEZWYhAXANjwYMh5Ab2DoHkHYB8DIOg9GUBtsZAPb7S88DCAQE0YD6wFzsBSZAkgY3Aab2C2wPPSBOPwWC2Al8g95AGyDBAl9/sLcLAqwKoXG/AdALsR0MAyTEXNBgH0IEGdgiiS+xk6FX5JDaSggO2Q04AHj5Q3cqUSCOrGpTAqCPa4r6CihHAUUWtMFGCcfICbMB5gsCgwWBhP4D/AKAF3P0D9uh6AaUB2uwCgDsgxwdg4vhGCzdZaQd0wBAP3mhMZgX7ANgFs0nwH1hDgXYCzzoVCBcdHZoCBSURKafAuTBZhFiLgB8vIJElGgHADKgKHUCxTu6MZrwADgA7Hwd18B9gLg4QTuG4T+CPQMtmwItaY9BoAgfkGj2CXHyF4weo8jxIBgsA4jQcGVxIm7sJWcAJzHsPIWB0RJ8gaISZIRgBhZAY7oArZC72AfkeTyABF39AErs6ENgJSyFJgVsfJa0AMjBsKMD3GR5gZOyZHJwDCgODyFQB0DAiR0Cp5LB8IgomD4DQDr+oh53sXUWH5+ENIAdKjtAH6ekoGeU5/wD6YIB8YioQmaW/rgAyhMn4eJAc5iwQHy2aphAAkfUUwFCsgGes8IYQTb6ZGOgXS86aAfkMgQPANeRhNoO1hCAWIAWiECPuFJRAuL8A7QLOApRsdApAw8j/AMQKWSh5GuRYYGCEFBgMgBoGBUBTLBSBsn4AV9NQPKvbQTR9gVphAOgkAC+UB5/kROw3AwwxAtoyxhgXuJkcLAbEYCwhEFILgBWBzZBjBuEB4GA2QGABSA6Af9AH7YDCZAyCjAxoDCdicA5aQJ6hyF/TgQUksBbihBdllAFaYBYgCkShfHNQAiGh2GEBLQeQCwXABuRZ3wAHpO0LcaF9Ax1eBKAdgKYDci4MkBxIE3ANYYLlkgdY9AZFAqKeweBn9AH0CwZnsDKuADCBn4EF34BZZgXkBTMlBQAdPkKoKFx68AyjZvgItIQwD/0OgGBg7IWB5DYwIN0ESQ4UBIAkhL9xVSP7UfMJEBnI+MoA2gP9gokKTLwMy8AtVBQLYtBSS0hGAxF9SBf/APRzAhjaLfECmm7fhApOkXoAXg3Jgo4EsBQ/Ao8DAqFcBdgOECyWBUB8GUWBZq6LgxlcENJUDDSQP8AIMBjIw8jyCpIwyMcFmXkeRQLsvyDyx9ACjUnryAHDP8wFAKtOANo+A8gB/eBAQEwYqhhjYgc4NqECUeQgkDUKAsAaYhBDoJHufQ5miAVBfBAdIkAu6bHuFNOJiUg2Ad0gugJtyJGIYDmgh2eQPqh10VSFE8H8ofwChkf/ADCEvkFRNYlWQKMux1zDI4hB3JCwGz/8C2sG6AooE+ZQBQwKgQGIJi+gWZApMwEYYF5IyyC7wM2QPBAaAJhE0CrARhwENYHcAoCgFcA/9FRvgYGIeRsFACwyGgSMUBzFcD4BgfEHb+3InwFnAdsfwAH0D8hh/YpAZBRuEdvR2LFiQJE2F+xPCVHbhStGwCyDtoQKKQf9pyeSGbrV/tP0EVL7yFOmYoebeUomoFgndTsjWBj4MxUATvkGGwD+qBUCPgHsCz5AWcIHk7wFkg+8SmFQNWEj2OKegNAElhCLl4BUtFnAQIA7gD9A9QNpANqvwJMgX1sTErgIBbVL5tAY34ig5AtT8JYJyuh8hWq/BhsAGhh6VxCy4KT8B7AbJQEA1ZvobD6ESF3UmCLAMwA7AVKwvSAoPPAQdmx4BqgOghEtZY3gF0ALsUB0A6tPkHdmP0BsBCkoOiB2kA8o/wAQHQeQhiAS/KhWwAfcAOXyBe7FCgGRbtYkW6QBdICekyGo1aCPpoDtisirsN0zBdAQJ/ofwEOkLxSJkL/IFWPkPE/IvqDYN0YFkP8ARoA4Pyh8QeK+cEyJBdjTyUom3gDDD8hyMgWGDCjgeBJATLsgQOCw6CkwQPyAX9gXDBbAdkgOQKIFgsAWhAP2CAf2DuIFsWDt+5dqDKgUlAMAKSwiJMClw7T/AAMkPdACqr7/ALlCFVHj6e8BB5QHMJIGzi+x+0l1gPjZ6VAEvh54LsgjJggAQFe0uEMl8BgOmB0CDqAXTkJ/6Ej89L4F1BmOhdKSoA1qeivQmBUXsJAcRMAJ+jQMQKvUxAVRx5nwACFpDgEoJuFAs+QG3QHZ+AeQA56AhSHFoiYD9kBTgg0gHwBtMjEYgcYwCxPkGhMJMBJGYjcADSiSHUbNHoGjwI9J+HAdZ5ArsBwwUFgNyD7kjGuiDrZFWoaw8g5oAIq2AZRL1gK7UCQB7Q4skDwQZglT/wAh7AHTAaibwcVLg7AszBdkHEo/qD/tuRUeL5C2AG04YJKPQWWYS9BgaheQ2EB5BIqwgUX/AKDfoCzwFXA6GMQ/Jl0iYEE/uD5A9gKQCSJgDuVgOQPYDAXCMwjgMGKDskxuJBgfBYBbYDmBQMj6BkyZA4AOn6Bf5cBifkDEHhAy1RSpA+oOyEQDkDJbC2BbIbMh5gr+wPxKD8cwEcAQPMeZKT+JhAohpT/zcXgATZqGm/UFZ5MeRnEOIkOANPYOQJgr4QyDKeAB6oC9Mfng1bFDXbJLpHB5gzDggAlpD8YRbofawA/0eBB/qRYQEN7KdGiEAUGzwICmwm3fYDluFFqCLfgBUwOACn4HZTyE0sIyigDUeKCtl5G6BZYCkk+R0/IWA8IdEGAYPhwBdLApIH0f2P6oFQyKeMoq/QWMAsCBNciZMho1IcCXcXsHAAep7RRYNQKNjA8A8DTyOCCLjUNiBF2BxWDwLy6H/wACeILJAUIXAqGpP6s0BMYHLCFWA29IAdJEWgDA4WBUVOwIBq6B0XECWMZ4hUvgBqzJRKB3y0N7EtvybyoHOf1sSDBh45GALEOC5cDZLkSJsDwBUBFge7HMocArJAqIBwDpALF9cFyJsmfkPj4RjkFkHAyEah/UBK+3ECzAFISpBkfA0K8E24H+4wVpgWtGlAIJYoTfyYgmI/ZV8G5gABd6NcS4ABAEma9Me1ApnA7JMpEIr7AKBgskgUV/kJAG1Q2UIPWYyNM5DO9BgIlKiDrAJFxqB/ICv/gzYV+7Q0Gg4AgypnoBLIfhDoB4UpAnA4ARGRGDMqQHIKMgnOAbHKADL/QDhFAwu6GOzp5C8HsfvB+0B0oFQBdQEgipWg4KKx4/gDjRsxoXAM5p2MfkA2OAKKD9C4UoGNA2iJ2kMAByJCsC7f6AYIIegTYbwEGYdiFRgSlnlxBBjucG1BfUjr2LYJxIdK9jkCQ4YWYCmArY2Em/UckDDK9OIMkFSSG4wDAMFVJQG0wL5LCwCqAHYDggTPsBR+A6oDOwpiY9ZYCxeTiHYwsXHAVAvY9gykMh4BwD2PgbTJ8E6zAsAXAPAHRW9kgFh2aB1AekOBgIhC0CEOmQHb/YGVH/AENsEJpNKByouEJ7dESVwUmo/QtIQ0IImC+T4IGDMA/8X3+EHrfOmQPxpWAAIiXvNUzBcT2vQAa/5ErMA2oEij+SRA4pEiz7AWfLDbeACPaFyzIOZWcR9d6fYI/3UbOARwA2NafXEEaHGxnN8YiTPg8oBNvQBKnyHDZN1WTflAD7NjUQL4A/MPPxj6A3bqgRoXbmfsgFMwBU8kklj0DY4KAGAOSCwGgP+oDIiJaAqE8TeHoSmQIkBACYwElJCxi7MVpWECa9AOBOj5AlF6wSNVJI+okKHYG1aAa3J4gNIHUIDRMQeyBpFkFX/DGC4KPyCwBgzCwT2UCsInQgbAoMwweQdQHJiiUgZ/QC815FZGeAa0k2HkWCEwLwg+kOv5FRgFikNrSCcIDZoKPRCgLoDxsWhRRbgLQtywKwjRh1xgAysgqalwsZQHmBB+w5B4KfkPJDADpChUDdncDt2HaQQXZFAe4IBQqBWQB/FQFo4uCroNColAgKlCA3GBUl8QQASJYU2g+QdmOyBgDBCEZew4KAdJ4OYp+BALGgB8zaQ2yBtrY1CeOZPdhMjjHN7gR3fKsMEF+vTwws75ibtcGHWLYMvjq/FgCQop7xb6IBBR7o1QujGBz+1BESGFJCD9lYxvlmJjEy45NhJ8vLwFLgxrW3vIDr/miqABKSheAIl+qEPHVsZwmsjzyWyHq/4CP8G/5gWuujuPvgQfwBSA/L4DTdGRU/YYeSv6R+MDiE6+gwXBB42EMwJgo/YVLCr6C2GEq9BwUFx85SHvwCSAEJn2AegCUrE9VshTQF9ABgRACxSxM0B1IHa/sHdwbZgPCAUEp4wGYAQ2lsXRIUUOocTBQRJ68o1LsnNX+NDkm4FPEAcFkBYA6xJUCCOwJiiBsAyyDpRIps24qMgfQ474D8Ac+uh7DwLeAWpiBzYB1QdlYJCQCiaA7CQdDviAmAtjggKw4kMOEnBIBftEEbtUZl+gQSAMh+yCsBeBgws/YFSwHa/PFBp0HODyuhw9kFfkDqPkUzYaqSUWAmAL9AHgHAiA/YiI9zsQD+JBdAFYBIcHfkPZgHlgiMnd/NwAmOp5pAcajkJHAtELr8hiYnpITBO9LbYZ4DdloG5v22A7J4WQjAZdBk7SP/ACDR4AfYKMETdZF6DbaPYHocQh5MX2CCK5f8IBYHOkgHexgY9bhx/jHE2LhbTKkaklAQAOvICoCoGBpDKlBUkBBwAI3T5BSHITPkEOhBGlA0aAPyegSMENGAchCRAp3C6DsB5IBYSXdgEOUYMrGKvsDKGoK7kEMUSDNgfQDQG0jHRPmE+fsOyyDQA3oClAqItACm9AHopD0wVKJFxoNYaJnYc2CbGorscLDkH2OjBAFLZ4BlbwBINZ2NpR2XgD4+hoxdwKkR6gYEBQHQgLILwPiG+AYLpAUgCBgBCZjBPaD1BV4GB9ixQQaPg4hBgXliBMCJ+AKGwZteAPPQUn5DCJEkA5KC8HYHbtiDY/BlkCyAhWOx4A7ARm+gYtgfoCmZ2ppYqEgdH5GBIkMJN1txGEwHDAdgSLwUBZdCpIJZEYc9KQfFR88QdWkQA/IbML5gOwDDI9kPyuGvWvkathwYgv3AgcmoMBA6CAtocZJtQD9gl3WsHfw/A4ACfwPxImo8sn92Dxn/AEIjaefIM+Tgo42gRHoKySVQ2jA1xriYP7CBJhn4J4AC/wBwk0CiQNQcAUJ8iYmGD2QdkwDqFkt/QsgKHoJkAZS/AfkRpLNgkawNPIGYN5f2FME8SR4WDKgdieSZIDtCFjjAw7bbHFnPgcD+YIMDuB3A/EFgSCCKAJX6ToJC4kBgY1BRQYP/AGBQfmDkYo/oWnYsdB1BEoG6p9HAbwAonAwo4AJjoHAWA7bQoYeyFRyAsB/QPRA1hgOwKuQeCRQDIqgGQFoexFy0wT/SIHiplH1TA+B5FbgAN0KAQG2AOIDk0DDYBYBTJOMA8AC+x0DcKBy2ex8gAsn/AKMIIr/ALBAwG4AVITHY+g1AOABtERkc0nQPgscBbSFkhgmRAKkgPKAy7F6XwDW5oQ+33xPABNOE4gdyw8hKW1HGMO/IrQKEE6UHPCAgcm+kZAETg8VFjr5M6IRPWjA4DGEgfSH7wFooI0CKo1CSUKMmYygnYHytbAK+OprfsM0n8JgOrMACP0aUWMZdewxHQ32KRWEMGhRAwFr6DYGE5BSQAnmDa+QHwAGDyDY/4Y4T8A7Q/qgWLB1t2y5BN7AcAUlAfgMGIKzYidggLoseasONQensTSA0uAISMBRZ7C8AsGINxTY9BMMcFQB7gQ/0KXZDwDj8Bb+Q02E8DoHyBVIG05QWPQ2XDsgFAkBe4YT9ByIBZgH4DwMF/wCQo2ZBRc7gYEDKFJtg2LG6NxQeACP+5CGUBh+guTAwSCGb0Sy7+w5BFSw8IClAFEQXRIVrOB1jqR9gf0AwnB4ERykEx9oOCbI2yDQTkAPuA+AZ5QLAUISggVEIFDQ6SdBUCdhhYBeyCMVmpBeWHBQLo4HQQDIF0wuPYgrfinCB6+WIDltDSvkSsDU8AnLObShxyVYt+UCgYCRkBFwz/wBQ4OohYjO7FzxEXHtZ2Az5XAssDdERHO4JyCpwARYrJFBkcgZJ4JKTewhAQApviTxKyqazDGp+VUnMAPH0GgxAeaQra1FX8HCIaA+AbUIzPxADEJz8gB7/ANAgmPyB29iRUB9QAoA7w+Rf3C4AE3aBO0gA2IF6C6jH7HDAaDHoGlL/ACKL/IOAdsgPALFG9DDywGoYL2FIYQFQFwFHEyD/ADgGhQF9EMQKBAAsUCDqPILKHBQdDwGgI+UeBAX/AAya2Cobj7HYIfZBMwJgq5gKZagHIkLLtQP5A/4whUXoWPgMYqEapYW0BUo9jAA3a8AsbgIkQDGXyflwQiUmVbwEqtLtAm0ya/8A6PIS2jLAhycAPsHwu+JAsmFYQv8AQEnz1xTCgFKoH6AHQFP5gLu4JraAVJFkhg0XegDpkLSC8gpEqCWYT2CiQhBeAyFVkoKZ7EiwqAfrkCsAsFbG553uAjOIY3Y4AE/jFAgdg/1EHYf6BQBEeEDwOGk4TK5ngHJOkDZDJjjRHre2IPnXIeBRBgvY60GVaE8LhMJ0or9EclauBmfDYOkFHeYKAJZ/lV5A9E5C4gbnDjE7+Cfu4VTIX2HHfkHIwVhQBIlDlYAf7BQmoPCR5iA7GQwJAP4QMqQuWsOhVEhf+Q9cjsMMNmix4gDIPmCrAaADyYETTEEJoESC3sLJsNiy0BJgOyWJZGVAObeAHs3+zMAqBIAgAuABrNnsLRCyAekCzqJnQdCj0eQ4kFHQfn4DMBOZ+zJDpsE9w2AeiBuQO9ewcPyAc2YOiXoFmQKqQMwBhzf1AJpMBg/kCIKTyFRZDyFdDRu0iFt8h0PQg/UCkQQnVmQZc7yE+QDo/QH/AKiyAmhQaCoGQ9gWWYUg+CKoA1+wBaAyPuHQ6eygHhkDKnkF7AoJN8kHsQRqBTSHAFscDIAQLJUD+gA4/A9sLTwgtQ1TBj3Ks+AdIqe8YKgI8Iy6D1BascHdVluwDCAfmQWU/q1AG3X+ivwNniUEqENsCX5P+sJMCqCHiawGiLyJG99cAhXfyrHhIjvXTgSm3kBoBEGwIfFgJCgIgDpjIPJRoHYDoHTIFYBeADBah9QUfAFkHBpBcrgQjGAInngM2C9D3QLLRQNArzB40AQw6GBRRAwGE+wOwFmB2AMbAHoBaArfo4AC5byHkDrED4BkzUAUmgGxCRLAJLS4D2GkvQnSED/1Dhn+RCQdDAqA/rAoKeAeUCW+QGEkW4BwSBUduFArBALiAO3k8vyC0AMMJCqjyBoBOo+AwRGxawVf5AZKBWQCWahC0A5ADkA5OAEZH/JYpUOSgK6n3DwgD7GQakSFSwfICzUiYWBwSX/lHwFECiB6v0HhfAMKgotSNqQBQAWp/QeTIfsQKmgRNj2QQDJiZGMfsf5TkWOwkKHETAKpnUIBcMgLMRVJcKbhngIZTvxBeA744AUP5yuEDL9b0A3baiPkEw+gbINoRf8AkYRx+wJC3gL8gZfmcg1ArDtGAIKdoLAyyC8h0ClOggLYfAPiZ4HlUKWy+gRoMhxBk4ARSOB5Do0URAUBwJ4Cow2DA26FJ/wjYIOoFlYCQaJ+VAeEQHhAWIbyBIBkEAQM8ZEZDEyK/wC8TCcGF44RZJJzDggwmajWCrI8B8EA7O0GMS9HkTwDkDAEgI7AOA1EgYkv7GAe6AwDqL2L/sgbGAHE4Bcn9BwIEIiFBHoj7L/ZdYeBOQDhnS1+DuCgEbBjmseYBLyAcgDWHkOn6BpFAZ4n8BaBC3+xY4AO1GzYOTt0HSQeJBfID/oAdEQ2LA4J+QIh29G0bAo4ASphsUQAmAKm+CHKMMoC4gdRECgDOEA/0AXA/QS1B/8AGx54FH6AoSwKCwVOwIpkMrA4UkHY58BCgCzBJSQCn5G0Goc4fX+sDWrg0A0PEpkzHygClXoYByS/6NIYLKZQib65qdBEmhhQL2rlo4pUXUTWAqAUAmXgiSHSIQ7SeDLxkYB2NBNNA3gLBFwGQOgehfIeiHIVhWngAh39+YFAgdgKAx/Ae6CtPAdcCIhx+FgJAuzR94iTmkeUBYl8OCEpSeRAXpnB9F9j/egpC28RDCgKgPM+COQF+E/pDoZqTPlaFy6C19iF46gyLyMi8qYLhZsvA8UI4EOSGYFa5n8HiPdwJUP+QeAFACgLYM7IOYBBJQfagOQJdgHgQSAZSiBqD8AVwNssTgBLU7EmPsE3YSQRMTYHNkKJwB5AC/sEWmQJWQ1F+R4fkMAAG2Aus2CDyBUCNshrIwOkAcEgpgvADGX4CWRKLwBuGwFhyQ5RDyD2QVEQYM8mOjyFVBQAmEffBAonIGCQFk7/ANip1wVOuApl0HQgNBYKICkt6GoGKiQxNFsC7kPjBuqQMeOaB9h4B4VJ2CbkC4DBYYrgjYBh6rCL7XQguh4UkD7SDKrH+M5WwOemCJf11cmFsBSR9hYHwFAgdAPwHgOwKlKD4cAph0AqUIPACwFhh2Av+PkAVODHToMB8gWOfl9DyTjyoQAn7AcfkD4cAhBgMIEOE/sgQwCjbIcfOBB3P1QwHvhDG3ZoKHyVcJQW1KfgAqgg/wDkIsf3ZA1wClA1AcU/AJQORSgDaMIWvYFKDTtyNRq3oHQHCjzwxYwd8BF220DhgwxH4BdUH/QCuhPoeBtk8CBRsJRgFyEv6B4APwAszIaL0GehyWEoStEgvDA7NAWBkdiycg6jhhABSyvaQgKsg2dsPBwIPzIPNCAUGB+EBOEEF7focvLZDBhsEKRiCAc1DS+GWzYMKWQA5KALnng5YCbaGRbeGQXsAw/0iZTmAaR0DhAUGIGKkjAJnnj90HqnQCuADRYBsGhloCRaTGUMaPdZka1rwXGEurmVPVOB+YIQWAfUlQFGYJglq6MIc2KYPEAk2gXkg1fkFJfoEZKbhzDI81zBEY2wmOrMgtew2I5+YwKWTm8Qj+BW5hqIZuF0QPq9ijghALIA+gC9guwUAoYwBY8mhKBUcgECPPA4OAY3k4H6Egf7usNSAzgEAKh/oGJCtPAnTW8X6AdAE5lELgrVokPmAMqVA6HvYVYYEBIwvgBF6WDzehgf11U+boFpBDAbRhlMocFBtBcogQiQZNnRlQMmKCPYD6A0HEnrQGSHYAgDpwAQEwC54LA1j1BaQIgKwS9nsl/Y4JdHMAfX0KwOCQHpBQAq2DaFEDJUFSIMGyfIAnBENZjI3ZAnUQY0+fAGWQQkCU0AyBJp4AIbEJRgCAkZq6j/AJCDKeAACk8A8U36EHoAqYWTaxBcRMATRJ3CABOQu5FsOCEkw3vxC2hf3b+gInHVmA+dpA9n46F3Bwz2c5NQaoaIEImPYGSausAv8UlbNMT114zGhL+gJ5CYs+xPm5XhFEcao/RQM7AVg6AlqqXwQGBYjtn5MBsPT5iFfKgUMaVGJoFkBhpBsdzYK5goQNAWaDLwKDL4DsgPswCwyLQLgFRYELoOTIlwBNODl0BMJy9oXDodKZgDcBb77wDkHhINtAw/nkDfWdAHkWK6gEWJoD89D8+W/se3o40g5ekH4XoEK+T1wIyVCTm4TCBegMIhQVXDpJy3AgISf5YzBou4b5ACStDYUHQVgHIChLhGmYDyIeYPAkDZNkr/ALPIH7YrADkCTdigB2Og/wCGxWwxiwM7cEJxhsKiLbQIASQX2GgADiMP2M+AC7CCafoExoFSZfiF0H6BgC8iBa/YBq/JQgQI+hmqAssmiAbAbnKAVV8gVJYHn0gSXr8jG7MQTNekDxDQT6jhgAhZg88IBJPCsSLkDdl2AcYMKEFAEaoGCZYO0AegWABBb/CIJDfyDUk2IcQJMloBYax+RYg2Hlv9JqiIK0YEGA1uWQvYDuxHaJp9GCruX7wAtqVN/wBAroI7bNhyGRoByeDPsUUBWIg2FsDYFgMgoXZ9X8BAQOA+zhZiiQMBIMSg6noEHtfChFCADdqhSEARsBOkgOlPYdj2ojw/xBULD6EBy1CGBPbeQOmzIfNkB2lUhN2cGhBW4Ia+IHTp2IQ6bBl8B/sFDDHAUnZvILyDQ+Vjjahy8Adex74QmcqUgOaD8R9ECPYXkCgmA32HYNh2AHABZIOeggBS5TxHICgkY/AGj0FwPyh2DsAyQFB4qPsCk4AusEJPwSh7AUAT4Dx4YIeA1EBMGAwD8Q7fYCskpBRXYKzEAcE3MQE5YByUYn/QMOUjIBcBQIwBoNl5NgDTrZigD5C8gSpIckSCjARACpihUyOhBdzwDEDQ8tMGI4GB5/mEaAsSh5KKyM1DGaZBTWuHmb5PfyW30QBgwxBj8BxJ3ZXDg6eQ6ALIRgVgUAg/7D5MAtBBZ+cEgNHATBoVEcAdgDCpsNB0iwoLCMRwGwbGAMMh4CCdOh9WwqBQCTgYQDAXgYdCgIeQYP3B7ul2AOIUnAP/AMDTbgPOB+wSnL9AoIUDwHyNJowrSKB14C6bDggwcdI1sGA7ThirEoM4fMdQCxZUWHJAJN7s0KfSBsPOoEuMGdSbVHi52YSH4N5DDpMi4wJkBsBSOljoMzLQZLhAsAPMA4FtM4BhoMADsCkVOwSsIQ+aAICu7F8g+AEYBQhkr4hfALkQIClgdiHBgKBkGwBVYibMAXNYGYOOxI0yBoCDCDwcBFuZ+gW4gWR/6FBJIkNYdiRJsn2KgxQCgy4INEBk/wDYOpgpfYHvA90KYHnOZUAzV2GIIHmEvg8F4TmICd2kkCUL4If31QQC/jbjq0EARlmRwIGB9juAtJApBuQ1foKix8Pqz4mAYRg427IH2APCvk6G9paDQBYmAsWGUjLBOYBMNBgPogyyHOGx2JGAYNsi6BSeD7BgYMAFAVIKnAQArhGtBhOhcHwPgxgAkGEQPHAHBsMxhhgGDzkwdA4pNYHXAotYmAyBgD2HAC9QoAfJjBJ5CxUCjDUj0G99IyZ74IBJCEOUdpc5AMUQIjpA8zwIl2RKLzcAF0BghUxB2sQOQHB8AGCuCA1IPoRCQFcC/QBU26BzR8AsDA/gKfKRvCSYHBe9ir5QGwlBkLM7REkpgxYlKBn+wsnyCwKAX5F/22OT8wgDibsBk5gUgVpMi7GGWgK0YGwB6U+xGxYgQDRID6kMGK/b0By8QMGBgwjptg/8JZcA9wZdgLwAsBD4iwb4GtBPjgQCdkNPYkXSYH7YP+KmXNCtxQIqsIh3vxkAf7kuINIew2hJmgeDOBCygFGAUZ7ZAAfmsYEGIlu4OZD4gmwrsOSArMsmsDtY6GEAFaCrI1+x0AtkyWApAVAU7DkBexjkA/7BcAoKB2mBUhhATGA0kHSQX9vAgpCx5GMGHEfMP9zh3ksTSQjs0BxBNzMZfHCgYMJWereoyt4FVnANSxwnZAmT4htOAZUhgkgvY7fQOQekBvQBwqQ0N/gWZYBNPSBUhNCwDqD39tkOwHTIMA9BVAowhYVcFxJZ5oC7B7JDQoKgYMIlEjyB6YLxH7LoIMHgqAuoAkF9hHZ+iTIIIEkBqTkBzOwxks0j2Lt1H2MwAu6ZCEGywDcuT+5ZVd2FBMmYVG/AYpFgO0BI/sXMBpF2wUGQIkjQCbCB+cERAKSCHUL9A/aANUowAswtkEs34AO1Q9B+QjkBycIHEsB1oBhSSP38NB3pSTAFdcs4PkyKAC0OGiW/uVPQ/Rpo3u3wIG/MgIKIcALIWCyE9ENllJeQDiQ8wTsOAWaDsEAFsDkC4IBQR8ALAXk8hhd+BwaGWALRgbVDfYbBf+uOUK7TwkBUDwFQFnTh2LkqJxY+RsMMh2kHRdjsNwvpwyPdFegqsDAIAS1FkvpD2LdglV46wIlh+yhYkOgmLeEY/EUwJtVCLiTYEkvoDxKAvhRFX464gFOBDa8R7SB3t8QR21xqOe0Tb6kRE4LBmSQDgmuBAeRAl9kQZ09kSKA2ZpBRQXWBeAD/AOAQqx7DzAeyDz/AqswOmQMI2Y46Ns/2ITsCgbEgZ1YPARCQKLAiYeSE2QKSYhKFTQZYT4PIMzEeBhYVpnsVMaAqALwA+gNZdo8jwG7q/QNEVg7LsdJaAXB/QJ6wB0lNoMOQPsCuZAooF/LDKhiVhunAB0BnsC9oQgrWAluRwXEZNAK6NMDvd/ggEpgnkF1QAg6gqvwQ/LWoEH/u+2oB+IrPN4DtYFTCehbKnoKgApIyEnzxX+ENioAORdlVWRfM/AO3YWg2wKgUz+hYDQO0CzFrAyBAfU/ZkDk4RpLz7DSOAYAs2Qdlkbs9iyj2gFJF1w6oYMEC4Af8YrB8BFi4WEWDtwgwY9hWDbEkID4aIiMVMoPzNFehRnyqeVeQmYFikDPxfwOQ/wCneJqFhzIMyc4dhIBAPmoFwHFTYBfxBiVF94HeQKuxQiBecSgSEB5lmYoMvPFgaA7FwEGDuDmwFAAckwSMwEcgYaB02FWzDOkF+RGf1AJ/AFaGlQKQwzh2MZ9iCnDsPwJ4AthfQVDIFQVTAHSSHgWV7UKmLFr0YKRtjxAeBCuQJjsFH5EfWQP8gBW3yDIgCxQyYUAnP6BKMC5p1B5geaDjSRiTCwIAO4KyLKQB2xyecChlISwIhPS0EVkNGkLEBr8SfeVwSgRz4Afq4qDlkFUOgHmXVAW+wGTZfgMmQ9gVAcgCSJes8QPelH9oQXNEFswVg4mT9lHY6D0AdDbgVDoITDCeBpPAByR7cgsBAA+AWUAWGBYdCwwKg0Y3wDTqaBgrA+RygoBgiwfgYMLPHKDyc6jqHKeoAE48iYBZpWIxs1MGk8th31/MUSZGHuKxQStJIJSWEoF9+F0BQoD9oewHYFWCDXYIf2DP9g8woQSX6i8YMHQwjr+IA+8NQpryYzMOY/gQi6ASDGGBLZcAvR/TiNC1YHe4xgC6PkKsgWw6BDYCAleTL4PQhrTYVRIBYJehM0A5wHQG9UGweAucnpYU0Mkwgcypew9WBIokCpAChLAu+A5MWHokC6PAIAEsigZ/gCf9gNZ9oOCSKYHMwNHo8hDUCxtnJV4SxeABlSBclMGNgGgCMsHidiTf2PMbAK0kIKbF2CtNBfYD8gC8wKAC/AGUDJAWspESgUYDpQaC0MH5BAZhmI/zQ8rgALwF6gMEFaAuhqcPB5AsISIB7aC+QqcEs5CgtuAm9iVjAPKYKWeCVGB2DoOAgwuMg8TwHNqF9CwPgNh0HQMBArA2SAgPDgHPMG9NgAuTFJgRkHOpccPYeAaa4B7EDBQykkiRsBSdjdBwAiD4RfEkJkD4DuRN0CE+ONAOu3Bl/wB6RoVT1SGfm+A85es4dZ2DBPsXw/YQIkOBzKMVdAG0h2UB0z7BmQDwClWAzPgCjC4BIL/ZBRAZQH3qHUwuaJPoEVqBSBSfofioF2G/IYDy2/twAdlJByQgyJZPyAruU6FMshB4SGJLIzhREA/xhGyE1A2AQ0tfA+pAUTgLgINUqwKcHkPxg6JE0qSZhhmJGAUCwgDwULiZBRDMToxqSY2D/wAhyMB58hSwDBtB1AX8oFzRhwN0EghgDkkNGDICSW2fw8YALpWIl/6Ewxt4BoBA2OAAuigoWBkWG9gRBbAKjsbUmeRBU6C9h0/sLTCkDkdNBgWYJmY7QCCkK0IxsPRBkKA5L4L6BwBQF8AMhabGGGCkhsdOCOhAJdAeBMwC7MK+geYGVkhkSGAbascQyFP+pw8hTKq4zpcjzJvIIIkQAcWRwEOZMhrwDDBqUQWAwkcAtNhqGGCpFcU1B/YdgqewdAAwCICVf/IM/sC0wQ8IGBAPGCe3sMsAeMB3hRIBQ0B+AH4YYLuEQH+DBYABRYeQCA1sOEj9QTDYKnjOCZWeRhR0Ll+QwxAwgAVLILEEfggTLw/kTFn4HFid5sPwE0BxgegJdhgKOoqBo2LJMvgHW3+QuddGY8hgerD0vIhUsXQdBbAokEAIAtgVlQ9uAoApMDv1PsdVAiMMMAVp9ApGIjcWKwBRkPoQHgDkB02OBb8PkML2LAcgcHAAWLQKUOwWCBa2IFJ04CewqBZgVnoLAPYB2F+gpLCh2anIanhi+hoO2XAOAHbA+Cp7HkHYOgYQS8XAKoUDkFh5A6DDaOAgOw5QLgP0OhY4NhgJCdgDTsOPkZD5BMRBGRZCgA/gAaIEo/YokGJJQlsTYWgcQJ/oGw+Bk3QVlOAJqXZJqU8IG18ATuBQcBQR0gckC7MKrPhof1AL9w8wDoCWMCRgQ/8AgEXwASxaH/ESPUBG3vIclo/AEAUIUdwnnAp5AVJoBYx2gkBhDwTC/wDBSEojwhKL3+yBkwDxIBdl9AoCS+QoMQFS6Ci0F0AswCZCT+wHBEm4LqEoBwQwGpETgCvCC6HY9gsNAoBRAGkvgCAAiPghi69jG0ByLUJgICF1xoPoQKjkBigoDZgRAZAolgyY/lYVJNBixwUDycAOx8wUATgXsQzLhCoF8A7BCgUArATQ6GkCGnIAjI2A7ByDD8AfgfQHbyeA0DpwWcLD8B+BVRkHagPgODgAmBsRIn4Im4kHQXYdJyFSQfhweAcQ30H3PRGcgqE/RCP+QdAdoHJ04EY3AOkRYcMII8jdjfjILlgHfBbhJXYKFQkSr8AV5DkggInQPeEA0+wWNALGfAQn2JEgDWCjEBtDARMmGab2KAD7QIXPkYSmAoWigcTwBKn/AMA6tDmtGCITUsw0L2HkBtAFdHoFVkI34IC4L8SIkYBRwbFBIrI6GeQdlBCAVMgspV5FWQTUEA/1QyLiFUlmF8BQb4CCkkCcRmFloXIGgB0DQQZU4CG3qitc8DTT5KnAcJACxkCZoEGgBohgDJUJkS9CoHETgP8AjHoGisfwCCdAoOAJgUoCmAwNgF9xcMDwEpUCp40cgAMFGwdAZBZkcyGqSUHo+B0Ct2GGB8AdPyGQewwezcDJmQPgH5IKAbQwqkrhngYGXMhB0iQbR4FQMZQXgLgMBdlwYCiiHwBhmA/IgiwDVQHsJN0/Q4IAObfYXFALQBkFshoQaQTkskdo3QVm+EDAEUgBb4z0JzgMICIZNM9AWYss5OxcjS2O4wIDiAmdwSHZol4FTqGigHQYJyoM4BogL/YAVAiNJ5CvxAX/ADJNVByYOcCogDrsQyMOAoeANZjIs3Qko7iA1YyieRCHgOCkLvyoEzEKgGAFSRp4FdIQFxkIgKSlCeMADs3CIVB53gKyvwGX4BceAhzHAgmXYWEsD+BlJYz0LP26EZw0YMC/8DpEApBQIm0oQLI2XwMIQGEBA+gX/gYVH7Fiqv4AYQGSHsCYKgWaDT+wdg/LkA4eQA/xRkw8aGAQYMj8w/0BB8g2YSGhsCrYGx9hWeDzxB5p4BgDA0Z5A+QOw0QYGBscCAMIDAecmH5Coow51YgAHSLCjHBBEgHPwFGoMyGQNTAXCXgAMAzUDysBEtdhoAwHErqIJFGH6AFnEIBQQyBKdY+4ksAlgCRlABIlmjA5ZCZkngV7cwO7A7fYbgNWQJM0UUgG+qKUR/iAg4nTYigROYi6gImoYobAnsJh6apUE5vhB3QF0A3h8FgtgZ3A9a+AJKsCIkhM2gSAK0K2bDlZlGg9CxSRkGB9gfsQSZhOXBM6JzJfscDIF2BQBQkMg7FhAMB5UCzZbrgIFACpNB2C4yQ2FI2ZNLC24QiJAtAqbDgjhBZChgQWcFTxwaDaLtB4KHhhqgWEvB7OE4boKgCB9CgaBgYWTkWU+iKD2BUAoAIEO01wBsAmdkfYeChgCd2BiijIOwH5A/4hi6B/kQMkgP0JNIynhS9jAD4oCbQB2wAlkyDVwh7BKZod5/kCRmqKgDiIEOkJkHwK4PN2FGzugXiNiEtEQxEmB4DAQwgTURBGAHghAcgWLPwaJn0g2SOK2G8AdQGGIGEUzZIHTBsNbBxL0AyPJB1HIQPsMP8AuwOWhZEsU/wQssNErIbqCElAsDMUgFwYLX5waX4C/wAEOgLKSUYeA0MCyfjjPoN4fBHsBljwfDMEUDbfJ/VeNVM0hl4oBwiVGwUHoKBgyEPINQQ9hxV2zI9h04INgQegDoODgDBsYEmCkAgaBaBgKgNzAXqBUiuQGQXAdOBcHSQxMH9mHAyBpY/AfYPAWcDt4Gh2HIoDRuILEjgDAHu4JAd+AdPsFjpHAIdweomAyGAecDtQdCLCggSMFAUjTfLhCa+QH4AkAv3AekgPoQOo2P2Ayb0C9hGGzYAxdi0dASSRQDtsIR28FzImL9hZ0EJQoTwRsAGxMU+w4vyOEjaYS0+UZ0BydAHAl3gwJCKA2ySD4wxhgLOC7CE2AcHwA9UwOCqMw2+wGSYvyDrA4gEzEWkAJNQTKA9GQH/ZICrTHyEJ0SoAgQCMf5QBgXgBkFagBBP4R5AJkgby4EDygGjfoJFDqItiSgs1wIJiYsoBUArNBZcAKgXcWxNigfkCs5UEkDAf4P8AQJRwK3AjlAvk4C0MILIZBgWMD/HCJ0QdAdgOgUFhgKwdAeYYSDzwjIOQ9AQb88DkyQmQYLFkYWBwDbBWjzkew8iyiCyVAj/YPkDNHsN9hwBwfYcBW0MAwDQECp7Fgj2AwsigewPQHmgJgOlgodAMBQMB8gnVACEAozB/YocOYjqCyw7gQADkkA8zIJy/gc6EO2UDMA8CBgAugAv2idYAVAQMZ3pJPBAhEyDtRoJDyAdqgesb4A2cAgFSKAK4S9fwHH5AQSuwE3wyED/0C7ARQBCQDOQjBIdo7I7AUKxr5AsAUAoAiAIGq32DkYFsT8hwAMD9DgXEB9LgVwg2CKQWLBhIsC+hF0EjoOpAeIQKUoFlgpTR2TvIDML0g0B5DDyPDBA0ByBQHQcBdAYMYvgECAUWFSLGzhnI1BYA2VoPT7FJIVf+jgFEsOwy4CtwlkBcwZKD/IpB8gDlBUYMqtnxDIKDzyA+8h9zwCA7CNBg2Q2poeoPoew1IMDJsGAHI+rkBg8ljgxIKwArqAUC3AbM1r6BVWkDt4PBEksOxANl4haAQHMn4A3kCrM6kWQAuhQeChUEActG3YoESJ2J0BSSMUdBBa0EwHFXtGVV7FBICs2aBUEy3mGjIhZSPsR1IHLyiC50BSIfmA4SBcClpEJ/iA5j/BxMfVE0CG+jAP8As4FXO4Tr9o/7ZNMA4ngBWCRQVSgDsBvoFmUhbPwLsz2CSGhWfgF0PEB57ox6BY/QFqAmYAUEOwx4AFh/INTA2hWuAFfImOhcw8gejgj7OBl4DEs7GAgqYBYBRRu6AseRQATIDwBUB+QrFQFQNGR2D+QLMhWjSHAOyRgGwKTgZxJ24Af5EDBnEm0hBgcZHkDAxA2B8B5hxByBgqHAGDHYXIJwGLFWQ2SDmZGDDgMGRgOCwGIckAWNI4EzBCtAVgRaAVwgVVeAN36B4AJ5egYqAKCDX5AtCGMAB7TJBhR5B7XoZUBiAVuMB/rEb8B0YaAgcABCCSPkC60CpkCEAN0hcoAT0oDKAKYCX0A4KH2/6EDHgHsAHJ4QHgPgTvAMDlrEzkQPcCvCOSYfsLHAqLxAUA6YG0IQeUAhXcexyTLQJJwDGAgkygG8CXgwk/4jC/Qef/QegFL9AXwdFGASxo4ORAKQgwDIC4BoBlaOw9kLD6BryF6A7Tg30MBbMloFwFwECkFIhkCoA6SIdwKEyaAVgF8HGSuAMwiJhmDtIHSZ4JAeAw8gZBsB4cCoD8uQ0dniPsZwHbgHtB+ggQb7DVAJoDIHwAzcDYfANgDhCLbkcEljykUgVqIKJAVPkjEbJ0HtwETApFuCH2fQxhPke2QUQKQcgHujEF6A1yGNOw+dAOGvASYKSIo4CAIOWyj8hyQNijXmxG0QFxwCHH5QsRCcmUiwtQZn0EiZAvMPA9bElAd3wFpAJxdIp7ARgCtUPGYO1GATT+4WCESvDwlwv2PILhwWLEDx4GyALeLEICkqMK0QHhnsAwOvAkXmDoBJOAAeMNCgfIGINEBxXIO2WMvkA4LEuELyfY4A7H9gFJPoYA6fsMmHIDoApngG2YQFgn4HKdwwBSSCA7gtcgkHkCyCsSyoaFVlAdGFBwCwYdmPKoOxl5H2DGHkOwKx5cG0jFacHYwGQDs+Ag7DbgVkBgCIAYIBE0A8hshyPLoUPiXPgQYD8gQAUigGJZoG4NXQOBYUIBeAOSLjsTvAAhj7GqAUELSFOAyA7ZH4CpoZRDsQouANBMJ7CSvQBtGgXu2LqRC0BuVAPwAUky6o9QIkSHyBxGyQAEAhgkBmmQygdgVCakfY9Q8fsHovg18AIJoSGkGTAgMEPIJ2DmgFEwHYBgZCgHYBWAuAEKJBacSHG64PwHU9hSHoD9vA7iOAKaJdhZ+AWmAq0JjQRAJJLsCFCJiWB/WBB+P9gvZwB4AMB2cwAZZAsEgkCTLgJUij7CgkYPAhwzQYcEKD6SF/AgiFJwIVMg7cAL7H9AXYC8gKwOwP0BUAmgNTwPCCBYNduTfByyDeH2GFY3YOw6MDC30D8h2OomRjgBh2g2DnggwNUDtMA9mEc6NujMfYMDxYYwHeA/8AQNrfAOSQOwaCIRC6wChLAfSBqDRLwtCajWhrIGAF5bgGwEvwA2FhHKRQXQCY8hWAmGTgC7lAWCflkMIpYkCkFwEJwO0C9jgChUZVEjBIiYqALBAPQAUn0EIEpP07NA8gkgTNy6HgwE2FIIUJukN0OvQO4eUQL7bHwOoBQw8GS4+X3o8K0ygmSG1DEypYzaO7C8HvQdBZlIP/AIE8FZQHWYdA4V8j30BxIQMuwVoLA0wkAbsII9khg3BWdAyqaYUOBd1Fz9A8bCyRBgdD7j0FfAkDAeALkzJsP+GhU4BhwHbgAYdg58N0MOUIsBcAyDzPDQfBo3gL/i4NAwA4geSh+gPuAaIHQEwBp7GwkJjEO3FHRDQwKplhpBiB8D24g9n7IIgYDY2EcgYW4YziAK0AbHAA/RCEWcdmsEH+AA4GZ6GABjAH0BwWAV9nkVpVikJyPsIC6AKbhwAlIbNilAoE/AcgPYEoGAUmztjbyBw0HqkdpHPEIYBQgcmwdFmWGnowQ3ktgCTJBeBEEpiCcMWMkDJgAo/0HEGx2yMA4DwyWZA2QU+IwQJYAldo5Cqx9wByHKeJh+AOY+wdQuywwShjDsLQCggCNwSW0BPKbPAJzjQNglDvZwihgWEiAM5CGBiSQHI0VCCx6Eln2QxCxfAMOAXAB5AqBl0MBIYFbPCt0CAKwB9Bof0Dg/kLAOhiQ6A7ZDsED+QwjgzB4jkHILgQYH0D4AQPEDwFAWB9xMyg3Dni7DhGxQOQKOX5CxYdA/5AoyFkCq12GFPgKjEvf9GOzs+rCv2nBFKCLDYHaj4AVGRN0FgDwAcgQ6UA2jCo/wAgaEjIWXR+okUoEGyBsPEHQFzx4MGLGQv1whRuglPgAzBQQOMuwdgQDYBpYOlQMgfR5A48hYJZDMJGQAyAN4AJWGNgKKzkAESzhBUeBUGGhSbAuxhI4AqJ63lfufgL85LT9uIWzY/YAo8uAAOgHAidgbPYAVw6DLgIUdyOHJoKkA3AOwoLAfQBZubP+QXQGGX2HRsG8BSqAYEwD2bgmcCoDQqCtA2gLyESRXkFQb6CAvIGqw3gdACBlyFhh5cTLgCA6DD4Cz7Bkw7EphA6TxEBgqcDUTBg4AKA0DsGE8ItGvcDAEfjgAsMPyFyQ5AfRsthNsPXASA8vyGiHkHMKVjDKfI8gogDVugWwvyD0CbCkaClgRn9AuxAYP2Ck5AiKIH/AODohKwYHI9hYD2QOzNI8zuRpoCpQWGUEKhZT7bMMB2wUkp0BOQ9nQOagKkAJNwCwCywaEBEyJESFIO0uJNo64AqUsA1YVgJgjCUDoBQZAWAPo3Q6uaoIJoClJB5aICVQCoFrkgFsFKTQIC8h+jUA1YqMqBMWuxsyVC5AMp+Q6vmQC+MwQBSIixqQLTiDCAt2CNAOADAHoBMUBY3/YuYQByy/hAEREpkewGgsv6MAgs5CsIUFoE5yC54B8ADAVOQHhwIxg7B8uAobItjsHyJkSIMIaHpRogCQGHmg+CMrB4BorhJOkbpB/uE8Q4J4YMD6LP6A+AECMCcGAbPccEx6OGXSnkO3LCOiqQDnaEBolf8x7t4DtX5HRXwKjigWkC8AOGkGv8A0H0BKD/0Fdg1dHYbTRAFDtLELAUR2CDBNMBwfkFXAB5EigFfA8LsJmRYB4BKWUEjSBAWAAhYJPNiBP8AIjwB0Bl/xmX7CsOCfhHxO3AIFIFjIEk0CCZnwQBS4VVQrANw8i9ShIIi1Bjn+yC0HjLjV76JzNCsZAebRAkrN2BI29glLatgn3nrgmxp9Ag54gD2yFhiwDB1oJgH+wT2CjIfBcwdHsOnAEBAFbkGQL/1xIYFIDwIHAYgFAFAdBVBAVkgeA0CluCkTQduBsHwIAcAY64G4APAeQHIF2CGQeVBhehweOQ3JsGHkKgHADwAgL8g1AQRYFTB7ONmXA0HmAu+wIhkgIgHaZB3QUlgcg/og6gUgLReg8L3Hj4wQZGgmND8mUXkNYdkh5BxBB/Q8GQWfwDk/wCGK/QHoHREAGu7QE2Y2HSAFEkzyByAbNSA6AXvuBQHlJL2tiawf8k3L6G4Q/BcB2AlEMMiOAbeg7jEGgNRYUHYNyDxgoLgXDDWvInwMw7Pe0rIfs/ADm/IgFm7gCetCSD40Ep6YhwOBWxZh2wEl/wwsDISlHLECJchHuE+RIzuSCyRgB2GTQVaA4PoCpYFbp4N0AIBlOg6A1wB+CBzHABCKu2RAUIFB+Q3BSCiASIEiPoZeBrsZigKjQFQHJFCHZiuBgBssF4H5CwECdAewdHfkfgDcfwBSBQMg5gHpHDUHaAwegYHINiRkFnwDDomPb6Dgz9kW0P4B18DB0gVA8B8DcFewdQeAOYongCk2HMKpo/I+JgTwAbovgeSpBcAkkV2UKn+QfLKmvkH+OAOkxAO0EOWg8RkLAP+gGw/nocgFlBhf6B09xmhxUQB2Apvm4AImwHRZbB0B4A9qqaTscxD/YFswWbD2BWWholIAlt9mh5BaTrwaw8A+wxh+EVvyCo/CD2AC6OmxAGgFkuEUGFkEMoUMFRrAsDtAssA3wqyGJoO5Q4+TjBUnYiXQO6AYD7gIkWfwDqqCrEMPsD4A+CIKFEB3mDAusBbJAnQGg4SGAOQMPIbQuALhAsMVBSArTD0KAILgIWBZAkQL6AWXA7R/kWAF7AgLAeHwk12F1BQBg8+OBeA2aeBlwnRQP8APASA0Z6fwUIFbgm1cAEjIf2HpLYfcMFnsOQnY4J0FHQiDGhFMUzQcgE0CgPgh9gmI5EMZ0YP8QICBawqEuPxH/CmZt8ifWgWxJ/eCkiV1B7Cyy/oZK2g+5BUqPyD7AdmYoT+wOzAksg8whuAf9FcIUwCCwKSfgD3YGACgmXsJ5ybyG5zHABAAwgAthBYGZb+gWRIOgCQAsvkFgCct8AqNodAROAcHQ0/R+QDmgcmuAQ3glI6gdEgMAMlGYCwcIGQFiFHsB9Fmy9gUw4Btf7AuIgCCHI/BwA7WkLDCywY0QDyBoC+ww+3ChIxBcBABWFwFwXQKRBAIFCC0GooDAwTaASAKQFRyAeHIyDAJfIxwBQPQQeA6KDsZFgwHbD0FApGh0HJwP0aPIN8DmwwMsuAb5QFWBwAg7DkbhoH5DGRBwKysOI6FDY9ADywTEH/AGAqEcGEhV9kkoBUUn6EU2ISzA9/EApSvIKDYPyyKnDE4BwAwwKcTOPmFYF+h2oDf+wYF8BXbybMiKBJUfsPIAnDwAg0OAQs4AbFBqIDmZA20obAHIpexKZYGy5AJo+wJpSfAEqTmwgl09MoDKgMqUHSQoUB/QC2kMPAEmQD4GCD7gJz0KtAoAPD8CwPFNkT8Ak/wActgKRZAC8iBgCJobDCGFn4OIWShF/scJWQCgByWUDog7Dz9Bls8AFwYQCpljxHo4RYHQHagogIoQkDpwILOA9gCARgAf0CAo3sYBxIMB2pFsSseZ4iwDA4EiRp8BkP8DwZAfwL+B5gwthcAshzgGUhyA7Q+kCYJgJlA6EBEoEuAOAQPIOwLAOxBkImDb9BuHCSMC4J00F5AUUHUi/YhU8g6IhJsKn7CbA9i6ABtKk6HlRHcf6DLfwQAJN8AM4YPReAQY9UHkET/hDksTsZZcAuBYDkARYMqKSqAMSwbIAToS5aDIDiOFgICZpNhRghRIMgMVMi8BSBbArfgEyKjsPs4WBNSh2SCIKxlwArAZVRlkCgHhdj0As4QUmgOgFBAMlkFbkDg2HnBUoJTvyFB9AVV7DuJ4FHgP8AQHsDp7BayLEP6AhYZCB+gGMgXhYpkLBGAlwFnyCyhAE7MSAOQKmXCG0cBQehIDBhYZcFEdAKLvgZDocAVgwZg3FwoDEaA+DtwGZA9hBsGAXAOLIFT0H/AOig8AUB2BgeM2PsPocCsBbkCxkNyDt+AQChOgODYL+wmGxIZgeg/wAGhgFGgQCpGwPQowYealGQPsKNWOIXUHQBtKoFEC7I7DwmxoDHoHIofYvjuA+GQUkHwP8ASDOJPEsOKADBYkHkfYTFkKSgUYUXP6BTdA46cAByjyAViA/H0MOBl54BCZBMCWQLPgLPgWyl+gHgYcM6CCqW+AYBf7Dd5BEjoC2A6jAYnYNa4A8gEugCYAYFABQfYMFwI8oCoTGQgujDyZ8SxYX5OmjzBkGwKmRpwmxJ9iYCGBYLGDo2B4BwUBUxQYqGUBh7TIyHwWTgGgpuQBvgfYqGDAYHoUOgTN8Vn6DCr9BOMDRIfQOTAXMPiikAfzwagU1GWZHSghHAHsD0BwAMAUn7CgMMNyMAQAeB4AD/AAAdOxdHQJGQHRAEAQYHsZZZDiWLQOKXYaQB3Bwfg2DG36AmYAKBIkgcI/gHoHYMih6LGXQNfgHko6IHnQ7I0BO3oBZoFN8oHTHwMAVJsl7HBD7LkIRwfYrKIIECiPILQFcq4UAoEwBFwga4AKLgIwkZIPAChJCowWNAUQsAfQkkhBmFe/ADHb9D5hYP2vBZ5gG3kPo0DmQnDV5F0AFQCgDDQ2HSzYX+wYANw0ClDEBaQdo/IgX/AINAsyBYCBSAgL7cAgx0YFtkPPYZFUfgahUDgmD4A/wOwbCDlg/k2ZBYDIlkDYHmR5OD64HoDBI5tj0DmgcBMoWf24gCIXYHY8HYfsOmgLLkOY6CRAWNIXCWAK7XBiA8A/sMBS1DMX5CgGiGFk0U8kzXAjeSkPcYbh5BSAdm+Af8Y/APOxA4tUUYNJJ+7BQ38AKivATnbsWMCBGWwPsAd2SoykdBgFAC2fQlR0IHYcUDIC7+AF7CE9CRBM2UCgUgcroDAafs4IDRPPAQ/SC4iCiQWbGQGBgMIANuzHYKgaKOxQDggYaAwYZZBDmU0CsCBvIC0pPaAvJC/wCGDBmBsPQPABAG17A4R7B7BMjIChQsPIDJBxJ0HRMHYJIkBBvD6OCXwGHB2gHyDcAgH6DKlCnQLQsmQu4IMJBdAWSPF/scDJIDbsw2cAOTgMAF2w9g+B/gM4CoG4oDAIA8wLBUD4PsITIDyAmP8A0PIQHQ8BZIHJs4PB/BAfsDPgWAowFHAHkcWQCs/gGAXpBynYoeAcR9gqUOAo7AEwi8A7ScglvQdvwBeLEAHsBt/wCgYdg6ApiIBdn2aB3BewcwCCNQBlsEpD6gDloGSIF+EBf+AWVBgQig3APoCz3jK4bPowJQBM/sHnH6GpYezDIUbAX5AaMgJAqC7sKwdAJj8B/YA0GHzGQKwFJMAX0AjK/YFsB4hmAaEAx7C9IRKCjwM0uAypWDt7ArcAgIGb6IwCzATAO36h9gHbsAWdgiGDgTJFB2NIMeLEQcH5DUKOSQFnwHpCY4APAUlAzCZ+DDUC7Xrg+ASC7izgdmGFFAPvgSkMmPPkfQ+R9ybAOwPYHKDfEfAPCAcE9BA6Py7LeQYQwgax5FxAkCx2HkMmOMH0Fg5ajFShacDxkHdA1CyYFBT7MhLMDZNA20FYAYbGB/YB3oFCkhgKv2DSwp/wBBgB2H8hRiQSZyoXB8CwUDsHQFAHkNAcmryVK7DJCif0L6FAlZB/TPX8IAQtYNJBlkE0H+AcEAoJKDUB4ZFIRMv2MP2BBuDBkwrf0HKwXAxH/CNxwHwBZAh+g4AJ6jgD0EBbeDFI8SDkB27wbg4T6AZCgekNYRC09DAoAF7AqAyXmDI7se4yPBlwgQdkgL6cUcDySQn7coFhBsHwDZULgaQ/ohlCp4FkoKULBDheAJ+142AYB2MvgMoBsRB2GMuxAy4NGQoAw3yLAdjqBsMZYHsMGreAckUD9gebB0aQ0IasBpKNgYIDQYHBsYORBiIPAypxAaB0+nAukPoD8gPR5NEZxgQD7P/IUx4BC6R8ANobAg0EBc07HRIHgC8KG/0FHwAlh6DNIFQeKH9hIyCQXRH2LgKWCQGRYwabGA6QAqN8QxJAxwQyB4lkegGrguQA9gPzDmPoCyUDwQFagDAtWGHYuwgsIo/qIL/IMgE0f04BYADoEh9ABifADKQ0YKmwDMMdiqEKID5CsiIWi6AJ9HAQDyKJD2B6IyDLsEAs9Ayoo7Dhv8ipZ0RMWKThuA4hcBGVg6UewqBUxUEFSfsYMHwJ5QQFZwKGb+nACywZCt0MuBl+grDENEHkeVm+FB2FtByLI2OnA4n8nDmQskMVUMWwVAP109iRNgcS/YURIH6hQUHJIIhGPYQf8AIICgh0akeQQAxEmDAMAoz/rivo4g7YJ8B9PwEARJANBkA8geo8BWkBWogFsP6Hs9tjo7QCede0d+BfUICzwHkDYggiQC9QDfiwG6fyKkAgS6OCCyA6AfQEDkArLMcBTTaCxGwONhiQDhAoQE+h3HoOBW4Af4hi/ImCWiRSWFyBNCTuBqQnTbCo2fIPKk5Di6RNdogmk+h5W7KSF8BuDoeRDcw+hCRCiC5YjgbkP0N8RWAeC0g6ZBp7DATmPSGaLon7DaCGkulJH9g2rLNZCzkYi7WMeWJiTY9xJle1byZtDNZV0SHr6BIZIVB8NdTJ3gakVmQbgLFQ3kW0MKpajInhN9k2+EoeDIblfAlWCUz5GsH0JlrGaCtIaGFLrB0FMFFoTBlQnBZhZ9OFUpRghxE8GpyOV1jUBTIeYeZegbcryNHhCyruRsGZHJ+ezCtDgsK0Wba6E6UGVvKMjF4F8BBN5KIZRKzAdohL6BopY+RkX0EoT0GoVnMQKq0VwFt9tjdPCSV1vscpRYm7BzI4wjyKtQPEkO3NiqoNkktnMC2tIiDQ6lymx5WMYwwMQt9DKlhDQh1Gzciz4ZOnWfYr2ENBGWT5A25baYMCKiRy17DRQMTewTTMhCSp+xOW6ciUTfuZNsCdCyw1MxQqXxB//Z;" vertex="1" parent="1">
          <mxGeometry x="100" y="30" width="1280" height="941" as="geometry" />
        </mxCell>
        <mxCell id="Pv7_C7f3T_UFruFDpJQl-20" style="edgeStyle=none;shape=connector;rounded=0;orthogonalLoop=1;jettySize=auto;html=1;exitX=0.5;exitY=0;exitDx=0;exitDy=0;exitPerimeter=0;strokeColor=default;align=center;verticalAlign=middle;fontFamily=Helvetica;fontSize=11;fontColor=default;labelBackgroundColor=default;endArrow=none;endFill=0;" edge="1" parent="1">
          <mxGeometry relative="1" as="geometry">
            <mxPoint x="574" y="1510" as="sourcePoint" />
            <mxPoint x="574" y="1490" as="targetPoint" />
          </mxGeometry>
        </mxCell>
        <mxCell id="Pv7_C7f3T_UFruFDpJQl-2" value="" style="sketch=0;points=[[0.5,0,0],[1,0.5,0],[0.5,1,0],[0,0.5,0],[0.145,0.145,0],[0.8555,0.145,0],[0.855,0.8555,0],[0.145,0.855,0]];verticalLabelPosition=bottom;html=1;verticalAlign=top;aspect=fixed;align=center;pointerEvents=1;shape=mxgraph.cisco19.rect;prIcon=router;fillColor=#FAFAFA;strokeColor=#005073;" vertex="1" parent="1">
          <mxGeometry x="550" y="1510" width="50" height="50" as="geometry" />
        </mxCell>
        <mxCell id="Pv7_C7f3T_UFruFDpJQl-31" style="edgeStyle=none;shape=connector;rounded=0;orthogonalLoop=1;jettySize=auto;html=1;exitX=0;exitY=0.5;exitDx=0;exitDy=0;exitPerimeter=0;entryX=0.75;entryY=0;entryDx=0;entryDy=0;strokeColor=default;align=center;verticalAlign=middle;fontFamily=Helvetica;fontSize=11;fontColor=default;labelBackgroundColor=default;endArrow=none;endFill=0;" edge="1" parent="1" source="Pv7_C7f3T_UFruFDpJQl-3" target="Pv7_C7f3T_UFruFDpJQl-29">
          <mxGeometry relative="1" as="geometry" />
        </mxCell>
        <mxCell id="Pv7_C7f3T_UFruFDpJQl-3" value="" style="sketch=0;points=[[0.015,0.015,0],[0.985,0.015,0],[0.985,0.985,0],[0.015,0.985,0],[0.25,0,0],[0.5,0,0],[0.75,0,0],[1,0.25,0],[1,0.5,0],[1,0.75,0],[0.75,1,0],[0.5,1,0],[0.25,1,0],[0,0.75,0],[0,0.5,0],[0,0.25,0]];verticalLabelPosition=bottom;html=1;verticalAlign=top;aspect=fixed;align=center;pointerEvents=1;shape=mxgraph.cisco19.rect;prIcon=l3_switch;fillColor=#FAFAFA;strokeColor=#005073;" vertex="1" parent="1">
          <mxGeometry x="550" y="1720" width="50" height="50" as="geometry" />
        </mxCell>
        <mxCell id="Pv7_C7f3T_UFruFDpJQl-4" value="" style="sketch=0;points=[[0.5,0,0],[1,0.5,0],[0.5,1,0],[0,0.5,0],[0.145,0.145,0],[0.8555,0.145,0],[0.855,0.8555,0],[0.145,0.855,0]];verticalLabelPosition=bottom;html=1;verticalAlign=top;aspect=fixed;align=center;pointerEvents=1;shape=mxgraph.cisco19.rect;prIcon=router;fillColor=#FAFAFA;strokeColor=#005073;" vertex="1" parent="1">
          <mxGeometry x="550" y="1624" width="50" height="50" as="geometry" />
        </mxCell>
        <mxCell id="Pv7_C7f3T_UFruFDpJQl-22" style="edgeStyle=none;shape=connector;rounded=0;orthogonalLoop=1;jettySize=auto;html=1;exitX=0.5;exitY=0;exitDx=0;exitDy=0;exitPerimeter=0;strokeColor=default;align=center;verticalAlign=middle;fontFamily=Helvetica;fontSize=11;fontColor=default;labelBackgroundColor=default;endArrow=none;endFill=0;" edge="1" parent="1" source="Pv7_C7f3T_UFruFDpJQl-5">
          <mxGeometry relative="1" as="geometry">
            <mxPoint x="395" y="1600" as="targetPoint" />
          </mxGeometry>
        </mxCell>
        <mxCell id="Pv7_C7f3T_UFruFDpJQl-5" value="" style="sketch=0;points=[[0.5,0,0],[1,0.5,0],[0.5,1,0],[0,0.5,0],[0.145,0.145,0],[0.8555,0.145,0],[0.855,0.8555,0],[0.145,0.855,0]];verticalLabelPosition=bottom;html=1;verticalAlign=top;aspect=fixed;align=center;pointerEvents=1;shape=mxgraph.cisco19.rect;prIcon=router;fillColor=#FAFAFA;strokeColor=#005073;" vertex="1" parent="1">
          <mxGeometry x="370" y="1630" width="50" height="50" as="geometry" />
        </mxCell>
        <mxCell id="Pv7_C7f3T_UFruFDpJQl-6" style="rounded=0;orthogonalLoop=1;jettySize=auto;html=1;exitX=0.5;exitY=0;exitDx=0;exitDy=0;exitPerimeter=0;entryX=0.5;entryY=1;entryDx=0;entryDy=0;entryPerimeter=0;endArrow=none;endFill=0;" edge="1" parent="1" source="Pv7_C7f3T_UFruFDpJQl-3" target="Pv7_C7f3T_UFruFDpJQl-4">
          <mxGeometry relative="1" as="geometry" />
        </mxCell>
        <mxCell id="Pv7_C7f3T_UFruFDpJQl-7" style="edgeStyle=none;shape=connector;rounded=0;orthogonalLoop=1;jettySize=auto;html=1;exitX=0.015;exitY=0.015;exitDx=0;exitDy=0;exitPerimeter=0;entryX=0.855;entryY=0.8555;entryDx=0;entryDy=0;entryPerimeter=0;strokeColor=default;align=center;verticalAlign=middle;fontFamily=Helvetica;fontSize=11;fontColor=default;labelBackgroundColor=default;endArrow=none;endFill=0;" edge="1" parent="1" source="Pv7_C7f3T_UFruFDpJQl-3" target="Pv7_C7f3T_UFruFDpJQl-5">
          <mxGeometry relative="1" as="geometry" />
        </mxCell>
        <mxCell id="Pv7_C7f3T_UFruFDpJQl-8" value="" style="sketch=0;points=[[0.5,0,0],[1,0.5,0],[0.5,1,0],[0,0.5,0],[0.145,0.145,0],[0.8555,0.145,0],[0.855,0.8555,0],[0.145,0.855,0]];verticalLabelPosition=bottom;html=1;verticalAlign=top;aspect=fixed;align=center;pointerEvents=1;shape=mxgraph.cisco19.rect;prIcon=router;fillColor=#FAFAFA;strokeColor=#005073;" vertex="1" parent="1">
          <mxGeometry x="655" y="1619" width="50" height="50" as="geometry" />
        </mxCell>
        <mxCell id="Pv7_C7f3T_UFruFDpJQl-9" style="edgeStyle=none;shape=connector;rounded=0;orthogonalLoop=1;jettySize=auto;html=1;exitX=0.985;exitY=0.015;exitDx=0;exitDy=0;exitPerimeter=0;entryX=0.145;entryY=0.855;entryDx=0;entryDy=0;entryPerimeter=0;strokeColor=default;align=center;verticalAlign=middle;fontFamily=Helvetica;fontSize=11;fontColor=default;labelBackgroundColor=default;endArrow=none;endFill=0;" edge="1" parent="1" source="Pv7_C7f3T_UFruFDpJQl-3" target="Pv7_C7f3T_UFruFDpJQl-8">
          <mxGeometry relative="1" as="geometry" />
        </mxCell>
        <mxCell id="Pv7_C7f3T_UFruFDpJQl-10" value="" style="sketch=0;points=[[0.5,0,0],[1,0.5,0],[0.5,1,0],[0,0.5,0],[0.145,0.145,0],[0.8555,0.145,0],[0.855,0.8555,0],[0.145,0.855,0]];verticalLabelPosition=bottom;html=1;verticalAlign=top;aspect=fixed;align=center;pointerEvents=1;shape=mxgraph.cisco19.rect;prIcon=router;fillColor=#FAFAFA;strokeColor=#005073;" vertex="1" parent="1">
          <mxGeometry x="738" y="1510" width="50" height="50" as="geometry" />
        </mxCell>
        <mxCell id="Pv7_C7f3T_UFruFDpJQl-11" style="edgeStyle=none;shape=connector;rounded=0;orthogonalLoop=1;jettySize=auto;html=1;exitX=0.8555;exitY=0.145;exitDx=0;exitDy=0;exitPerimeter=0;entryX=0.376;entryY=1.006;entryDx=0;entryDy=0;entryPerimeter=0;strokeColor=default;align=center;verticalAlign=middle;fontFamily=Helvetica;fontSize=11;fontColor=default;labelBackgroundColor=default;endArrow=none;endFill=0;" edge="1" parent="1" source="Pv7_C7f3T_UFruFDpJQl-8" target="Pv7_C7f3T_UFruFDpJQl-10">
          <mxGeometry relative="1" as="geometry" />
        </mxCell>
        <mxCell id="Pv7_C7f3T_UFruFDpJQl-12" style="edgeStyle=none;shape=connector;rounded=0;orthogonalLoop=1;jettySize=auto;html=1;exitX=0.5;exitY=0;exitDx=0;exitDy=0;exitPerimeter=0;entryX=0.5;entryY=1;entryDx=0;entryDy=0;entryPerimeter=0;strokeColor=default;align=center;verticalAlign=middle;fontFamily=Helvetica;fontSize=11;fontColor=default;labelBackgroundColor=default;endArrow=none;endFill=0;" edge="1" parent="1" source="Pv7_C7f3T_UFruFDpJQl-4" target="Pv7_C7f3T_UFruFDpJQl-2">
          <mxGeometry relative="1" as="geometry" />
        </mxCell>
        <mxCell id="Pv7_C7f3T_UFruFDpJQl-13" value="DMZ" style="rounded=1;whiteSpace=wrap;html=1;fontFamily=Helvetica;fontSize=11;fontColor=default;labelBackgroundColor=default;" vertex="1" parent="1">
          <mxGeometry x="460" y="1485" width="60" height="20" as="geometry" />
        </mxCell>
        <mxCell id="Pv7_C7f3T_UFruFDpJQl-14" value="DMZ" style="rounded=1;whiteSpace=wrap;html=1;fontFamily=Helvetica;fontSize=11;fontColor=default;labelBackgroundColor=default;" vertex="1" parent="1">
          <mxGeometry x="460" y="1525" width="60" height="20" as="geometry" />
        </mxCell>
        <mxCell id="Pv7_C7f3T_UFruFDpJQl-15" value="DMZ" style="rounded=1;whiteSpace=wrap;html=1;fontFamily=Helvetica;fontSize=11;fontColor=default;labelBackgroundColor=default;" vertex="1" parent="1">
          <mxGeometry x="460" y="1565" width="60" height="20" as="geometry" />
        </mxCell>
        <mxCell id="Pv7_C7f3T_UFruFDpJQl-16" style="edgeStyle=none;shape=connector;rounded=0;orthogonalLoop=1;jettySize=auto;html=1;exitX=1;exitY=0.5;exitDx=0;exitDy=0;entryX=0;entryY=0.5;entryDx=0;entryDy=0;entryPerimeter=0;strokeColor=default;align=center;verticalAlign=middle;fontFamily=Helvetica;fontSize=11;fontColor=default;labelBackgroundColor=default;endArrow=none;endFill=0;" edge="1" parent="1" source="Pv7_C7f3T_UFruFDpJQl-13" target="Pv7_C7f3T_UFruFDpJQl-2">
          <mxGeometry relative="1" as="geometry" />
        </mxCell>
        <mxCell id="Pv7_C7f3T_UFruFDpJQl-17" style="edgeStyle=none;shape=connector;rounded=0;orthogonalLoop=1;jettySize=auto;html=1;exitX=1;exitY=0.5;exitDx=0;exitDy=0;entryX=0;entryY=0.5;entryDx=0;entryDy=0;entryPerimeter=0;strokeColor=default;align=center;verticalAlign=middle;fontFamily=Helvetica;fontSize=11;fontColor=default;labelBackgroundColor=default;endArrow=none;endFill=0;" edge="1" parent="1" source="Pv7_C7f3T_UFruFDpJQl-14" target="Pv7_C7f3T_UFruFDpJQl-2">
          <mxGeometry relative="1" as="geometry" />
        </mxCell>
        <mxCell id="Pv7_C7f3T_UFruFDpJQl-18" style="edgeStyle=none;shape=connector;rounded=0;orthogonalLoop=1;jettySize=auto;html=1;exitX=1;exitY=0.5;exitDx=0;exitDy=0;entryX=0;entryY=0.5;entryDx=0;entryDy=0;entryPerimeter=0;strokeColor=default;align=center;verticalAlign=middle;fontFamily=Helvetica;fontSize=11;fontColor=default;labelBackgroundColor=default;endArrow=none;endFill=0;" edge="1" parent="1" source="Pv7_C7f3T_UFruFDpJQl-15" target="Pv7_C7f3T_UFruFDpJQl-2">
          <mxGeometry relative="1" as="geometry" />
        </mxCell>
        <mxCell id="Pv7_C7f3T_UFruFDpJQl-23" style="edgeStyle=none;shape=connector;rounded=0;orthogonalLoop=1;jettySize=auto;html=1;exitX=0.5;exitY=0;exitDx=0;exitDy=0;exitPerimeter=0;strokeColor=default;align=center;verticalAlign=middle;fontFamily=Helvetica;fontSize=11;fontColor=default;labelBackgroundColor=default;endArrow=none;endFill=0;" edge="1" parent="1" source="Pv7_C7f3T_UFruFDpJQl-10">
          <mxGeometry relative="1" as="geometry">
            <mxPoint x="750" y="1510" as="sourcePoint" />
            <mxPoint x="763" y="1490" as="targetPoint" />
          </mxGeometry>
        </mxCell>
        <mxCell id="Pv7_C7f3T_UFruFDpJQl-24" value="FG" style="text;html=1;align=center;verticalAlign=middle;whiteSpace=wrap;rounded=0;fontFamily=Helvetica;fontSize=11;fontColor=default;labelBackgroundColor=default;" vertex="1" parent="1">
          <mxGeometry x="390" y="1610" width="60" height="30" as="geometry" />
        </mxCell>
        <mxCell id="Pv7_C7f3T_UFruFDpJQl-25" value="UG" style="text;html=1;align=center;verticalAlign=middle;whiteSpace=wrap;rounded=0;fontFamily=Helvetica;fontSize=11;fontColor=default;labelBackgroundColor=default;" vertex="1" parent="1">
          <mxGeometry x="569" y="1490" width="60" height="30" as="geometry" />
        </mxCell>
        <mxCell id="Pv7_C7f3T_UFruFDpJQl-26" value="PT" style="text;html=1;align=center;verticalAlign=middle;whiteSpace=wrap;rounded=0;fontFamily=Helvetica;fontSize=11;fontColor=default;labelBackgroundColor=default;" vertex="1" parent="1">
          <mxGeometry x="760" y="1505" width="60" height="30" as="geometry" />
        </mxCell>
        <mxCell id="Pv7_C7f3T_UFruFDpJQl-27" value="Cisco 2901" style="text;html=1;align=center;verticalAlign=middle;whiteSpace=wrap;rounded=0;fontFamily=Helvetica;fontSize=11;fontColor=default;labelBackgroundColor=default;" vertex="1" parent="1">
          <mxGeometry x="490" y="1634" width="60" height="30" as="geometry" />
        </mxCell>
        <mxCell id="Pv7_C7f3T_UFruFDpJQl-28" style="edgeStyle=none;shape=connector;rounded=0;orthogonalLoop=1;jettySize=auto;html=1;exitX=0.145;exitY=0.145;exitDx=0;exitDy=0;exitPerimeter=0;entryX=0.855;entryY=0.8555;entryDx=0;entryDy=0;entryPerimeter=0;strokeColor=default;align=center;verticalAlign=middle;fontFamily=Helvetica;fontSize=11;fontColor=default;labelBackgroundColor=default;endArrow=none;endFill=0;" edge="1" parent="1" source="Pv7_C7f3T_UFruFDpJQl-8" target="Pv7_C7f3T_UFruFDpJQl-2">
          <mxGeometry relative="1" as="geometry" />
        </mxCell>
        <mxCell id="Pv7_C7f3T_UFruFDpJQl-29" value="" style="image;html=1;image=img/lib/clip_art/computers/Server_128x128.png;fontFamily=Helvetica;fontSize=11;fontColor=default;labelBackgroundColor=default;" vertex="1" parent="1">
          <mxGeometry x="440" y="1800" width="60" height="40" as="geometry" />
        </mxCell>
        <mxCell id="Pv7_C7f3T_UFruFDpJQl-30" value="" style="fontColor=#0066CC;verticalAlign=top;verticalLabelPosition=bottom;labelPosition=center;align=center;html=1;outlineConnect=0;fillColor=#CCCCCC;strokeColor=#6881B3;gradientColor=none;gradientDirection=north;strokeWidth=2;shape=mxgraph.networks.pc;fontFamily=Helvetica;fontSize=11;labelBackgroundColor=default;" vertex="1" parent="1">
          <mxGeometry x="740" y="1810" width="50" height="40" as="geometry" />
        </mxCell>
        <mxCell id="Pv7_C7f3T_UFruFDpJQl-32" style="edgeStyle=none;shape=connector;rounded=0;orthogonalLoop=1;jettySize=auto;html=1;exitX=1;exitY=0.5;exitDx=0;exitDy=0;exitPerimeter=0;entryX=0;entryY=0;entryDx=0;entryDy=0;entryPerimeter=0;strokeColor=default;align=center;verticalAlign=middle;fontFamily=Helvetica;fontSize=11;fontColor=default;labelBackgroundColor=default;endArrow=none;endFill=0;" edge="1" parent="1" source="Pv7_C7f3T_UFruFDpJQl-3" target="Pv7_C7f3T_UFruFDpJQl-30">
          <mxGeometry relative="1" as="geometry" />
        </mxCell>
        <mxCell id="Pv7_C7f3T_UFruFDpJQl-33" value="10.50.32.x" style="text;html=1;align=center;verticalAlign=middle;whiteSpace=wrap;rounded=0;fontFamily=Helvetica;fontSize=11;fontColor=default;labelBackgroundColor=default;" vertex="1" parent="1">
          <mxGeometry x="738" y="1777" width="60" height="30" as="geometry" />
        </mxCell>
        <mxCell id="Pv7_C7f3T_UFruFDpJQl-34" value="10.50.34.x" style="text;html=1;align=center;verticalAlign=middle;whiteSpace=wrap;rounded=0;fontFamily=Helvetica;fontSize=11;fontColor=default;labelBackgroundColor=default;" vertex="1" parent="1">
          <mxGeometry x="738" y="1754" width="60" height="30" as="geometry" />
        </mxCell>
        <mxCell id="Pv7_C7f3T_UFruFDpJQl-35" value="10.50.130.x" style="text;html=1;align=center;verticalAlign=middle;whiteSpace=wrap;rounded=0;fontFamily=Helvetica;fontSize=11;fontColor=default;labelBackgroundColor=default;" vertex="1" parent="1">
          <mxGeometry x="420" y="1770" width="60" height="30" as="geometry" />
        </mxCell>
        <mxCell id="Pv7_C7f3T_UFruFDpJQl-36" value="x.x.x.1" style="text;html=1;align=center;verticalAlign=middle;resizable=0;points=[];autosize=1;strokeColor=none;fillColor=none;fontFamily=Helvetica;fontSize=11;fontColor=default;labelBackgroundColor=default;" vertex="1" parent="1">
          <mxGeometry x="545" y="1770" width="60" height="30" as="geometry" />
        </mxCell>
        <mxCell id="Pv7_C7f3T_UFruFDpJQl-37" value="x.x.x.7" style="text;html=1;align=center;verticalAlign=middle;resizable=0;points=[];autosize=1;strokeColor=none;fillColor=none;fontFamily=Helvetica;fontSize=11;fontColor=default;labelBackgroundColor=default;" vertex="1" parent="1">
          <mxGeometry x="546" y="1666" width="60" height="30" as="geometry" />
        </mxCell>
        <mxCell id="Pv7_C7f3T_UFruFDpJQl-38" value="Инет" style="text;html=1;align=center;verticalAlign=middle;whiteSpace=wrap;rounded=0;fontFamily=Helvetica;fontSize=11;fontColor=default;labelBackgroundColor=default;" vertex="1" parent="1">
          <mxGeometry x="365" y="1576" width="60" height="30" as="geometry" />
        </mxCell>
        <mxCell id="Pv7_C7f3T_UFruFDpJQl-39" value="Инет" style="text;html=1;align=center;verticalAlign=middle;whiteSpace=wrap;rounded=0;fontFamily=Helvetica;fontSize=11;fontColor=default;labelBackgroundColor=default;" vertex="1" parent="1">
          <mxGeometry x="545" y="1470" width="60" height="30" as="geometry" />
        </mxCell>
        <mxCell id="Pv7_C7f3T_UFruFDpJQl-40" value="Инет" style="text;html=1;align=center;verticalAlign=middle;whiteSpace=wrap;rounded=0;fontFamily=Helvetica;fontSize=11;fontColor=default;labelBackgroundColor=default;" vertex="1" parent="1">
          <mxGeometry x="733" y="1470" width="60" height="30" as="geometry" />
        </mxCell>
        <mxCell id="Pv7_C7f3T_UFruFDpJQl-41" value="" style="sketch=0;points=[[0.5,0,0],[1,0.5,0],[0.5,1,0],[0,0.5,0],[0.145,0.145,0],[0.8555,0.145,0],[0.855,0.8555,0],[0.145,0.855,0]];verticalLabelPosition=bottom;html=1;verticalAlign=top;aspect=fixed;align=center;pointerEvents=1;shape=mxgraph.cisco19.rect;prIcon=router;fillColor=#FAFAFA;strokeColor=#005073;" vertex="1" parent="1">
          <mxGeometry x="651" y="1623" width="50" height="50" as="geometry" />
        </mxCell>
        <mxCell id="Pv7_C7f3T_UFruFDpJQl-42" value="Text" style="text;html=1;align=center;verticalAlign=middle;whiteSpace=wrap;rounded=0;fontFamily=Helvetica;fontSize=11;fontColor=default;labelBackgroundColor=default;" vertex="1" parent="1">
          <mxGeometry x="420" y="1590" width="60" height="30" as="geometry" />
        </mxCell>
        <mxCell id="Pv7_C7f3T_UFruFDpJQl-48" value="Пятница" style="text;html=1;align=center;verticalAlign=middle;whiteSpace=wrap;rounded=0;fontFamily=Helvetica;fontSize=11;fontColor=default;labelBackgroundColor=default;" vertex="1" parent="1">
          <mxGeometry x="60" y="1290" width="60" height="30" as="geometry" />
        </mxCell>
        <mxCell id="Pv7_C7f3T_UFruFDpJQl-49" value="x.x.x.6" style="text;html=1;align=center;verticalAlign=middle;resizable=0;points=[];autosize=1;strokeColor=none;fillColor=none;fontFamily=Helvetica;fontSize=11;fontColor=default;labelBackgroundColor=default;" vertex="1" parent="1">
          <mxGeometry x="649" y="1666" width="60" height="30" as="geometry" />
        </mxCell>
      </root>
    </mxGraphModel>
  </diagram>
</mxfile>
